<?xml version="1.0" encoding="UTF-8" standalone="no"?>
<!-- Created with Inkscape (http://www.inkscape.org/) -->

<svg
   width="135.79121mm"
   height="91.384369mm"
   viewBox="0 0 135.79121 91.384371"
   version="1.1"
   id="svg5694"
   sodipodi:docname="right-limit.svg"
   inkscape:version="1.2 (dc2aeda, 2022-05-15)"
   xmlns:inkscape="http://www.inkscape.org/namespaces/inkscape"
   xmlns:sodipodi="http://sodipodi.sourceforge.net/DTD/sodipodi-0.dtd"
   xmlns="http://www.w3.org/2000/svg"
   xmlns:svg="http://www.w3.org/2000/svg"
   xmlns:ns6="http://www.iki.fi/pav/software/textext/">
  <sodipodi:namedview
     id="namedview5696"
     pagecolor="#ffffff"
     bordercolor="#000000"
     borderopacity="0.25"
     inkscape:showpageshadow="2"
     inkscape:pageopacity="0.0"
     inkscape:pagecheckerboard="0"
     inkscape:deskcolor="#d1d1d1"
     inkscape:document-units="mm"
     showgrid="false"
     inkscape:zoom="1.2036126"
     inkscape:cx="294.9454"
     inkscape:cy="177.38266"
     inkscape:window-width="1390"
     inkscape:window-height="847"
     inkscape:window-x="2"
     inkscape:window-y="25"
     inkscape:window-maximized="0"
     inkscape:current-layer="layer1" />
  <defs
     id="defs5691">
    <rect
       x="388.82944"
       y="539.21008"
       width="320.7012"
       height="144.56479"
       id="rect9164" />
    <inkscape:path-effect
       effect="spiro"
       id="path-effect7999"
       is_visible="true"
       lpeversion="1" />
    <inkscape:path-effect
       effect="spiro"
       id="path-effect5938"
       is_visible="true"
       lpeversion="1" />
    <marker
       style="overflow:visible"
       id="Arrow2"
       refX="0"
       refY="0"
       orient="auto-start-reverse"
       inkscape:stockid="Arrow2"
       markerWidth="7.6999998"
       markerHeight="5.5999999"
       viewBox="0 0 7.7 5.6"
       inkscape:isstock="true"
       inkscape:collect="always"
       preserveAspectRatio="xMidYMid">
      <path
         transform="scale(0.7)"
         d="M -2,-4 9,0 -2,4 c 2,-2.33 2,-5.66 0,-8 z"
         style="fill:context-stroke;fill-rule:evenodd;stroke:none"
         id="arrow2L" />
    </marker>
    <inkscape:path-effect
       effect="spiro"
       id="path-effect7999-8"
       is_visible="true"
       lpeversion="1" />
    <marker
       style="overflow:visible"
       id="Arrow2-7"
       refX="0"
       refY="0"
       orient="auto-start-reverse"
       inkscape:stockid="Arrow2"
       markerWidth="7.6999998"
       markerHeight="5.5999999"
       viewBox="0 0 7.7 5.6"
       inkscape:isstock="true"
       inkscape:collect="always"
       preserveAspectRatio="xMidYMid">
      <path
         transform="scale(0.7)"
         d="M -2,-4 9,0 -2,4 c 2,-2.33 2,-5.66 0,-8 z"
         style="fill:context-stroke;fill-rule:evenodd;stroke:none"
         id="arrow2L-9" />
    </marker>
    <inkscape:path-effect
       effect="spiro"
       id="path-effect5938-5"
       is_visible="true"
       lpeversion="1" />
    <inkscape:path-effect
       effect="spiro"
       id="path-effect14373"
       is_visible="true"
       lpeversion="1" />
  </defs>
  <g
     inkscape:label="Layer 1"
     inkscape:groupmode="layer"
     id="layer1"
     transform="translate(-83.215696,-65.743473)">
    <path
       style="fill:none;stroke:#000000;stroke-width:1.31471;stroke-linecap:round;stroke-linejoin:round;stroke-dasharray:none;stroke-dashoffset:0;stop-color:#000000"
       inkscape:path-effect="#path-effect14373"
       inkscape:original-d="m 154.58061,98.515763 c 0,0 21.59782,-18.83188 27.92357,-21.840687 14.76146,-7.021206 16.37249,-0.196841 30.05383,0.702924"
       d="m 154.58061,98.515763 c 6.15666,-10.411213 16.33594,-18.373029 27.92357,-21.840687 9.75979,-2.920667 20.44126,-2.67084 30.05383,0.702924"
       id="path14369"
       sodipodi:nodetypes="csc" />
    <path
       style="font-variation-settings:normal;opacity:1;fill:none;fill-opacity:1;stroke:#000000;stroke-width:0.788824;stroke-linecap:round;stroke-linejoin:round;stroke-miterlimit:4;stroke-dasharray:none;stroke-dashoffset:0;stroke-opacity:1;stop-color:#000000;stop-opacity:1"
       d="M 153.88082,98.622706 H 95.151806"
       id="path8105" />
    <path
       style="font-variation-settings:normal;opacity:1;fill:none;fill-opacity:1;stroke:#999999;stroke-width:0.525883;stroke-linecap:round;stroke-linejoin:round;stroke-miterlimit:4;stroke-dasharray:2.10353, 2.10353;stroke-dashoffset:0;stroke-opacity:1;stop-color:#000000;stop-opacity:1"
       d="M 161.29922,90.277003 H 94.533605"
       id="path8111" />
    <path
       style="font-variation-settings:normal;opacity:1;fill:none;fill-opacity:1;stroke:#999999;stroke-width:0.525883;stroke-linecap:round;stroke-linejoin:round;stroke-miterlimit:4;stroke-dasharray:2.10353, 2.10353;stroke-dashoffset:0;stroke-opacity:1;stop-color:#000000;stop-opacity:1"
       d="M 172.73592,80.076702 H 94.533605"
       id="path8117" />
    <path
       style="font-variation-settings:normal;opacity:1;fill:none;fill-opacity:1;stroke:#999999;stroke-width:0.525883;stroke-linecap:round;stroke-linejoin:round;stroke-miterlimit:4;stroke-dasharray:2.10353, 2.10353;stroke-dashoffset:0;stroke-opacity:1;stop-color:#000000;stop-opacity:1"
       d="M 192.20923,74.822001 H 94.842708"
       id="path8123" />
    <path
       style="font-variation-settings:normal;opacity:1;fill:none;fill-opacity:1;stroke:#000000;stroke-width:0.788824;stroke-linecap:round;stroke-linejoin:round;stroke-miterlimit:4;stroke-dasharray:none;stroke-dashoffset:0;stroke-opacity:1;stop-color:#000000;stop-opacity:1"
       d="M 154.18992,98.622706 V 149.93331"
       id="path8065" />
    <path
       style="font-variation-settings:normal;opacity:1;fill:none;fill-opacity:1;stroke:#999999;stroke-width:0.525883;stroke-linecap:round;stroke-linejoin:round;stroke-miterlimit:4;stroke-dasharray:2.10353, 2.10353;stroke-dashoffset:0;stroke-opacity:1;stop-color:#000000;stop-opacity:1"
       d="M 160.99012,90.277003 V 150.24243"
       id="path8129" />
    <path
       style="font-variation-settings:normal;opacity:1;fill:none;fill-opacity:1;stroke:#999999;stroke-width:0.525883;stroke-linecap:round;stroke-linejoin:round;stroke-miterlimit:4;stroke-dasharray:2.10353, 2.10353;stroke-dashoffset:0;stroke-opacity:1;stop-color:#000000;stop-opacity:1"
       d="M 173.35412,80.076702 V 150.24243"
       id="path8135" />
    <path
       style="font-variation-settings:normal;opacity:1;fill:none;fill-opacity:1;stroke:#999999;stroke-width:0.525883;stroke-linecap:round;stroke-linejoin:round;stroke-miterlimit:4;stroke-dasharray:2.10353, 2.10353;stroke-dashoffset:0;stroke-opacity:1;stop-color:#000000;stop-opacity:1"
       d="M 192.51833,74.822001 V 149.93331"
       id="path8141" />
    <path
       style="font-variation-settings:normal;opacity:1;vector-effect:none;fill:#000000;fill-opacity:1;stroke:#999999;stroke-width:0.525883;stroke-linecap:round;stroke-linejoin:round;stroke-miterlimit:4;stroke-dasharray:none;stroke-dashoffset:0;stroke-opacity:1;-inkscape-stroke:none;marker-end:url(#Arrow2);stop-color:#000000;stop-opacity:1"
       d="M 89.030136,150.21118 H 212.95428"
       id="path4961" />
    <path
       style="font-variation-settings:normal;opacity:1;vector-effect:none;fill:#000000;fill-opacity:1;stroke:#999999;stroke-width:0.525883;stroke-linecap:round;stroke-linejoin:round;stroke-miterlimit:4;stroke-dasharray:none;stroke-dashoffset:0;stroke-opacity:1;-inkscape-stroke:none;marker-end:url(#Arrow2);stop-color:#000000;stop-opacity:1"
       d="M 94.697545,156.45042 V 69.056536"
       id="path4961-8" />
    <circle
       style="fill:#000000;stroke:#000000;stroke-width:0.94226;stroke-linecap:round;stroke-linejoin:round;stroke-dasharray:none;stop-color:#000000"
       id="path1061"
       cx="139.06938"
       cy="118.89321"
       inkscape:transform-center-x="-0.095918637"
       inkscape:transform-center-y="0.052693946"
       transform="rotate(-7.8947141)"
       r="2.1288822" />
    <circle
       style="fill:#000000;stroke:#000000;stroke-width:0.489881;stroke-linecap:round;stroke-linejoin:round;stroke-dasharray:none;stop-color:#000000"
       id="path1061-0"
       cx="80.465401"
       cy="110.83234"
       inkscape:transform-center-x="-0.049874106"
       inkscape:transform-center-y="0.027397911"
       transform="rotate(-7.8947141)"
       r="1.1068047" />
    <circle
       style="fill:#999999;stroke:#000000;stroke-width:0.489881;stroke-linecap:round;stroke-linejoin:round;stroke-dasharray:none;stop-color:#000000"
       id="path1061-0-0-8-1-9"
       cx="81.456291"
       cy="102.38816"
       inkscape:transform-center-x="-0.049869936"
       inkscape:transform-center-y="0.027399882"
       transform="rotate(-7.8947141)"
       r="1.1068047" />
    <circle
       style="fill:#999999;stroke:#000000;stroke-width:0.489881;stroke-linecap:round;stroke-linejoin:round;stroke-dasharray:none;stop-color:#000000"
       id="path1061-0-0-8-1-9-6"
       cx="82.85244"
       cy="92.319847"
       inkscape:transform-center-x="-0.049874567"
       inkscape:transform-center-y="0.027397946"
       transform="rotate(-7.8947141)"
       r="1.1068047" />
    <circle
       style="fill:#999999;stroke:#000000;stroke-width:0.489881;stroke-linecap:round;stroke-linejoin:round;stroke-dasharray:none;stop-color:#000000"
       id="path1061-0-0-8-1-9-6-9"
       cx="83.386124"
       cy="87.17289"
       inkscape:transform-center-x="-0.049870084"
       inkscape:transform-center-y="0.02739941"
       transform="rotate(-7.8947141)"
       r="1.1068047" />
    <circle
       style="fill:#999999;stroke:#000000;stroke-width:0.489881;stroke-linecap:round;stroke-linejoin:round;stroke-dasharray:none;stop-color:#000000"
       id="path1061-0-0-4-9-9"
       cx="138.9265"
       cy="170.91306"
       inkscape:transform-center-x="-0.049878047"
       inkscape:transform-center-y="0.02740067"
       transform="rotate(-7.8947141)"
       r="1.1068047" />
    <circle
       style="fill:#999999;stroke:#000000;stroke-width:0.489881;stroke-linecap:round;stroke-linejoin:round;stroke-dasharray:none;stop-color:#000000"
       id="path1061-0-0-4-9-9-9"
       cx="151.11447"
       cy="172.60313"
       inkscape:transform-center-x="-0.049870006"
       inkscape:transform-center-y="0.027395248"
       transform="rotate(-7.8947141)"
       r="1.1068047" />
    <circle
       style="fill:#999999;stroke:#000000;stroke-width:0.489881;stroke-linecap:round;stroke-linejoin:round;stroke-dasharray:none;stop-color:#000000"
       id="path1061-0-0-4-9-9-9-7"
       cx="170.01459"
       cy="175.22397"
       inkscape:transform-center-x="-0.049871979"
       inkscape:transform-center-y="0.027401687"
       transform="rotate(-7.8947141)"
       r="1.1068047" />
    <circle
       style="fill:#000000;stroke:#000000;stroke-width:0.489881;stroke-linecap:round;stroke-linejoin:round;stroke-dasharray:none;stop-color:#000000"
       id="path1061-0-0-4-9-9-9-7-7"
       cx="132.03767"
       cy="169.95779"
       inkscape:transform-center-x="-0.049873475"
       inkscape:transform-center-y="0.027396862"
       transform="rotate(-7.8947141)"
       r="1.1068047" />
    <circle
       style="fill:#999999;stroke:#000000;stroke-width:0.94226;stroke-linecap:round;stroke-linejoin:round;stroke-dasharray:none;stop-color:#000000"
       id="path1061-7"
       cx="161.17378"
       cy="90.327621"
       r="2.1288822" />
    <circle
       style="fill:#999999;stroke:#000000;stroke-width:0.94226;stroke-linecap:round;stroke-linejoin:round;stroke-dasharray:none;stop-color:#000000"
       id="path1061-7-8"
       cx="173.04503"
       cy="80.385803"
       r="2.1288822" />
    <circle
       style="fill:#999999;stroke:#000000;stroke-width:0.94226;stroke-linecap:round;stroke-linejoin:round;stroke-dasharray:none;stop-color:#000000"
       id="path1061-7-8-4"
       cx="192.51834"
       cy="74.821999"
       r="2.1288822" />
    <g
       transform="matrix(0.92759932,0,0,0.92759932,151.45622,152.93938)"
       ns6:version="1.8.2"
       ns6:texconverter="pdflatex"
       ns6:pdfconverter="inkscape"
       ns6:text="$a$"
       ns6:preamble="/Users/jvkersch/Library/Application Support/org.inkscape.Inkscape/config/inkscape/extensions/textext/default_packages.tex"
       ns6:scale="2.0"
       ns6:alignment="middle center"
       ns6:stroke-to-path="0"
       ns6:jacobian_sqrt="0.705556"
       id="g8250">
      <defs
         id="id-723e5d0c-ce09-417d-881a-c5903163304d">
        <g
           id="id-3e7abfa0-9588-4a4c-af91-c24dfeea0e47">
          <g
             id="id-fc16a0e0-dd0a-4364-abc6-c2240a0669b5" />
          <g
             id="id-e1ab11a0-a634-4095-8075-d622bc038fc8">
            <path
               d="M 3.71875,-3.765625 C 3.53125,-4.140625 3.25,-4.40625 2.796875,-4.40625 c -1.15625,0 -2.390625,1.46875 -2.390625,2.921875 0,0.9375 0.546875,1.59375 1.3125,1.59375 0.203125,0 0.703125,-0.046875 1.296875,-0.75 0.078125,0.421875 0.4375,0.75 0.90625,0.75 0.359375,0 0.578125,-0.234375 0.75,-0.546875 0.15625,-0.359375 0.296875,-0.96875 0.296875,-0.984375 0,-0.109375 -0.09375,-0.109375 -0.125,-0.109375 -0.09375,0 -0.109375,0.046875 -0.140625,0.1875 -0.171875,0.640625 -0.34375,1.234375 -0.75,1.234375 -0.28125,0 -0.296875,-0.265625 -0.296875,-0.453125 0,-0.21875 0.015625,-0.3125 0.125,-0.75 C 3.890625,-1.71875 3.90625,-1.828125 4,-2.203125 L 4.359375,-3.59375 c 0.0625,-0.28125 0.0625,-0.296875 0.0625,-0.34375 0,-0.171875 -0.109375,-0.265625 -0.28125,-0.265625 -0.25,0 -0.390625,0.21875 -0.421875,0.4375 z M 3.078125,-1.1875 C 3.015625,-1 3.015625,-0.984375 2.875,-0.8125 2.4375,-0.265625 2.03125,-0.109375 1.75,-0.109375 c -0.5,0 -0.640625,-0.546875 -0.640625,-0.9375 0,-0.5 0.3125,-1.71875 0.546875,-2.1875 0.3125,-0.578125 0.75,-0.953125 1.15625,-0.953125 0.640625,0 0.78125,0.8125 0.78125,0.875 0,0.0625 -0.015625,0.125 -0.03125,0.171875 z m 0,0"
               id="id-3d6d3516-ccf1-43a5-8f91-3ef267330fa6" />
          </g>
        </g>
      </defs>
      <g
         fill="#000000"
         fill-opacity="1"
         id="id-4534138e-0707-4ce9-9580-bc3e52365314"
         transform="translate(-149.118,-130.359)">
        <g
           transform="translate(148.712,134.765)"
           id="g8247">
          <path
             d="M 3.71875,-3.765625 C 3.53125,-4.140625 3.25,-4.40625 2.796875,-4.40625 c -1.15625,0 -2.390625,1.46875 -2.390625,2.921875 0,0.9375 0.546875,1.59375 1.3125,1.59375 0.203125,0 0.703125,-0.046875 1.296875,-0.75 0.078125,0.421875 0.4375,0.75 0.90625,0.75 0.359375,0 0.578125,-0.234375 0.75,-0.546875 0.15625,-0.359375 0.296875,-0.96875 0.296875,-0.984375 0,-0.109375 -0.09375,-0.109375 -0.125,-0.109375 -0.09375,0 -0.109375,0.046875 -0.140625,0.1875 -0.171875,0.640625 -0.34375,1.234375 -0.75,1.234375 -0.28125,0 -0.296875,-0.265625 -0.296875,-0.453125 0,-0.21875 0.015625,-0.3125 0.125,-0.75 C 3.890625,-1.71875 3.90625,-1.828125 4,-2.203125 L 4.359375,-3.59375 c 0.0625,-0.28125 0.0625,-0.296875 0.0625,-0.34375 0,-0.171875 -0.109375,-0.265625 -0.28125,-0.265625 -0.25,0 -0.390625,0.21875 -0.421875,0.4375 z M 3.078125,-1.1875 C 3.015625,-1 3.015625,-0.984375 2.875,-0.8125 2.4375,-0.265625 2.03125,-0.109375 1.75,-0.109375 c -0.5,0 -0.640625,-0.546875 -0.640625,-0.9375 0,-0.5 0.3125,-1.71875 0.546875,-2.1875 0.3125,-0.578125 0.75,-0.953125 1.15625,-0.953125 0.640625,0 0.78125,0.8125 0.78125,0.875 0,0.0625 -0.015625,0.125 -0.03125,0.171875 z m 0,0"
             id="id-e2bb9424-9455-4548-a37a-2c0a67e949cc" />
        </g>
      </g>
    </g>
    <path
       style="font-variation-settings:normal;opacity:1;vector-effect:none;fill:#000000;fill-opacity:1;stroke:#000000;stroke-width:0.525883;stroke-linecap:round;stroke-linejoin:round;stroke-miterlimit:4;stroke-dasharray:none;stroke-dashoffset:0;stroke-opacity:1;-inkscape-stroke:none;marker-end:url(#Arrow2);stop-color:#000000;stop-opacity:1"
       d="M 86.826551,72.964961 V 88.628939"
       id="path8477-2-4" />
    <path
       style="font-variation-settings:normal;vector-effect:none;fill:#000000;fill-opacity:1;stroke:#000000;stroke-width:0.525883;stroke-linecap:round;stroke-linejoin:round;stroke-miterlimit:4;stroke-dasharray:none;stroke-dashoffset:0;stroke-opacity:1;-inkscape-stroke:none;marker-end:url(#Arrow2-7);stop-color:#000000"
       d="M 189.92466,154.87892 H 163.34205"
       id="path8477-4" />
    <path
       style="fill:none;stroke:#999999;stroke-width:1.31471;stroke-linecap:round;stroke-linejoin:round;stroke-dasharray:5.25884009, 5.25884009;stop-color:#000000;stroke-dashoffset:0"
       inkscape:path-effect="#path-effect5938-5"
       inkscape:original-d="m 83.79689,122.1981 c 12.601896,6.30115 31.60284,-4.19899 44.20404,1.92146 3.94156,1.91443 9.53454,-6.36001 14.33901,-12.43815 3.97323,-5.02654 6.99029,-7.16134 11.80102,-13.165657"
       d="m 83.79689,122.1981 c 6.306456,4.62152 13.999445,7.32489 21.81062,7.66443 7.81118,0.33954 15.70973,-1.68611 22.39342,-5.74297 5.42577,-3.29333 9.97804,-7.82654 14.33901,-12.43815 4.04981,-4.28257 7.98535,-8.67321 11.80102,-13.165657"
       id="path5936-9"
       sodipodi:nodetypes="cssc" />
    <g
       transform="matrix(0.927599 0 0 0.927599 82.7934 94.3814)"
       ns6:version="1.8.2"
       ns6:texconverter="pdflatex"
       ns6:pdfconverter="inkscape"
       ns6:text="$M$"
       ns6:preamble="/Users/jvkersch/Library/Application Support/org.inkscape.Inkscape/config/inkscape/extensions/textext/default_packages.tex"
       ns6:scale="2.6294137389519756"
       ns6:alignment="middle center"
       ns6:stroke-to-path="0"
       ns6:inkscapeversion="1.2"
       ns6:jacobian_sqrt="0.927599"
       id="g8372">
      <defs
         id="id-732394d2-6671-4368-b6ef-1cec743bcac9">
        <g
           id="id-1267c49b-f052-4b19-a276-6ca5eeea66c6">
          <g
             id="id-9338d107-67ad-455a-81cd-5280e44ff797" />
          <g
             id="id-13691a73-9c13-464d-bcd9-a5913a8fc114">
            <path
               d="M 9.234375,-6.046875 C 9.328125,-6.40625 9.34375,-6.5 10.09375,-6.5 c 0.21875,0 0.3125,0 0.3125,-0.203125 0,-0.109375 -0.09375,-0.109375 -0.265625,-0.109375 h -1.3125 c -0.265625,0 -0.28125,0 -0.390625,0.1875 L 4.796875,-0.9375 4.015625,-6.578125 C 3.984375,-6.8125 3.96875,-6.8125 3.703125,-6.8125 H 2.34375 c -0.1875,0 -0.296875,0 -0.296875,0.1875 0,0.125 0.09375,0.125 0.28125,0.125 0.140625,0 0.3125,0.015625 0.4375,0.015625 0.15625,0.03125 0.21875,0.046875 0.21875,0.171875 0,0.03125 -0.015625,0.0625 -0.046875,0.1875 l -1.265625,5.0625 c -0.09375,0.40625 -0.265625,0.71875 -1.078125,0.75 -0.046875,0 -0.171875,0.015625 -0.171875,0.1875 0,0.09375 0.0625,0.125 0.140625,0.125 0.3125,0 0.65625,-0.03125 1,-0.03125 C 1.890625,-0.03125 2.25,0 2.578125,0 c 0.046875,0 0.1875,0 0.1875,-0.203125 0,-0.109375 -0.109375,-0.109375 -0.1875,-0.109375 -0.5625,0 -0.671875,-0.203125 -0.671875,-0.4375 0,-0.0625 0,-0.125 0.03125,-0.234375 L 3.296875,-6.40625 H 3.3125 l 0.859375,6.171875 C 4.1875,-0.109375 4.203125,0 4.3125,0 4.421875,0 4.484375,-0.109375 4.53125,-0.171875 l 4.03125,-6.3125 h 0.015625 l -1.4375,5.703125 c -0.09375,0.390625 -0.109375,0.46875 -0.90625,0.46875 -0.15625,0 -0.265625,0 -0.265625,0.1875 C 5.96875,0 6.078125,0 6.109375,0 6.390625,0 7.0625,-0.03125 7.34375,-0.03125 7.75,-0.03125 8.1875,0 8.59375,0 8.65625,0 8.78125,0 8.78125,-0.203125 8.78125,-0.3125 8.6875,-0.3125 8.5,-0.3125 c -0.359375,0 -0.640625,0 -0.640625,-0.171875 0,-0.046875 0,-0.0625 0.046875,-0.25 z m 0,0"
               id="id-a2ab6101-80db-41ae-93f3-77d86d1253ba" />
          </g>
        </g>
      </defs>
      <g
         fill="#000000"
         fill-opacity="1"
         id="id-f9876edb-5049-4a3c-a1d1-eb24868a978e"
         transform="translate(-149.134, -127.953)">
        <g
           transform="translate(148.712, 134.765)"
           id="g19097">
          <path
             d="M 9.234375,-6.046875 C 9.328125,-6.40625 9.34375,-6.5 10.09375,-6.5 c 0.21875,0 0.3125,0 0.3125,-0.203125 0,-0.109375 -0.09375,-0.109375 -0.265625,-0.109375 h -1.3125 c -0.265625,0 -0.28125,0 -0.390625,0.1875 L 4.796875,-0.9375 4.015625,-6.578125 C 3.984375,-6.8125 3.96875,-6.8125 3.703125,-6.8125 H 2.34375 c -0.1875,0 -0.296875,0 -0.296875,0.1875 0,0.125 0.09375,0.125 0.28125,0.125 0.140625,0 0.3125,0.015625 0.4375,0.015625 0.15625,0.03125 0.21875,0.046875 0.21875,0.171875 0,0.03125 -0.015625,0.0625 -0.046875,0.1875 l -1.265625,5.0625 c -0.09375,0.40625 -0.265625,0.71875 -1.078125,0.75 -0.046875,0 -0.171875,0.015625 -0.171875,0.1875 0,0.09375 0.0625,0.125 0.140625,0.125 0.3125,0 0.65625,-0.03125 1,-0.03125 C 1.890625,-0.03125 2.25,0 2.578125,0 c 0.046875,0 0.1875,0 0.1875,-0.203125 0,-0.109375 -0.109375,-0.109375 -0.1875,-0.109375 -0.5625,0 -0.671875,-0.203125 -0.671875,-0.4375 0,-0.0625 0,-0.125 0.03125,-0.234375 L 3.296875,-6.40625 H 3.3125 l 0.859375,6.171875 C 4.1875,-0.109375 4.203125,0 4.3125,0 4.421875,0 4.484375,-0.109375 4.53125,-0.171875 l 4.03125,-6.3125 h 0.015625 l -1.4375,5.703125 c -0.09375,0.390625 -0.109375,0.46875 -0.90625,0.46875 -0.15625,0 -0.265625,0 -0.265625,0.1875 C 5.96875,0 6.078125,0 6.109375,0 6.390625,0 7.0625,-0.03125 7.34375,-0.03125 7.75,-0.03125 8.1875,0 8.59375,0 8.65625,0 8.78125,0 8.78125,-0.203125 8.78125,-0.3125 8.6875,-0.3125 8.5,-0.3125 c -0.359375,0 -0.640625,0 -0.640625,-0.171875 0,-0.046875 0,-0.0625 0.046875,-0.25 z m 0,0"
             id="id-9f4707b1-0093-4b2e-9776-30c119aa088b" />
        </g>
      </g>
    </g>
  </g>
</svg>
