<?xml version="1.0" encoding="UTF-8" standalone="no"?>
<!-- Created with Inkscape (http://www.inkscape.org/) -->

<svg
   width="111.62785mm"
   height="106.44978mm"
   viewBox="0 0 111.62785 106.44978"
   version="1.1"
   id="svg19831"
   inkscape:version="1.2 (dc2aeda, 2022-05-15)"
   sodipodi:docname="tan-limit.svg"
   xmlns:inkscape="http://www.inkscape.org/namespaces/inkscape"
   xmlns:sodipodi="http://sodipodi.sourceforge.net/DTD/sodipodi-0.dtd"
   xmlns="http://www.w3.org/2000/svg"
   xmlns:svg="http://www.w3.org/2000/svg"
   xmlns:ns6="http://www.iki.fi/pav/software/textext/">
  <sodipodi:namedview
     id="namedview19833"
     pagecolor="#ffffff"
     bordercolor="#000000"
     borderopacity="0.25"
     inkscape:showpageshadow="2"
     inkscape:pageopacity="0.0"
     inkscape:pagecheckerboard="0"
     inkscape:deskcolor="#d1d1d1"
     inkscape:document-units="mm"
     showgrid="false"
     inkscape:zoom="1.2036126"
     inkscape:cx="136.25647"
     inkscape:cy="169.90517"
     inkscape:window-width="1440"
     inkscape:window-height="847"
     inkscape:window-x="0"
     inkscape:window-y="25"
     inkscape:window-maximized="1"
     inkscape:current-layer="layer1" />
  <defs
     id="defs19828">
    <inkscape:path-effect
       effect="spiro"
       id="path-effect21001"
       is_visible="true"
       lpeversion="1" />
    <marker
       style="overflow:visible"
       id="TriangleStart-6-1"
       refX="0"
       refY="0"
       orient="auto-start-reverse"
       inkscape:stockid="TriangleStart"
       markerWidth="5.3244081"
       markerHeight="6.155385"
       viewBox="0 0 5.3244081 6.1553851"
       inkscape:isstock="true"
       inkscape:collect="always"
       preserveAspectRatio="xMidYMid">
      <path
         transform="scale(0.5)"
         style="fill:context-stroke;fill-rule:evenodd;stroke:context-stroke;stroke-width:1pt"
         d="M 5.77,0 -2.88,5 V -5 Z"
         id="path135-8-3" />
    </marker>
    <g
       id="id-9056d9e7-3341-4a11-ab23-bcdbc83b45c6">
      <g
         id="id-517af47f-0e46-4e00-a535-6211949730eb" />
      <g
         id="id-6fd1be08-271c-4fd1-9cbb-4de296ab9623">
        <path
           d="M 2.171875,-2.53125 H 3 c -0.109375,0.421875 -0.265625,1.046875 -0.265625,1.609375 0,0.28125 0.046875,0.46875 0.078125,0.609375 0.109375,0.359375 0.203125,0.375 0.3125,0.375 0.171875,0 0.328125,-0.140625 0.328125,-0.3125 0,-0.046875 -0.015625,-0.078125 -0.046875,-0.140625 C 3.265625,-0.65625 3.140625,-1.046875 3.140625,-1.625 c 0,-0.125 0,-0.40625 0.09375,-0.90625 h 0.875 c 0.125,0 0.1875,0 0.265625,-0.046875 0.09375,-0.078125 0.109375,-0.1875 0.109375,-0.21875 C 4.484375,-3 4.3125,-3 4.1875,-3 h -2.625 c -0.28125,0 -0.484375,0.0625 -0.796875,0.359375 -0.1875,0.15625 -0.453125,0.53125 -0.453125,0.59375 0,0.078125 0.09375,0.078125 0.125,0.078125 0.078125,0 0.078125,-0.015625 0.125,-0.078125 C 0.90625,-2.53125 1.34375,-2.53125 1.5,-2.53125 h 0.421875 c -0.21875,0.765625 -0.59375,1.59375 -0.796875,2.015625 -0.046875,0.078125 -0.109375,0.234375 -0.140625,0.25 0,0.03125 -0.015625,0.0625 -0.015625,0.109375 0,0.109375 0.078125,0.21875 0.25,0.21875 0.265625,0 0.34375,-0.3125 0.515625,-0.9375 z m 0,0"
           id="id-ec466abe-f556-4fdd-a510-aafce23a8e99" />
      </g>
      <g
         id="id-f9a23a4c-73c0-48da-a78c-b7295c4c0a93" />
      <g
         id="id-e4504a2c-4f17-42c6-a6df-5e2a07354cf7">
        <path
           d="M 3.515625,-1.265625 H 3.28125 c -0.015625,0.15625 -0.09375,0.5625 -0.1875,0.625 C 3.046875,-0.59375 2.515625,-0.59375 2.40625,-0.59375 H 1.125 c 0.734375,-0.640625 0.984375,-0.84375 1.390625,-1.171875 0.515625,-0.40625 1,-0.84375 1,-1.5 0,-0.84375 -0.734375,-1.359375 -1.625,-1.359375 -0.859375,0 -1.453125,0.609375 -1.453125,1.25 0,0.34375 0.296875,0.390625 0.375,0.390625 0.15625,0 0.359375,-0.125 0.359375,-0.375 0,-0.125 -0.046875,-0.375 -0.40625,-0.375 C 0.984375,-4.21875 1.453125,-4.375 1.78125,-4.375 c 0.703125,0 1.0625,0.546875 1.0625,1.109375 0,0.609375 -0.4375,1.078125 -0.65625,1.328125 L 0.515625,-0.265625 C 0.4375,-0.203125 0.4375,-0.1875 0.4375,0 h 2.875 z m 0,0"
           id="id-6d6eae0e-563f-40c7-b595-0b24e6a354be" />
      </g>
    </g>
    <g
       id="id-ea6361dd-ff18-496c-8da8-f5b9b9b0692c">
      <g
         id="id-faf47fe4-9659-4a11-8469-5f36a27bdebf" />
      <g
         id="id-ed091567-d6b0-4587-909b-522152d56128">
        <path
           d="m 6.5625,-2.296875 c 0.171875,0 0.359375,0 0.359375,-0.203125 0,-0.1875 -0.1875,-0.1875 -0.359375,-0.1875 H 1.171875 c -0.171875,0 -0.34375,0 -0.34375,0.1875 0,0.203125 0.171875,0.203125 0.34375,0.203125 z m 0,0"
           id="id-2cf7aa19-385f-4333-8b31-5e5757c43e39" />
      </g>
      <g
         id="id-7f2ddbe7-a611-4ca0-bbc2-629c10d18479" />
      <g
         id="id-14a828a5-d431-41c1-a37c-00a778c8304b">
        <path
           d="M 2.171875,-2.53125 H 3 c -0.109375,0.421875 -0.265625,1.046875 -0.265625,1.609375 0,0.28125 0.046875,0.46875 0.078125,0.609375 0.109375,0.359375 0.203125,0.375 0.3125,0.375 0.171875,0 0.328125,-0.140625 0.328125,-0.3125 0,-0.046875 -0.015625,-0.078125 -0.046875,-0.140625 C 3.265625,-0.65625 3.140625,-1.046875 3.140625,-1.625 c 0,-0.125 0,-0.40625 0.09375,-0.90625 h 0.875 c 0.125,0 0.1875,0 0.265625,-0.046875 0.09375,-0.078125 0.109375,-0.1875 0.109375,-0.21875 C 4.484375,-3 4.3125,-3 4.1875,-3 h -2.625 c -0.28125,0 -0.484375,0.0625 -0.796875,0.359375 -0.1875,0.15625 -0.453125,0.53125 -0.453125,0.59375 0,0.078125 0.09375,0.078125 0.125,0.078125 0.078125,0 0.078125,-0.015625 0.125,-0.078125 C 0.90625,-2.53125 1.34375,-2.53125 1.5,-2.53125 h 0.421875 c -0.21875,0.765625 -0.59375,1.59375 -0.796875,2.015625 -0.046875,0.078125 -0.109375,0.234375 -0.140625,0.25 0,0.03125 -0.015625,0.0625 -0.015625,0.109375 0,0.109375 0.078125,0.21875 0.25,0.21875 0.265625,0 0.34375,-0.3125 0.515625,-0.9375 z m 0,0"
           id="id-9c696815-31a8-4b39-b163-219bd03e08e4" />
      </g>
      <g
         id="id-f234faab-8fe2-4d42-856c-b78f4c16ed71" />
      <g
         id="id-7164d606-bfe5-4675-a101-29f33c31029f">
        <path
           d="M 3.515625,-1.265625 H 3.28125 c -0.015625,0.15625 -0.09375,0.5625 -0.1875,0.625 C 3.046875,-0.59375 2.515625,-0.59375 2.40625,-0.59375 H 1.125 c 0.734375,-0.640625 0.984375,-0.84375 1.390625,-1.171875 0.515625,-0.40625 1,-0.84375 1,-1.5 0,-0.84375 -0.734375,-1.359375 -1.625,-1.359375 -0.859375,0 -1.453125,0.609375 -1.453125,1.25 0,0.34375 0.296875,0.390625 0.375,0.390625 0.15625,0 0.359375,-0.125 0.359375,-0.375 0,-0.125 -0.046875,-0.375 -0.40625,-0.375 C 0.984375,-4.21875 1.453125,-4.375 1.78125,-4.375 c 0.703125,0 1.0625,0.546875 1.0625,1.109375 0,0.609375 -0.4375,1.078125 -0.65625,1.328125 L 0.515625,-0.265625 C 0.4375,-0.203125 0.4375,-0.1875 0.4375,0 h 2.875 z m 0,0"
           id="id-5273a6fd-8b2d-4d87-aa3e-dd4f272421d4" />
      </g>
    </g>
    <g
       id="id-d5901eb9-e8ca-4fae-af8c-b9856d8cae7c">
      <g
         id="id-f6ade827-c05f-4e7a-bd93-f3f07a1dfcda" />
      <g
         id="id-8be4a7cf-6a1f-4e4f-8d16-5bedcfb4e12d">
        <path
           d="m 4.84375,-3.796875 c 0.046875,-0.140625 0.046875,-0.15625 0.046875,-0.234375 0,-0.171875 -0.140625,-0.265625 -0.296875,-0.265625 -0.09375,0 -0.25,0.0625 -0.34375,0.203125 -0.015625,0.0625 -0.109375,0.359375 -0.140625,0.546875 -0.078125,0.25 -0.140625,0.53125 -0.203125,0.796875 l -0.453125,1.796875 c -0.03125,0.140625 -0.46875,0.84375 -1.125,0.84375 -0.5,0 -0.609375,-0.4375 -0.609375,-0.8125 C 1.71875,-1.375 1.890625,-2 2.21875,-2.875 2.375,-3.28125 2.421875,-3.390625 2.421875,-3.59375 c 0,-0.4375 -0.3125,-0.8125 -0.8125,-0.8125 -0.953125,0 -1.3125,1.453125 -1.3125,1.53125 0,0.109375 0.09375,0.109375 0.109375,0.109375 0.109375,0 0.109375,-0.03125 0.15625,-0.1875 0.28125,-0.9375 0.671875,-1.234375 1.015625,-1.234375 0.078125,0 0.25,0 0.25,0.3125 0,0.25 -0.109375,0.515625 -0.171875,0.703125 -0.40625,1.0625 -0.578125,1.625 -0.578125,2.09375 0,0.890625 0.625,1.1875 1.21875,1.1875 0.390625,0 0.71875,-0.171875 1,-0.453125 -0.125,0.515625 -0.25,1.015625 -0.640625,1.546875 -0.265625,0.328125 -0.640625,0.625 -1.09375,0.625 -0.140625,0 -0.59375,-0.03125 -0.765625,-0.421875 0.15625,0 0.296875,0 0.421875,-0.125 C 1.328125,1.203125 1.421875,1.0625 1.421875,0.875 1.421875,0.5625 1.15625,0.53125 1.0625,0.53125 0.828125,0.53125 0.5,0.6875 0.5,1.171875 c 0,0.5 0.4375,0.875 1.0625,0.875 1.015625,0 2.046875,-0.90625 2.328125,-2.03125 z m 0,0"
           id="id-6070c467-6fd2-4907-a2e9-7390c516403e" />
      </g>
    </g>
    <g
       id="id-dc6571d6-5364-4f45-943f-f1e21f3f214d">
      <g
         id="id-b4089cdd-d77f-4a41-b30a-c70032dbd260" />
      <g
         id="id-ad97a32e-e305-421e-8a05-fb905d1f8fe2">
        <path
           d="m 4.53125,-4.984375 c 0,-0.65625 -0.171875,-2.046875 -1.1875,-2.046875 -1.390625,0 -2.921875,2.8125 -2.921875,5.09375 0,0.9375 0.28125,2.046875 1.1875,2.046875 1.40625,0 2.921875,-2.859375 2.921875,-5.09375 z M 1.46875,-3.625 C 1.640625,-4.25 1.84375,-5.046875 2.25,-5.765625 2.515625,-6.25 2.875,-6.8125 3.328125,-6.8125 c 0.484375,0 0.546875,0.640625 0.546875,1.203125 0,0.5 -0.078125,1 -0.3125,1.984375 z m 2,0.328125 C 3.359375,-2.84375 3.15625,-2 2.765625,-1.28125 c -0.34375,0.6875 -0.71875,1.171875 -1.15625,1.171875 -0.328125,0 -0.53125,-0.296875 -0.53125,-1.21875 0,-0.421875 0.0625,-1 0.3125,-1.96875 z m 0,0"
           id="id-24fdfc14-76d6-469b-92c8-b8a60ddac873" />
      </g>
    </g>
    <marker
       style="overflow:visible"
       id="TriangleStart-6-1-5"
       refX="0"
       refY="0"
       orient="auto-start-reverse"
       inkscape:stockid="TriangleStart"
       markerWidth="5.3244081"
       markerHeight="6.155385"
       viewBox="0 0 5.3244081 6.1553851"
       inkscape:isstock="true"
       inkscape:collect="always"
       preserveAspectRatio="xMidYMid">
      <path
         transform="scale(0.5)"
         style="fill:context-stroke;fill-rule:evenodd;stroke:context-stroke;stroke-width:1pt"
         d="M 5.77,0 -2.88,5 V -5 Z"
         id="path135-8-3-1" />
    </marker>
    <inkscape:path-effect
       effect="spiro"
       id="path-effect21001-1"
       is_visible="true"
       lpeversion="1" />
  </defs>
  <g
     inkscape:label="Layer 1"
     inkscape:groupmode="layer"
     id="layer1"
     transform="translate(-83.577397,-71.056118)">
    <path
       style="font-variation-settings:normal;vector-effect:none;fill:none;fill-opacity:0.78012;stroke:#666666;stroke-width:0.601909;stroke-linecap:round;stroke-linejoin:round;stroke-miterlimit:1.7;stroke-dasharray:none;stroke-dashoffset:0;stroke-opacity:1;-inkscape-stroke:none;marker-end:url(#TriangleStart-6-1);stop-color:#000000"
       d="M 114.23686,177.20495 V 73.193542"
       id="path1081-3" />
    <path
       style="font-variation-settings:normal;opacity:1;vector-effect:none;fill:none;fill-opacity:0.78012;stroke:#666666;stroke-width:0.601909;stroke-linecap:round;stroke-linejoin:round;stroke-miterlimit:1.7;stroke-dasharray:none;stroke-dashoffset:0;stroke-opacity:1;-inkscape-stroke:none;marker-end:url(#TriangleStart-6-1);stop-color:#000000;stop-opacity:1"
       d="M 83.878351,123.06602 H 193.06782"
       id="path1079-5-4" />
    <path
       style="fill:none;fill-opacity:0.78012;stroke:#000000;stroke-width:1.11786;stroke-linecap:round;stroke-linejoin:round;stroke-miterlimit:1.7;stroke-dasharray:none;stroke-dashoffset:0;stop-color:#000000"
       d="m 93.509116,170.35975 c 0.476523,-26.11869 0.953061,-25.88113 1.429584,-29.62409 0.476523,-3.74291 0.953061,-5.51123 1.429585,-6.95295 0.476523,-1.44171 0.953046,-2.38394 1.429584,-3.15366 0.476523,-0.76974 0.953046,-1.3452 1.429584,-1.8312 0.476524,-0.48601 0.953047,-0.87751 1.429587,-1.21813 0.47654,-0.34054 0.95304,-0.62846 1.42958,-0.88509 0.47654,-0.25658 0.95305,-0.48105 1.42959,-0.68517 0.47653,-0.20411 0.95304,-0.38749 1.42958,-0.55697 0.47654,-0.16953 0.95305,-0.325 1.42959,-0.47094 0.47653,-0.14591 0.95304,-0.28206 1.42958,-0.41162 0.47653,-0.12953 0.95304,-0.25223 1.42958,-0.37036 0.47654,-0.11806 0.95305,-0.23154 1.42958,-0.34201 0.47654,-0.11048 0.95305,-0.21784 1.42959,-0.32353 0.47652,-0.10571 0.95304,-0.20971 1.42958,-0.31312 0.47653,-0.10348 0.95305,-0.2063 1.42957,-0.30976 0.47664,-0.10348 0.95317,-0.20741 1.42971,-0.31306 0.4763,-0.10571 0.95283,-0.21313 1.42937,-0.32358 0.47654,-0.11047 0.95308,-0.22392 1.42962,-0.34203 0.47653,-0.11807 0.95306,-0.24087 1.4296,-0.37035 0.47653,-0.12953 0.95307,-0.26573 1.42961,-0.41163 0.47654,-0.14591 0.95306,-0.30143 1.4296,-0.47092 0.47654,-0.16948 0.95307,-0.35289 1.42961,-0.55695 0.47654,-0.20407 0.95306,-0.4287 1.4296,-0.68522 0.47654,-0.25651 0.95308,-0.54464 1.4296,-0.88509 0.47655,-0.34046 0.95309,-0.7323 1.42963,-1.21811 0.47652,-0.4858 0.95306,-1.06185 1.4296,-1.83119 0.47654,-0.76935 0.95284,-1.71301 1.42938,-3.15366 0.47653,-1.44063 0.95306,-3.21465 1.42961,-6.95296 0.47652,-3.73832 0.95306,-3.50536 1.4296,-29.6241"
       title="t tan(t)"
       id="path14552" />
    <path
       style="font-variation-settings:normal;opacity:1;vector-effect:none;fill:none;fill-opacity:0.78012;stroke:#000000;stroke-width:1.11786;stroke-linecap:round;stroke-linejoin:round;stroke-miterlimit:1.7;stroke-dasharray:none;stroke-dashoffset:0;stroke-opacity:1;-inkscape-stroke:none;stop-color:#000000;stop-opacity:1"
       d="m 145.35617,170.35975 c 0.47653,-26.11869 0.95305,-25.88113 1.42959,-29.62409 0.47651,-3.74291 0.95305,-5.51123 1.42958,-6.95295 0.47651,-1.44171 0.95305,-2.38394 1.42959,-3.15366 0.47651,-0.76974 0.95304,-1.3452 1.42958,-1.8312 0.47651,-0.48601 0.95305,-0.87751 1.42959,-1.21813 0.47653,-0.34054 0.95304,-0.62846 1.42958,-0.88509 0.47654,-0.25658 0.95305,-0.48105 1.42959,-0.68517 0.47653,-0.20411 0.95304,-0.38749 1.42958,-0.55697 0.47654,-0.16953 0.95305,-0.325 1.42958,-0.47094 0.47654,-0.14591 0.95305,-0.28206 1.42959,-0.41162 0.47654,-0.12953 0.95305,-0.25223 1.42958,-0.37036 0.47654,-0.11806 0.95305,-0.23154 1.42959,-0.34201 0.47654,-0.11048 0.95304,-0.21784 1.42958,-0.32353 0.47653,-0.10571 0.95305,-0.20971 1.42959,-0.31312 0.47652,-0.10348 0.95304,-0.2063 1.42957,-0.30976 0.47664,-0.10348 0.95316,-0.20741 1.4297,-0.31306 0.4763,-0.10571 0.95284,-0.21313 1.42938,-0.32358 0.47653,-0.11047 0.95307,-0.22392 1.42961,-0.34203 0.47654,-0.11807 0.95306,-0.24087 1.4296,-0.37035 0.47654,-0.12953 0.95307,-0.26573 1.42961,-0.41163 0.47654,-0.14591 0.95306,-0.30143 1.4296,-0.47092 0.47654,-0.16948 0.95308,-0.35289 1.42962,-0.55695 0.47653,-0.20407 0.95306,-0.4287 1.4296,-0.68522 0.47653,-0.25651 0.95307,-0.54464 1.42959,-0.88509 0.47656,-0.34046 0.9531,-0.7323 1.42963,-1.21811 0.47653,-0.4858 0.95307,-1.06185 1.4296,-1.83119 0.47654,-0.76935 0.95284,-1.71301 1.42938,-3.15366 0.47654,-1.44063 0.95306,-3.21465 1.42961,-6.95296 0.47653,-3.73832 0.95306,-3.50536 1.4296,-29.6241"
       title="t tan(t)"
       id="path14552-5-9" />
    <g
       transform="matrix(1.0504711,0,0,1.0504711,133.59359,124.59437)"
       ns6:version="1.8.2"
       ns6:texconverter="pdflatex"
       ns6:pdfconverter="inkscape"
       ns6:text="$\\frac{\\pi}{2}$"
       ns6:preamble="/Users/jvkersch/Library/Application Support/org.inkscape.Inkscape/config/inkscape/extensions/textext/default_packages.tex"
       ns6:scale="2.0"
       ns6:alignment="middle center"
       ns6:stroke-to-path="0"
       ns6:jacobian_sqrt="0.705556"
       id="g16777">
      <defs
         id="id-e48f7690-b9ea-4fa3-93b5-4fb36dc47599">
        <g
           id="g20143">
          <g
             id="g20131" />
          <g
             id="g20135">
            <path
               d="M 2.171875,-2.53125 H 3 c -0.109375,0.421875 -0.265625,1.046875 -0.265625,1.609375 0,0.28125 0.046875,0.46875 0.078125,0.609375 0.109375,0.359375 0.203125,0.375 0.3125,0.375 0.171875,0 0.328125,-0.140625 0.328125,-0.3125 0,-0.046875 -0.015625,-0.078125 -0.046875,-0.140625 C 3.265625,-0.65625 3.140625,-1.046875 3.140625,-1.625 c 0,-0.125 0,-0.40625 0.09375,-0.90625 h 0.875 c 0.125,0 0.1875,0 0.265625,-0.046875 0.09375,-0.078125 0.109375,-0.1875 0.109375,-0.21875 C 4.484375,-3 4.3125,-3 4.1875,-3 h -2.625 c -0.28125,0 -0.484375,0.0625 -0.796875,0.359375 -0.1875,0.15625 -0.453125,0.53125 -0.453125,0.59375 0,0.078125 0.09375,0.078125 0.125,0.078125 0.078125,0 0.078125,-0.015625 0.125,-0.078125 C 0.90625,-2.53125 1.34375,-2.53125 1.5,-2.53125 h 0.421875 c -0.21875,0.765625 -0.59375,1.59375 -0.796875,2.015625 -0.046875,0.078125 -0.109375,0.234375 -0.140625,0.25 0,0.03125 -0.015625,0.0625 -0.015625,0.109375 0,0.109375 0.078125,0.21875 0.25,0.21875 0.265625,0 0.34375,-0.3125 0.515625,-0.9375 z m 0,0"
               id="path20133" />
          </g>
          <g
             id="g20137" />
          <g
             id="g20141">
            <path
               d="M 3.515625,-1.265625 H 3.28125 c -0.015625,0.15625 -0.09375,0.5625 -0.1875,0.625 C 3.046875,-0.59375 2.515625,-0.59375 2.40625,-0.59375 H 1.125 c 0.734375,-0.640625 0.984375,-0.84375 1.390625,-1.171875 0.515625,-0.40625 1,-0.84375 1,-1.5 0,-0.84375 -0.734375,-1.359375 -1.625,-1.359375 -0.859375,0 -1.453125,0.609375 -1.453125,1.25 0,0.34375 0.296875,0.390625 0.375,0.390625 0.15625,0 0.359375,-0.125 0.359375,-0.375 0,-0.125 -0.046875,-0.375 -0.40625,-0.375 C 0.984375,-4.21875 1.453125,-4.375 1.78125,-4.375 c 0.703125,0 1.0625,0.546875 1.0625,1.109375 0,0.609375 -0.4375,1.078125 -0.65625,1.328125 L 0.515625,-0.265625 C 0.4375,-0.203125 0.4375,-0.1875 0.4375,0 h 2.875 z m 0,0"
               id="path20139" />
          </g>
        </g>
      </defs>
      <g
         fill="#000000"
         fill-opacity="1"
         id="id-1679d852-20ac-4db4-bf22-495b895da73b"
         transform="translate(-149.906,-127.842)">
        <g
           transform="translate(149.908,130.842)"
           id="g16769">
          <path
             d="M 2.171875,-2.53125 H 3 c -0.109375,0.421875 -0.265625,1.046875 -0.265625,1.609375 0,0.28125 0.046875,0.46875 0.078125,0.609375 0.109375,0.359375 0.203125,0.375 0.3125,0.375 0.171875,0 0.328125,-0.140625 0.328125,-0.3125 0,-0.046875 -0.015625,-0.078125 -0.046875,-0.140625 C 3.265625,-0.65625 3.140625,-1.046875 3.140625,-1.625 c 0,-0.125 0,-0.40625 0.09375,-0.90625 h 0.875 c 0.125,0 0.1875,0 0.265625,-0.046875 0.09375,-0.078125 0.109375,-0.1875 0.109375,-0.21875 C 4.484375,-3 4.3125,-3 4.1875,-3 h -2.625 c -0.28125,0 -0.484375,0.0625 -0.796875,0.359375 -0.1875,0.15625 -0.453125,0.53125 -0.453125,0.59375 0,0.078125 0.09375,0.078125 0.125,0.078125 0.078125,0 0.078125,-0.015625 0.125,-0.078125 C 0.90625,-2.53125 1.34375,-2.53125 1.5,-2.53125 h 0.421875 c -0.21875,0.765625 -0.59375,1.59375 -0.796875,2.015625 -0.046875,0.078125 -0.109375,0.234375 -0.140625,0.25 0,0.03125 -0.015625,0.0625 -0.015625,0.109375 0,0.109375 0.078125,0.21875 0.25,0.21875 0.265625,0 0.34375,-0.3125 0.515625,-0.9375 z m 0,0"
             id="id-1583c806-960d-4d77-aee5-c8498b043848" />
        </g>
      </g>
      <path
         fill="none"
         stroke-width="0.398"
         stroke-linecap="butt"
         stroke-linejoin="miter"
         stroke="#000000"
         stroke-opacity="1"
         stroke-miterlimit="10"
         d="M 0,4.4314423 H 4.910156"
         id="id-85641740-2265-4d13-86c5-b2ed875c796a" />
      <g
         fill="#000000"
         fill-opacity="1"
         id="id-d94fb225-bcfe-4e47-abff-79075def0b2a"
         transform="translate(-149.906,-127.842)">
        <g
           transform="translate(150.377,138.2)"
           id="g16774">
          <path
             d="M 3.515625,-1.265625 H 3.28125 c -0.015625,0.15625 -0.09375,0.5625 -0.1875,0.625 C 3.046875,-0.59375 2.515625,-0.59375 2.40625,-0.59375 H 1.125 c 0.734375,-0.640625 0.984375,-0.84375 1.390625,-1.171875 0.515625,-0.40625 1,-0.84375 1,-1.5 0,-0.84375 -0.734375,-1.359375 -1.625,-1.359375 -0.859375,0 -1.453125,0.609375 -1.453125,1.25 0,0.34375 0.296875,0.390625 0.375,0.390625 0.15625,0 0.359375,-0.125 0.359375,-0.375 0,-0.125 -0.046875,-0.375 -0.40625,-0.375 C 0.984375,-4.21875 1.453125,-4.375 1.78125,-4.375 c 0.703125,0 1.0625,0.546875 1.0625,1.109375 0,0.609375 -0.4375,1.078125 -0.65625,1.328125 L 0.515625,-0.265625 C 0.4375,-0.203125 0.4375,-0.1875 0.4375,0 h 2.875 z m 0,0"
             id="id-90baf8b8-3b50-475f-a790-2a7ac5c26b93" />
        </g>
      </g>
    </g>
    <path
       style="font-variation-settings:normal;fill:none;fill-opacity:0.78012;stroke:#000000;stroke-width:0.484636;stroke-linecap:round;stroke-linejoin:round;stroke-miterlimit:1.7;stroke-dasharray:none;stroke-dashoffset:0;stroke-opacity:1;stop-color:#000000"
       d="m 141.03287,120.25942 v 5.41476"
       id="path10624-2" />
    <path
       style="font-variation-settings:normal;opacity:1;vector-effect:none;fill:none;fill-opacity:0.78012;stroke:#666666;stroke-width:1.11786;stroke-linecap:round;stroke-linejoin:round;stroke-miterlimit:1.7;stroke-dasharray:none;stroke-dashoffset:0;stroke-opacity:1;-inkscape-stroke:none;stop-color:#000000;stop-opacity:1"
       d="M 141.34713,74.140742 V 169.84149"
       id="path20370" />
    <circle
       style="fill:#999999;stroke:#000000;stroke-width:0.94226;stroke-linecap:round;stroke-linejoin:round;stroke-dasharray:none;stop-color:#000000"
       id="path1061-7"
       cx="133.87506"
       cy="102.69651"
       r="2.1288822" />
    <circle
       style="fill:#999999;stroke:#000000;stroke-width:0.94226;stroke-linecap:round;stroke-linejoin:round;stroke-dasharray:none;stop-color:#000000"
       id="path1061-7-2"
       cx="134.57664"
       cy="91.93943"
       r="2.1288822" />
    <circle
       style="fill:#999999;stroke:#000000;stroke-width:0.94226;stroke-linecap:round;stroke-linejoin:round;stroke-dasharray:none;stop-color:#000000"
       id="path1061-7-2-4"
       cx="134.79648"
       cy="80.068916"
       r="2.1288822" />
    <circle
       style="fill:#999999;stroke:#000000;stroke-width:0.94226;stroke-linecap:round;stroke-linejoin:round;stroke-dasharray:none;stop-color:#000000"
       id="path1061-7-2-4-0"
       cx="145.56786"
       cy="158.5462"
       r="2.1288822" />
    <circle
       style="fill:#999999;stroke:#000000;stroke-width:0.94226;stroke-linecap:round;stroke-linejoin:round;stroke-dasharray:none;stop-color:#000000"
       id="path1061-7-2-4-0-4"
       cx="146.66699"
       cy="143.81798"
       r="2.1288822" />
    <circle
       style="fill:#999999;stroke:#000000;stroke-width:0.94226;stroke-linecap:round;stroke-linejoin:round;stroke-dasharray:none;stop-color:#000000"
       id="path1061-7-2-4-0-4-3"
       cx="150.18417"
       cy="129.96906"
       r="2.1288822" />
    <path
       style="font-variation-settings:normal;opacity:1;fill:none;fill-opacity:0.78012;stroke:#000000;stroke-width:0.7;stroke-linecap:round;stroke-linejoin:round;stroke-miterlimit:1.7;stroke-dasharray:none;stroke-dashoffset:0;stroke-opacity:1;marker-end:url(#TriangleStart-6-1);stop-color:#000000;stop-opacity:1"
       d="m 113.03385,117.21923 c 4.80628,-3.28647 8.77423,-7.78857 11.43087,-12.96964 3.81714,-7.444287 4.85144,-16.275659 2.85772,-24.400499"
       id="path20999"
       inkscape:path-effect="#path-effect21001"
       inkscape:original-d="m 113.03385,117.21923 c 4.90968,-2.27126 6.44845,-10.62458 11.43087,-12.96964 4.98242,-2.34506 1.09939,-16.046909 2.85772,-24.400499"
       sodipodi:nodetypes="csc" />
    <path
       style="font-variation-settings:normal;fill:none;fill-opacity:0.78012;stroke:#000000;stroke-width:0.7;stroke-linecap:round;stroke-linejoin:round;stroke-miterlimit:1.7;stroke-dasharray:none;stroke-dashoffset:0;stroke-opacity:1;marker-end:url(#TriangleStart-6-1-5);stop-color:#000000"
       d="m 167.81944,130.88346 c -2.71899,1.83335 -5.17079,4.06226 -7.25421,6.59474 -5.87834,7.14536 -8.64912,16.76158 -7.47403,25.93928"
       id="path20999-1"
       inkscape:path-effect="#path-effect21001-1"
       inkscape:original-d="m 167.81944,130.88346 c -4.90968,2.27126 -2.27179,4.24967 -7.25421,6.59474 -4.98242,2.34507 -5.7157,17.58569 -7.47403,25.93928"
       sodipodi:nodetypes="csc" />
  </g>
</svg>
