<?xml version="1.0" encoding="UTF-8" standalone="no"?>
<!-- Created with Inkscape (http://www.inkscape.org/) -->

<svg
   width="123.2469mm"
   height="66.000877mm"
   viewBox="0 0 123.2469 66.000877"
   version="1.1"
   id="svg9155"
   sodipodi:docname="inverse-sine-outside-range.svg"
   inkscape:version="1.2 (dc2aeda, 2022-05-15)"
   inkscape:export-filename="inverse-sine-outside-range.png"
   inkscape:export-xdpi="96"
   inkscape:export-ydpi="96"
   xmlns:inkscape="http://www.inkscape.org/namespaces/inkscape"
   xmlns:sodipodi="http://sodipodi.sourceforge.net/DTD/sodipodi-0.dtd"
   xmlns="http://www.w3.org/2000/svg"
   xmlns:svg="http://www.w3.org/2000/svg"
   xmlns:ns2="http://www.iki.fi/pav/software/textext/">
  <sodipodi:namedview
     id="namedview9157"
     pagecolor="#ffffff"
     bordercolor="#000000"
     borderopacity="0.25"
     inkscape:showpageshadow="2"
     inkscape:pageopacity="0.0"
     inkscape:pagecheckerboard="0"
     inkscape:deskcolor="#d1d1d1"
     inkscape:document-units="mm"
     showgrid="false"
     inkscape:zoom="2.4007726"
     inkscape:cx="196.39511"
     inkscape:cy="145.16161"
     inkscape:window-width="2059"
     inkscape:window-height="1387"
     inkscape:window-x="0"
     inkscape:window-y="25"
     inkscape:window-maximized="0"
     inkscape:current-layer="layer1" />
  <defs
     id="defs9152">
    <marker
       style="overflow:visible"
       id="TriangleStart-6"
       refX="0"
       refY="0"
       orient="auto-start-reverse"
       inkscape:stockid="TriangleStart"
       markerWidth="5.3244081"
       markerHeight="6.155385"
       viewBox="0 0 5.3244081 6.1553851"
       inkscape:isstock="true"
       inkscape:collect="always"
       preserveAspectRatio="xMidYMid">
      <path
         transform="scale(0.5)"
         style="fill:context-stroke;fill-rule:evenodd;stroke:context-stroke;stroke-width:1pt"
         d="M 5.77,0 -2.88,5 V -5 Z"
         id="path135-8" />
    </marker>
    <g
       id="id-3d04fd2b-79f1-417b-91b3-d531995d87bc">
      <g
         id="id-05f8f35f-fd21-4769-8346-b685a87ab3cc" />
      <g
         id="id-6695e277-5239-42cc-a8ed-9ecdd949cdac">
        <path
           d="M 2.171875,-2.53125 H 3 c -0.109375,0.421875 -0.265625,1.046875 -0.265625,1.609375 0,0.28125 0.046875,0.46875 0.078125,0.609375 0.109375,0.359375 0.203125,0.375 0.3125,0.375 0.171875,0 0.328125,-0.140625 0.328125,-0.3125 0,-0.046875 -0.015625,-0.078125 -0.046875,-0.140625 C 3.265625,-0.65625 3.140625,-1.046875 3.140625,-1.625 c 0,-0.125 0,-0.40625 0.09375,-0.90625 h 0.875 c 0.125,0 0.1875,0 0.265625,-0.046875 0.09375,-0.078125 0.109375,-0.1875 0.109375,-0.21875 C 4.484375,-3 4.3125,-3 4.1875,-3 h -2.625 c -0.28125,0 -0.484375,0.0625 -0.796875,0.359375 -0.1875,0.15625 -0.453125,0.53125 -0.453125,0.59375 0,0.078125 0.09375,0.078125 0.125,0.078125 0.078125,0 0.078125,-0.015625 0.125,-0.078125 C 0.90625,-2.53125 1.34375,-2.53125 1.5,-2.53125 h 0.421875 c -0.21875,0.765625 -0.59375,1.59375 -0.796875,2.015625 -0.046875,0.078125 -0.109375,0.234375 -0.140625,0.25 0,0.03125 -0.015625,0.0625 -0.015625,0.109375 0,0.109375 0.078125,0.21875 0.25,0.21875 0.265625,0 0.34375,-0.3125 0.515625,-0.9375 z m 0,0"
           id="id-195e9167-032a-4e7b-991d-848e5696cb02" />
      </g>
      <g
         id="id-9f7071d3-38b1-4ba0-8cbf-a42b1aaad61d" />
      <g
         id="id-a6212f37-eab2-405d-b0e6-447342ac294d">
        <path
           d="m 1.046875,-2.28125 c 0,-0.5625 0.046875,-1.078125 0.3125,-1.515625 0.234375,-0.375 0.609375,-0.625 1.0625,-0.625 0.203125,0 0.484375,0.046875 0.625,0.234375 C 2.875,-4.171875 2.71875,-4.046875 2.71875,-3.84375 c 0,0.171875 0.125,0.328125 0.328125,0.328125 0.21875,0 0.34375,-0.140625 0.34375,-0.34375 0,-0.40625 -0.296875,-0.765625 -0.984375,-0.765625 -1,0 -2.03125,0.921875 -2.03125,2.421875 0,1.796875 0.84375,2.34375 1.625,2.34375 0.84375,0 1.578125,-0.65625 1.578125,-1.5625 0,-0.890625 -0.703125,-1.546875 -1.515625,-1.546875 -0.5625,0 -0.859375,0.375 -1.015625,0.6875 z M 2,-0.078125 c -0.359375,0 -0.625,-0.203125 -0.78125,-0.515625 C 1.125,-0.796875 1.0625,-1.15625 1.0625,-1.5625 c 0,-0.6875 0.40625,-1.203125 0.96875,-1.203125 0.3125,0 0.53125,0.125 0.703125,0.375 0.171875,0.265625 0.171875,0.5625 0.171875,0.96875 0,0.390625 0,0.6875 -0.1875,0.96875 -0.15625,0.234375 -0.390625,0.375 -0.71875,0.375 z m 0,0"
           id="id-34a9bd07-2639-4fd3-9188-cf9ea519b6bb" />
      </g>
    </g>
    <g
       id="id-6581aa28-2531-42ad-bd05-45e274406917">
      <g
         id="id-855ef000-99eb-4a9b-a2b6-462c410ef8cb" />
      <g
         id="id-51a70563-c154-4f22-b98e-8e59dc4befa0">
        <path
           d="m 1.078125,-3.890625 c 0.359375,0.09375 0.5625,0.09375 0.671875,0.09375 0.921875,0 1.46875,-0.625 1.46875,-0.734375 0,-0.078125 -0.046875,-0.09375 -0.078125,-0.09375 -0.015625,0 -0.03125,0 -0.0625,0.015625 -0.171875,0.0625 -0.53125,0.203125 -1.046875,0.203125 -0.203125,0 -0.5625,-0.015625 -1.015625,-0.1875 C 0.9375,-4.625 0.921875,-4.625 0.921875,-4.625 c -0.09375,0 -0.09375,0.078125 -0.09375,0.1875 v 2.046875 c 0,0.125 0,0.203125 0.109375,0.203125 0.0625,0 0.078125,0 0.140625,-0.09375 0.296875,-0.375 0.734375,-0.4375 0.96875,-0.4375 0.421875,0 0.609375,0.328125 0.640625,0.390625 0.125,0.234375 0.171875,0.5 0.171875,0.90625 0,0.203125 0,0.609375 -0.21875,0.921875 -0.171875,0.25 -0.46875,0.421875 -0.8125,0.421875 -0.453125,0 -0.921875,-0.25 -1.09375,-0.71875 0.265625,0.015625 0.40625,-0.15625 0.40625,-0.34375 0,-0.296875 -0.265625,-0.34375 -0.359375,-0.34375 0,0 -0.34375,0 -0.34375,0.375 0,0.625 0.578125,1.25 1.40625,1.25 0.890625,0 1.671875,-0.65625 1.671875,-1.546875 0,-0.78125 -0.59375,-1.5 -1.453125,-1.5 -0.3125,0 -0.671875,0.0625 -0.984375,0.328125 z m 0,0"
           id="id-e05adabc-4b18-4d09-8a14-4138fd5c2b09" />
      </g>
      <g
         id="id-790e1f0b-e182-4f1b-a06c-35979174f047">
        <path
           d="m 1.046875,-2.28125 c 0,-0.5625 0.046875,-1.078125 0.3125,-1.515625 0.234375,-0.375 0.609375,-0.625 1.0625,-0.625 0.203125,0 0.484375,0.046875 0.625,0.234375 C 2.875,-4.171875 2.71875,-4.046875 2.71875,-3.84375 c 0,0.171875 0.125,0.328125 0.328125,0.328125 0.21875,0 0.34375,-0.140625 0.34375,-0.34375 0,-0.40625 -0.296875,-0.765625 -0.984375,-0.765625 -1,0 -2.03125,0.921875 -2.03125,2.421875 0,1.796875 0.84375,2.34375 1.625,2.34375 0.84375,0 1.578125,-0.65625 1.578125,-1.5625 0,-0.890625 -0.703125,-1.546875 -1.515625,-1.546875 -0.5625,0 -0.859375,0.375 -1.015625,0.6875 z M 2,-0.078125 c -0.359375,0 -0.625,-0.203125 -0.78125,-0.515625 C 1.125,-0.796875 1.0625,-1.15625 1.0625,-1.5625 c 0,-0.6875 0.40625,-1.203125 0.96875,-1.203125 0.3125,0 0.53125,0.125 0.703125,0.375 0.171875,0.265625 0.171875,0.5625 0.171875,0.96875 0,0.390625 0,0.6875 -0.1875,0.96875 -0.15625,0.234375 -0.390625,0.375 -0.71875,0.375 z m 0,0"
           id="id-711af9ed-cf58-4999-82cd-63829de6d1a5" />
      </g>
      <g
         id="id-e190c4df-c048-45f8-adfb-79f0fae0f66a" />
      <g
         id="id-fdf04cbe-e443-4f53-bec2-bd72bbe41852">
        <path
           d="M 2.171875,-2.53125 H 3 c -0.109375,0.421875 -0.265625,1.046875 -0.265625,1.609375 0,0.28125 0.046875,0.46875 0.078125,0.609375 0.109375,0.359375 0.203125,0.375 0.3125,0.375 0.171875,0 0.328125,-0.140625 0.328125,-0.3125 0,-0.046875 -0.015625,-0.078125 -0.046875,-0.140625 C 3.265625,-0.65625 3.140625,-1.046875 3.140625,-1.625 c 0,-0.125 0,-0.40625 0.09375,-0.90625 h 0.875 c 0.125,0 0.1875,0 0.265625,-0.046875 0.09375,-0.078125 0.109375,-0.1875 0.109375,-0.21875 C 4.484375,-3 4.3125,-3 4.1875,-3 h -2.625 c -0.28125,0 -0.484375,0.0625 -0.796875,0.359375 -0.1875,0.15625 -0.453125,0.53125 -0.453125,0.59375 0,0.078125 0.09375,0.078125 0.125,0.078125 0.078125,0 0.078125,-0.015625 0.125,-0.078125 C 0.90625,-2.53125 1.34375,-2.53125 1.5,-2.53125 h 0.421875 c -0.21875,0.765625 -0.59375,1.59375 -0.796875,2.015625 -0.046875,0.078125 -0.109375,0.234375 -0.140625,0.25 0,0.03125 -0.015625,0.0625 -0.015625,0.109375 0,0.109375 0.078125,0.21875 0.25,0.21875 0.265625,0 0.34375,-0.3125 0.515625,-0.9375 z m 0,0"
           id="id-5e50790f-4c02-4b3b-aeed-9d1702a7d257" />
      </g>
    </g>
    <g
       id="id-a0be535c-37dd-4db8-8fc6-1241113ac892">
      <g
         id="id-347c0e28-228f-4313-a366-166827f0ec13" />
      <g
         id="id-06005e89-9868-47cc-b0c5-0386f0953df8">
        <path
           d="m 6.5625,-2.296875 c 0.171875,0 0.359375,0 0.359375,-0.203125 0,-0.1875 -0.1875,-0.1875 -0.359375,-0.1875 H 1.171875 c -0.171875,0 -0.34375,0 -0.34375,0.1875 0,0.203125 0.171875,0.203125 0.34375,0.203125 z m 0,0"
           id="id-836307e8-24cf-400e-9f8c-6a48fea5ed7a" />
      </g>
      <g
         id="id-6768c733-bcc3-4f0a-8f89-c92150cb0f8e" />
      <g
         id="id-f11ea013-bf3a-4f62-9a2d-3cc1e53991a0">
        <path
           d="m 3.734375,-4.203125 c 0.0625,-0.09375 0.0625,-0.109375 0.0625,-0.28125 H 1.96875 C 1.6875,-4.484375 1.609375,-4.5 1.359375,-4.515625 1,-4.546875 0.984375,-4.59375 0.96875,-4.703125 H 0.734375 l -0.25,1.484375 H 0.71875 c 0.015625,-0.109375 0.09375,-0.5625 0.203125,-0.640625 0.046875,-0.03125 0.625,-0.03125 0.71875,-0.03125 H 3.15625 c -0.21875,0.28125 -0.578125,0.71875 -0.71875,0.921875 -0.90625,1.1875 -1,2.296875 -1,2.703125 0,0.078125 0,0.40625 0.328125,0.40625 0.34375,0 0.34375,-0.3125 0.34375,-0.40625 v -0.28125 c 0,-1.34375 0.28125,-1.96875 0.578125,-2.34375 z m 0,0"
           id="id-e71a722e-5d13-4f0a-a5e7-1d74b9cae972" />
      </g>
      <g
         id="id-e0367edb-4f8b-4cc4-9b93-366f15efb6cb">
        <path
           d="m 1.046875,-2.28125 c 0,-0.5625 0.046875,-1.078125 0.3125,-1.515625 0.234375,-0.375 0.609375,-0.625 1.0625,-0.625 0.203125,0 0.484375,0.046875 0.625,0.234375 C 2.875,-4.171875 2.71875,-4.046875 2.71875,-3.84375 c 0,0.171875 0.125,0.328125 0.328125,0.328125 0.21875,0 0.34375,-0.140625 0.34375,-0.34375 0,-0.40625 -0.296875,-0.765625 -0.984375,-0.765625 -1,0 -2.03125,0.921875 -2.03125,2.421875 0,1.796875 0.84375,2.34375 1.625,2.34375 0.84375,0 1.578125,-0.65625 1.578125,-1.5625 0,-0.890625 -0.703125,-1.546875 -1.515625,-1.546875 -0.5625,0 -0.859375,0.375 -1.015625,0.6875 z M 2,-0.078125 c -0.359375,0 -0.625,-0.203125 -0.78125,-0.515625 C 1.125,-0.796875 1.0625,-1.15625 1.0625,-1.5625 c 0,-0.6875 0.40625,-1.203125 0.96875,-1.203125 0.3125,0 0.53125,0.125 0.703125,0.375 0.171875,0.265625 0.171875,0.5625 0.171875,0.96875 0,0.390625 0,0.6875 -0.1875,0.96875 -0.15625,0.234375 -0.390625,0.375 -0.71875,0.375 z m 0,0"
           id="id-f00452ec-2f2e-4e3b-806b-595b13c3d906" />
      </g>
      <g
         id="id-5856e224-9271-41e6-a519-2771d2ab536f" />
      <g
         id="id-9814bb5b-5626-4213-8bae-eefef2b2f0b7">
        <path
           d="M 2.171875,-2.53125 H 3 c -0.109375,0.421875 -0.265625,1.046875 -0.265625,1.609375 0,0.28125 0.046875,0.46875 0.078125,0.609375 0.109375,0.359375 0.203125,0.375 0.3125,0.375 0.171875,0 0.328125,-0.140625 0.328125,-0.3125 0,-0.046875 -0.015625,-0.078125 -0.046875,-0.140625 C 3.265625,-0.65625 3.140625,-1.046875 3.140625,-1.625 c 0,-0.125 0,-0.40625 0.09375,-0.90625 h 0.875 c 0.125,0 0.1875,0 0.265625,-0.046875 0.09375,-0.078125 0.109375,-0.1875 0.109375,-0.21875 C 4.484375,-3 4.3125,-3 4.1875,-3 h -2.625 c -0.28125,0 -0.484375,0.0625 -0.796875,0.359375 -0.1875,0.15625 -0.453125,0.53125 -0.453125,0.59375 0,0.078125 0.09375,0.078125 0.125,0.078125 0.078125,0 0.078125,-0.015625 0.125,-0.078125 C 0.90625,-2.53125 1.34375,-2.53125 1.5,-2.53125 h 0.421875 c -0.21875,0.765625 -0.59375,1.59375 -0.796875,2.015625 -0.046875,0.078125 -0.109375,0.234375 -0.140625,0.25 0,0.03125 -0.015625,0.0625 -0.015625,0.109375 0,0.109375 0.078125,0.21875 0.25,0.21875 0.265625,0 0.34375,-0.3125 0.515625,-0.9375 z m 0,0"
           id="id-b48c8095-1bd2-4ba6-85d8-f256075943a2" />
      </g>
    </g>
    <g
       id="id-d44c965c-9db7-45f3-bf25-f798285f8642">
      <g
         id="id-0d773b15-3f6e-4f5b-af92-1029eb954400" />
      <g
         id="id-73978a70-1c87-43a6-a84a-88edd9d96047">
        <path
           d="m 2.328125,-4.4375 c 0,-0.1875 0,-0.1875 -0.203125,-0.1875 -0.453125,0.4375 -1.078125,0.4375 -1.359375,0.4375 v 0.25 c 0.15625,0 0.625,0 1,-0.1875 v 3.546875 c 0,0.234375 0,0.328125 -0.6875,0.328125 H 0.8125 V 0 c 0.125,0 0.984375,-0.03125 1.234375,-0.03125 0.21875,0 1.09375,0.03125 1.25,0.03125 V -0.25 H 3.03125 c -0.703125,0 -0.703125,-0.09375 -0.703125,-0.328125 z m 0,0"
           id="id-3dbee388-6858-4d23-801e-42479530e681" />
      </g>
      <g
         id="id-d78d1504-55f5-4a59-bb07-d3749bb39d2e">
        <path
           d="M 3.515625,-1.265625 H 3.28125 c -0.015625,0.15625 -0.09375,0.5625 -0.1875,0.625 C 3.046875,-0.59375 2.515625,-0.59375 2.40625,-0.59375 H 1.125 c 0.734375,-0.640625 0.984375,-0.84375 1.390625,-1.171875 0.515625,-0.40625 1,-0.84375 1,-1.5 0,-0.84375 -0.734375,-1.359375 -1.625,-1.359375 -0.859375,0 -1.453125,0.609375 -1.453125,1.25 0,0.34375 0.296875,0.390625 0.375,0.390625 0.15625,0 0.359375,-0.125 0.359375,-0.375 0,-0.125 -0.046875,-0.375 -0.40625,-0.375 C 0.984375,-4.21875 1.453125,-4.375 1.78125,-4.375 c 0.703125,0 1.0625,0.546875 1.0625,1.109375 0,0.609375 -0.4375,1.078125 -0.65625,1.328125 L 0.515625,-0.265625 C 0.4375,-0.203125 0.4375,-0.1875 0.4375,0 h 2.875 z m 0,0"
           id="id-5d2913d4-2691-4ba2-851a-ab1b003dc650" />
      </g>
    </g>
  </defs>
  <g
     inkscape:label="Layer 1"
     inkscape:groupmode="layer"
     id="layer1"
     transform="translate(-59.489854,-71.480341)">
    <path
       style="font-variation-settings:normal;opacity:1;vector-effect:none;fill:none;fill-opacity:0.78012;stroke:#000000;stroke-width:0.325508;stroke-linecap:round;stroke-linejoin:round;stroke-miterlimit:1.7;stroke-dasharray:0.325508, 1.30203;stroke-dashoffset:0;stroke-opacity:1;-inkscape-stroke:none;stop-color:#000000;stop-opacity:1"
       d="m 113.18444,78.20723 h 26.57537"
       id="path1079-9-3-5" />
    <path
       style="fill:none;fill-opacity:0.78012;stroke:#666666;stroke-width:0.368835;stroke-linecap:round;stroke-linejoin:round;stroke-miterlimit:1.7;stroke-dasharray:none;marker-end:url(#TriangleStart-6)"
       d="M 59.674272,110.43542 H 181.427"
       id="path1079-5" />
    <path
       style="font-variation-settings:normal;opacity:1;vector-effect:none;fill:none;fill-opacity:0.78012;stroke:#666666;stroke-width:0.404276;stroke-linecap:round;stroke-linejoin:round;stroke-miterlimit:1.7;stroke-dasharray:none;stroke-dashoffset:0;stroke-opacity:1;-inkscape-stroke:none;marker-end:url(#TriangleStart-6);stop-color:#000000;stop-opacity:1"
       d="M 112.37992,137.27908 V 72.915955"
       id="path1081-3" />
    <path
       style="fill:none;fill-opacity:0.78012;stroke:#000000;stroke-width:1;stroke-linecap:round;stroke-linejoin:round;stroke-miterlimit:1.7;stroke-dasharray:none;stroke-dashoffset:0"
       d="m 69.148301,126.11255 c 0.887173,0.75803 1.774347,1.46088 2.661522,2.1009 1.5868,1.14577 3.17363,2.08852 4.76047,2.7991 1.58683,0.71058 3.17366,1.18798 4.76049,1.41613 1.58683,0.22815 3.17366,0.20705 4.76049,-0.0623 1.58684,-0.26936 3.17367,-0.78696 4.76047,-1.53574 1.58684,-0.74877 3.17368,-1.72971 4.76051,-2.90765 1.58684,-1.17793 3.17364,-2.55386 4.760477,-4.08186 1.58683,-1.528 3.17367,-3.20807 4.76051,-4.98331 1.5868,-1.77525 3.17363,-3.64607 4.76047,-5.54926 1.58684,-1.90329 3.17367,-3.83894 4.76047,-5.74233 1.58684,-1.90329 3.17368,-3.77382 4.76051,-5.54926 1.58669,-1.77545 3.17349,-3.455013 4.76066,-4.983313 1.58681,-1.5282 3.1736,-2.90403 4.7604,-4.08227 1.5868,-1.17834 3.1736,-2.15787 4.76039,-2.90705 1.58681,-0.74907 3.1736,-1.26648 4.76041,-1.53614 1.58679,-0.26966 3.17359,-0.29016 4.76039,-0.0622 1.58718,0.22795 3.17398,0.70576 4.76077,1.41594 1.58681,0.71028 3.1736,1.65423 4.7604,2.799 1.5868,1.14487 3.1736,2.49155 4.7604,3.99392 1.5868,1.50237 3.17359,3.16123 4.7604,4.920303 1.58718,1.75906 3.17397,3.61863 4.76077,5.51599 1.5868,1.89746 3.1736,3.83271 4.7604,5.74092 0.8774,1.05518 1.75479,2.10193 2.63219,3.12973"
       id="path10126" />
    <g
       transform="matrix(0.705556,0,0,0.705556,101.17786,74.947262)"
       ns2:version="1.8.2"
       ns2:texconverter="pdflatex"
       ns2:pdfconverter="inkscape"
       ns2:text="$1.5$"
       ns2:preamble="/Users/jvkersch/Library/Application Support/org.inkscape.Inkscape/config/inkscape/extensions/textext/default_packages.tex"
       ns2:scale="2.0"
       ns2:alignment="middle center"
       ns2:stroke-to-path="0"
       ns2:jacobian_sqrt="0.705556"
       id="g9921">
      <defs
         id="id-ba6215f0-d987-406f-b09e-48f1b237b83c">
        <g
           id="id-0bc8e40d-d96f-48f6-ac7a-cdbaa93a75bb">
          <g
             id="id-d262fa50-b88a-4dfe-8fe3-1bc7264880a2" />
          <g
             id="id-82d0eb1e-088c-4c0c-95d0-3a1923fb0897">
            <path
               d="m 2.9375,-6.375 c 0,-0.25 0,-0.265625 -0.234375,-0.265625 C 2.078125,-6 1.203125,-6 0.890625,-6 v 0.3125 c 0.203125,0 0.78125,0 1.296875,-0.265625 v 5.171875 c 0,0.359375 -0.03125,0.46875 -0.921875,0.46875 h -0.3125 V 0 c 0.34375,-0.03125 1.203125,-0.03125 1.609375,-0.03125 0.390625,0 1.265625,0 1.609375,0.03125 v -0.3125 h -0.3125 c -0.90625,0 -0.921875,-0.109375 -0.921875,-0.46875 z m 0,0"
               id="id-513667ec-f628-4198-a94b-2fe738a1ec56" />
          </g>
          <g
             id="id-7fac75c8-d700-43b7-8e7b-829464e41c19">
            <path
               d="m 4.46875,-2 c 0,-1.1875 -0.8125,-2.1875 -1.890625,-2.1875 -0.46875,0 -0.90625,0.15625 -1.265625,0.515625 V -5.625 c 0.203125,0.0625 0.53125,0.125 0.84375,0.125 1.234375,0 1.9375,-0.90625 1.9375,-1.03125 0,-0.0625 -0.03125,-0.109375 -0.109375,-0.109375 0,0 -0.03125,0 -0.078125,0.03125 C 3.703125,-6.515625 3.21875,-6.3125 2.546875,-6.3125 2.15625,-6.3125 1.6875,-6.390625 1.21875,-6.59375 1.140625,-6.625 1.125,-6.625 1.109375,-6.625 1,-6.625 1,-6.546875 1,-6.390625 V -3.4375 c 0,0.171875 0,0.25 0.140625,0.25 0.078125,0 0.09375,-0.015625 0.140625,-0.078125 C 1.390625,-3.421875 1.75,-3.96875 2.5625,-3.96875 c 0.515625,0 0.765625,0.453125 0.84375,0.640625 0.15625,0.375 0.1875,0.75 0.1875,1.25 0,0.359375 0,0.953125 -0.25,1.375 C 3.109375,-0.3125 2.734375,-0.0625 2.28125,-0.0625 c -0.71875,0 -1.296875,-0.53125 -1.46875,-1.109375 0.03125,0 0.0625,0.015625 0.171875,0.015625 0.328125,0 0.5,-0.25 0.5,-0.484375 0,-0.25 -0.171875,-0.5 -0.5,-0.5 C 0.84375,-2.140625 0.5,-2.0625 0.5,-1.609375 0.5,-0.75 1.1875,0.21875 2.296875,0.21875 3.453125,0.21875 4.46875,-0.734375 4.46875,-2 Z m 0,0"
               id="id-50c39765-2f1d-450a-89f7-613332c244e2" />
          </g>
          <g
             id="id-9ca6bac4-7c9f-49d5-882d-77772ac5c1cd" />
          <g
             id="id-d601807d-5447-41f4-8bd7-a47766c305db">
            <path
               d="m 1.90625,-0.53125 c 0,-0.28125 -0.234375,-0.53125 -0.515625,-0.53125 -0.296875,0 -0.53125,0.25 -0.53125,0.53125 C 0.859375,-0.234375 1.09375,0 1.390625,0 1.671875,0 1.90625,-0.234375 1.90625,-0.53125 Z m 0,0"
               id="id-12996c10-3d59-4159-a5bc-24a6aacf7b48" />
          </g>
        </g>
      </defs>
      <g
         fill="#000000"
         fill-opacity="1"
         id="id-b5a9fb55-ae44-46a8-a9db-05a52da11f67"
         transform="translate(-149.603,-128.124)">
        <g
           transform="translate(148.712,134.765)"
           id="g9910">
          <path
             d="m 2.9375,-6.375 c 0,-0.25 0,-0.265625 -0.234375,-0.265625 C 2.078125,-6 1.203125,-6 0.890625,-6 v 0.3125 c 0.203125,0 0.78125,0 1.296875,-0.265625 v 5.171875 c 0,0.359375 -0.03125,0.46875 -0.921875,0.46875 h -0.3125 V 0 c 0.34375,-0.03125 1.203125,-0.03125 1.609375,-0.03125 0.390625,0 1.265625,0 1.609375,0.03125 v -0.3125 h -0.3125 c -0.90625,0 -0.921875,-0.109375 -0.921875,-0.46875 z m 0,0"
             id="id-774fea24-83d0-44a8-a51b-183f149efeb4" />
        </g>
      </g>
      <g
         fill="#000000"
         fill-opacity="1"
         id="id-36a65d0a-445b-4350-9be8-132b6a0f700d"
         transform="translate(-149.603,-128.124)">
        <g
           transform="translate(153.694,134.765)"
           id="g9914">
          <path
             d="m 1.90625,-0.53125 c 0,-0.28125 -0.234375,-0.53125 -0.515625,-0.53125 -0.296875,0 -0.53125,0.25 -0.53125,0.53125 C 0.859375,-0.234375 1.09375,0 1.390625,0 1.671875,0 1.90625,-0.234375 1.90625,-0.53125 Z m 0,0"
             id="id-cf38855b-233e-4a7e-93a7-960e19528b65" />
        </g>
      </g>
      <g
         fill="#000000"
         fill-opacity="1"
         id="id-1d1deed4-b6d9-4706-9a18-e6ec0bde348c"
         transform="translate(-149.603,-128.124)">
        <g
           transform="translate(156.461,134.765)"
           id="g9918">
          <path
             d="m 4.46875,-2 c 0,-1.1875 -0.8125,-2.1875 -1.890625,-2.1875 -0.46875,0 -0.90625,0.15625 -1.265625,0.515625 V -5.625 c 0.203125,0.0625 0.53125,0.125 0.84375,0.125 1.234375,0 1.9375,-0.90625 1.9375,-1.03125 0,-0.0625 -0.03125,-0.109375 -0.109375,-0.109375 0,0 -0.03125,0 -0.078125,0.03125 C 3.703125,-6.515625 3.21875,-6.3125 2.546875,-6.3125 2.15625,-6.3125 1.6875,-6.390625 1.21875,-6.59375 1.140625,-6.625 1.125,-6.625 1.109375,-6.625 1,-6.625 1,-6.546875 1,-6.390625 V -3.4375 c 0,0.171875 0,0.25 0.140625,0.25 0.078125,0 0.09375,-0.015625 0.140625,-0.078125 C 1.390625,-3.421875 1.75,-3.96875 2.5625,-3.96875 c 0.515625,0 0.765625,0.453125 0.84375,0.640625 0.15625,0.375 0.1875,0.75 0.1875,1.25 0,0.359375 0,0.953125 -0.25,1.375 C 3.109375,-0.3125 2.734375,-0.0625 2.28125,-0.0625 c -0.71875,0 -1.296875,-0.53125 -1.46875,-1.109375 0.03125,0 0.0625,0.015625 0.171875,0.015625 0.328125,0 0.5,-0.25 0.5,-0.484375 0,-0.25 -0.171875,-0.5 -0.5,-0.5 C 0.84375,-2.140625 0.5,-2.0625 0.5,-1.609375 0.5,-0.75 1.1875,0.21875 2.296875,0.21875 3.453125,0.21875 4.46875,-0.734375 4.46875,-2 Z m 0,0"
             id="id-9ae1811d-8ec5-4c6d-9955-202a4dce991d" />
        </g>
      </g>
    </g>
    <g
       transform="matrix(0.705556,0,0,0.705556,141.59433,75.88477)"
       ns2:version="1.8.2"
       ns2:texconverter="pdflatex"
       ns2:pdfconverter="inkscape"
       ns2:text="$?$"
       ns2:preamble="/Users/jvkersch/Library/Application Support/org.inkscape.Inkscape/config/inkscape/extensions/textext/default_packages.tex"
       ns2:scale="2.0"
       ns2:alignment="middle center"
       ns2:stroke-to-path="0"
       ns2:jacobian_sqrt="0.705556"
       id="g10105">
      <defs
         id="id-9e83e9fa-ec5d-453d-88c2-90fdbd1ce682">
        <g
           id="id-7087b62a-eea2-4ed3-8bae-49811130bb67">
          <g
             id="id-b853822f-c9ef-4ccf-b17d-3b68e297210e" />
          <g
             id="id-5d06dc21-0b7e-4ea2-a617-1ee2514c3412">
            <path
               d="m 2.34375,-2.484375 c 0,-1.25 0.96875,-1.96875 1.3125,-2.21875 0.265625,-0.203125 0.484375,-0.5625 0.484375,-0.984375 0,-0.578125 -0.40625,-1.34375 -1.890625,-1.34375 -1.078125,0 -1.6875,0.6875 -1.6875,1.328125 0,0.34375 0.21875,0.484375 0.453125,0.484375 0.28125,0 0.453125,-0.203125 0.453125,-0.46875 0,-0.4375 -0.40625,-0.4375 -0.546875,-0.4375 0.296875,-0.53125 0.875,-0.6875 1.296875,-0.6875 1.09375,0 1.09375,0.6875 1.09375,1.078125 0,0.578125 -0.15625,0.765625 -0.34375,0.9375 -0.65625,0.71875 -0.875,1.640625 -0.875,2.25 v 0.4375 c 0,0.1875 0,0.25 0.125,0.25 0.125,0 0.125,-0.09375 0.125,-0.28125 z M 2.734375,-0.53125 C 2.734375,-0.8125 2.5,-1.0625 2.21875,-1.0625 c -0.296875,0 -0.53125,0.25 -0.53125,0.53125 C 1.6875,-0.234375 1.921875,0 2.21875,0 2.5,0 2.734375,-0.234375 2.734375,-0.53125 Z m 0,0"
               id="id-00c8bea1-db94-4fca-b542-71623dda2aba" />
          </g>
        </g>
      </defs>
      <g
         fill="#000000"
         fill-opacity="1"
         id="id-9420b8f1-bcca-44f9-aac2-5017d6581fd5"
         transform="translate(-149.275,-127.734)">
        <g
           transform="translate(148.712,134.765)"
           id="g10102">
          <path
             d="m 2.34375,-2.484375 c 0,-1.25 0.96875,-1.96875 1.3125,-2.21875 0.265625,-0.203125 0.484375,-0.5625 0.484375,-0.984375 0,-0.578125 -0.40625,-1.34375 -1.890625,-1.34375 -1.078125,0 -1.6875,0.6875 -1.6875,1.328125 0,0.34375 0.21875,0.484375 0.453125,0.484375 0.28125,0 0.453125,-0.203125 0.453125,-0.46875 0,-0.4375 -0.40625,-0.4375 -0.546875,-0.4375 0.296875,-0.53125 0.875,-0.6875 1.296875,-0.6875 1.09375,0 1.09375,0.6875 1.09375,1.078125 0,0.578125 -0.15625,0.765625 -0.34375,0.9375 -0.65625,0.71875 -0.875,1.640625 -0.875,2.25 v 0.4375 c 0,0.1875 0,0.25 0.125,0.25 0.125,0 0.125,-0.09375 0.125,-0.28125 z M 2.734375,-0.53125 C 2.734375,-0.8125 2.5,-1.0625 2.21875,-1.0625 c -0.296875,0 -0.53125,0.25 -0.53125,0.53125 C 1.6875,-0.234375 1.921875,0 2.21875,0 2.5,0 2.734375,-0.234375 2.734375,-0.53125 Z m 0,0"
             id="id-d6fb2fba-299e-4e4e-8c9d-a0270ebc128a" />
        </g>
      </g>
    </g>
    <path
       style="font-variation-settings:normal;opacity:1;vector-effect:none;fill:none;fill-opacity:0.78012;stroke:#000000;stroke-width:0.325509;stroke-linecap:round;stroke-linejoin:round;stroke-miterlimit:1.7;stroke-dasharray:none;stroke-dashoffset:0;stroke-opacity:1;-inkscape-stroke:none;stop-color:#000000;stop-opacity:1"
       d="m 110.49359,87.952063 h 3.63685"
       id="path10624" />
    <path
       style="font-variation-settings:normal;vector-effect:none;fill:none;fill-opacity:0.78012;stroke:#000000;stroke-width:0.325509;stroke-linecap:round;stroke-linejoin:round;stroke-miterlimit:1.7;stroke-dasharray:none;stroke-dashoffset:0;stroke-opacity:1;-inkscape-stroke:none;stop-color:#000000"
       d="m 110.59327,132.92254 h 3.63685"
       id="path10624-2" />
    <g
       transform="matrix(0.705556,0,0,0.705556,101.58731,129.96114)"
       ns2:version="1.8.2"
       ns2:texconverter="pdflatex"
       ns2:pdfconverter="inkscape"
       ns2:text="$-1$"
       ns2:preamble="/Users/jvkersch/Library/Application Support/org.inkscape.Inkscape/config/inkscape/extensions/textext/default_packages.tex"
       ns2:scale="2.0"
       ns2:alignment="middle center"
       ns2:stroke-to-path="0"
       ns2:jacobian_sqrt="0.705556"
       id="g10820">
      <defs
         id="id-45d29427-b7cf-4ff1-8d3e-c9553f150bce">
        <g
           id="id-557a5d49-fb34-463e-b0f9-1ac72dedb5e4">
          <g
             id="id-3b71a1b4-cbbb-4f53-8504-bb6faad49d91" />
          <g
             id="id-b8ef7651-52ed-4dcf-8010-1eb44f1001f2">
            <path
               d="m 6.5625,-2.296875 c 0.171875,0 0.359375,0 0.359375,-0.203125 0,-0.1875 -0.1875,-0.1875 -0.359375,-0.1875 H 1.171875 c -0.171875,0 -0.34375,0 -0.34375,0.1875 0,0.203125 0.171875,0.203125 0.34375,0.203125 z m 0,0"
               id="id-15af41db-9557-4e49-978a-95ff00d31835" />
          </g>
          <g
             id="id-77cb1d98-dcfc-4467-825c-9fe4b95377a7" />
          <g
             id="id-b1425e90-fa87-4a1b-a6b0-6c929216807e">
            <path
               d="m 2.9375,-6.375 c 0,-0.25 0,-0.265625 -0.234375,-0.265625 C 2.078125,-6 1.203125,-6 0.890625,-6 v 0.3125 c 0.203125,0 0.78125,0 1.296875,-0.265625 v 5.171875 c 0,0.359375 -0.03125,0.46875 -0.921875,0.46875 h -0.3125 V 0 c 0.34375,-0.03125 1.203125,-0.03125 1.609375,-0.03125 0.390625,0 1.265625,0 1.609375,0.03125 v -0.3125 h -0.3125 c -0.90625,0 -0.921875,-0.109375 -0.921875,-0.46875 z m 0,0"
               id="id-ab813469-620b-43d3-94ef-0b6017755c49" />
          </g>
        </g>
      </defs>
      <g
         fill="#000000"
         fill-opacity="1"
         id="id-e41407b4-3429-41b9-928d-ae39305fea02"
         transform="translate(-149.54,-128.124)">
        <g
           transform="translate(148.712,134.765)"
           id="g10813">
          <path
             d="m 6.5625,-2.296875 c 0.171875,0 0.359375,0 0.359375,-0.203125 0,-0.1875 -0.1875,-0.1875 -0.359375,-0.1875 H 1.171875 c -0.171875,0 -0.34375,0 -0.34375,0.1875 0,0.203125 0.171875,0.203125 0.34375,0.203125 z m 0,0"
             id="id-34f94724-ff3e-4981-a53e-b102359c6649" />
        </g>
      </g>
      <g
         fill="#000000"
         fill-opacity="1"
         id="id-93c00db6-8893-47cf-9222-b45bd91f8722"
         transform="translate(-149.54,-128.124)">
        <g
           transform="translate(156.461,134.765)"
           id="g10817">
          <path
             d="m 2.9375,-6.375 c 0,-0.25 0,-0.265625 -0.234375,-0.265625 C 2.078125,-6 1.203125,-6 0.890625,-6 v 0.3125 c 0.203125,0 0.78125,0 1.296875,-0.265625 v 5.171875 c 0,0.359375 -0.03125,0.46875 -0.921875,0.46875 h -0.3125 V 0 c 0.34375,-0.03125 1.203125,-0.03125 1.609375,-0.03125 0.390625,0 1.265625,0 1.609375,0.03125 v -0.3125 h -0.3125 c -0.90625,0 -0.921875,-0.109375 -0.921875,-0.46875 z m 0,0"
             id="id-bbec9c09-dcea-4b8d-8fb2-98b8f41844c6" />
        </g>
      </g>
    </g>
    <g
       transform="matrix(0.705556,0,0,0.705556,107.09911,84.709565)"
       ns2:version="1.8.2"
       ns2:texconverter="pdflatex"
       ns2:pdfconverter="inkscape"
       ns2:text="$1$"
       ns2:preamble="/Users/jvkersch/Library/Application Support/org.inkscape.Inkscape/config/inkscape/extensions/textext/default_packages.tex"
       ns2:scale="2.0"
       ns2:alignment="middle center"
       ns2:stroke-to-path="0"
       ns2:jacobian_sqrt="0.705556"
       id="g11032">
      <defs
         id="id-a7418cc3-f1ad-4c71-b9a7-d46282832c20">
        <g
           id="id-4ba0344a-4d05-43bf-9192-b2bdc89f9bfd">
          <g
             id="id-a74524e1-9410-4e1e-b0bf-28edd949bf97" />
          <g
             id="id-a13f9f93-78a4-49c7-9049-c72e0717067d">
            <path
               d="m 2.9375,-6.375 c 0,-0.25 0,-0.265625 -0.234375,-0.265625 C 2.078125,-6 1.203125,-6 0.890625,-6 v 0.3125 c 0.203125,0 0.78125,0 1.296875,-0.265625 v 5.171875 c 0,0.359375 -0.03125,0.46875 -0.921875,0.46875 h -0.3125 V 0 c 0.34375,-0.03125 1.203125,-0.03125 1.609375,-0.03125 0.390625,0 1.265625,0 1.609375,0.03125 v -0.3125 h -0.3125 c -0.90625,0 -0.921875,-0.109375 -0.921875,-0.46875 z m 0,0"
               id="id-fdd2a022-2259-40ad-9599-b4b107b57812" />
          </g>
        </g>
      </defs>
      <g
         fill="#000000"
         fill-opacity="1"
         id="id-a672dc35-bede-47d2-a05e-3b6799f3a6d8"
         transform="translate(-149.603,-128.124)">
        <g
           transform="translate(148.712,134.765)"
           id="g11029">
          <path
             d="m 2.9375,-6.375 c 0,-0.25 0,-0.265625 -0.234375,-0.265625 C 2.078125,-6 1.203125,-6 0.890625,-6 v 0.3125 c 0.203125,0 0.78125,0 1.296875,-0.265625 v 5.171875 c 0,0.359375 -0.03125,0.46875 -0.921875,0.46875 h -0.3125 V 0 c 0.34375,-0.03125 1.203125,-0.03125 1.609375,-0.03125 0.390625,0 1.265625,0 1.609375,0.03125 v -0.3125 h -0.3125 c -0.90625,0 -0.921875,-0.109375 -0.921875,-0.46875 z m 0,0"
             id="id-db17ae33-b69a-49f7-951f-c06928470a4c" />
        </g>
      </g>
    </g>
  </g>
</svg>
