<?xml version="1.0" encoding="UTF-8" standalone="no"?>
<!-- Created with Inkscape (http://www.inkscape.org/) -->

<svg
   width="95.068001mm"
   height="69.432358mm"
   viewBox="0 0 95.06801 69.432358"
   version="1.1"
   id="svg7000"
   sodipodi:docname="angle.svg"
   inkscape:version="1.2 (dc2aeda, 2022-05-15)"
   xmlns:inkscape="http://www.inkscape.org/namespaces/inkscape"
   xmlns:sodipodi="http://sodipodi.sourceforge.net/DTD/sodipodi-0.dtd"
   xmlns="http://www.w3.org/2000/svg"
   xmlns:svg="http://www.w3.org/2000/svg"
   xmlns:ns1="http://www.iki.fi/pav/software/textext/">
  <sodipodi:namedview
     id="namedview7002"
     pagecolor="#ffffff"
     bordercolor="#000000"
     borderopacity="0.25"
     inkscape:showpageshadow="2"
     inkscape:pageopacity="0.0"
     inkscape:pagecheckerboard="0"
     inkscape:deskcolor="#d1d1d1"
     inkscape:document-units="mm"
     showgrid="false"
     inkscape:zoom="1.7041198"
     inkscape:cx="136.43407"
     inkscape:cy="251.44946"
     inkscape:window-width="2560"
     inkscape:window-height="1387"
     inkscape:window-x="0"
     inkscape:window-y="25"
     inkscape:window-maximized="1"
     inkscape:current-layer="layer1" />
  <defs
     id="defs6997">
    <inkscape:path-effect
       effect="spiro"
       id="path-effect482"
       is_visible="true"
       lpeversion="1" />
    <rect
       x="82.444115"
       y="318.44037"
       width="297.82935"
       height="34.008198"
       id="rect8992" />
    <rect
       x="82.444115"
       y="318.44037"
       width="297.82935"
       height="34.008198"
       id="rect8992-5" />
  </defs>
  <g
     inkscape:label="Layer 1"
     inkscape:groupmode="layer"
     id="layer1"
     transform="translate(-0.945061,-1.97133)">
    <path
       style="fill:none;fill-opacity:0.78012;stroke:#000000;stroke-width:0.9;stroke-linecap:square;stroke-linejoin:round;stroke-miterlimit:1.7;stroke-dasharray:none;stop-color:#000000"
       d="M 19.84495,57.9949 82.104644,14.832345"
       id="path8434-5" />
    <path
       style="fill:none;fill-opacity:0.78012;stroke:#000000;stroke-width:0.9;stroke-linecap:square;stroke-linejoin:round;stroke-miterlimit:1.7;stroke-dasharray:none;stop-color:#000000"
       d="M 86.467324,45.014556 12.4529,28.854731"
       id="path8434-6-7" />
    <path
       style="fill:none;stroke:#000000;stroke-width:0.499999;stroke-linecap:round;stop-color:#000000"
       d="m 69.570418,40.476054 c 1.253537,-2.454647 1.998295,-5.167692 2.173655,-7.91831 0.198816,-3.118536 -0.337288,-6.281548 -1.552612,-9.160399"
       id="path480"
       inkscape:path-effect="#path-effect482"
       inkscape:original-d="m 69.570418,40.476054 c 0.673063,-2.587419 1.449369,-5.278608 2.173655,-7.91831 0.724286,-2.639701 -1.034809,-6.106668 -1.552612,-9.160399" />
    <g
       transform="matrix(0.705556,0,0,0.705556,73.477184,29.340006)"
       ns1:version="1.8.2"
       ns1:texconverter="pdflatex"
       ns1:pdfconverter="inkscape"
       ns1:text="$\\theta$"
       ns1:preamble="/Users/jvkersch/Library/Application Support/org.inkscape.Inkscape/config/inkscape/extensions/textext/default_packages.tex"
       ns1:scale="2.0"
       ns1:alignment="middle center"
       ns1:stroke-to-path="0"
       ns1:inkscapeversion="1.2"
       ns1:jacobian_sqrt="0.705556"
       id="g1520">
      <defs
         id="id-cf926f79-357c-420e-984b-0daf10103552">
        <g
           id="id-bf957580-6f15-4fbb-8b25-90b0c1503922">
          <g
             id="id-69e80e78-89eb-4123-a722-17db8ed8c393" />
          <g
             id="id-28ebb04d-f6ce-48eb-9290-f6e5e4c680f6">
            <path
               d="m 4.53125,-4.984375 c 0,-0.65625 -0.171875,-2.046875 -1.1875,-2.046875 -1.390625,0 -2.921875,2.8125 -2.921875,5.09375 0,0.9375 0.28125,2.046875 1.1875,2.046875 1.40625,0 2.921875,-2.859375 2.921875,-5.09375 z M 1.46875,-3.625 C 1.640625,-4.25 1.84375,-5.046875 2.25,-5.765625 2.515625,-6.25 2.875,-6.8125 3.328125,-6.8125 c 0.484375,0 0.546875,0.640625 0.546875,1.203125 0,0.5 -0.078125,1 -0.3125,1.984375 z m 2,0.328125 C 3.359375,-2.84375 3.15625,-2 2.765625,-1.28125 c -0.34375,0.6875 -0.71875,1.171875 -1.15625,1.171875 -0.328125,0 -0.53125,-0.296875 -0.53125,-1.21875 0,-0.421875 0.0625,-1 0.3125,-1.96875 z m 0,0"
               id="id-8a2fca36-5771-4053-80f3-a0d4e860fa1b" />
          </g>
        </g>
      </defs>
      <g
         fill="#000000"
         fill-opacity="1"
         id="id-679681d3-af03-4e7d-ab69-68f2f90c9fbe"
         transform="translate(-149.134,-127.734)">
        <g
           transform="translate(148.712,134.765)"
           id="g1517">
          <path
             d="m 4.53125,-4.984375 c 0,-0.65625 -0.171875,-2.046875 -1.1875,-2.046875 -1.390625,0 -2.921875,2.8125 -2.921875,5.09375 0,0.9375 0.28125,2.046875 1.1875,2.046875 1.40625,0 2.921875,-2.859375 2.921875,-5.09375 z M 1.46875,-3.625 C 1.640625,-4.25 1.84375,-5.046875 2.25,-5.765625 2.515625,-6.25 2.875,-6.8125 3.328125,-6.8125 c 0.484375,0 0.546875,0.640625 0.546875,1.203125 0,0.5 -0.078125,1 -0.3125,1.984375 z m 2,0.328125 C 3.359375,-2.84375 3.15625,-2 2.765625,-1.28125 c -0.34375,0.6875 -0.71875,1.171875 -1.15625,1.171875 -0.328125,0 -0.53125,-0.296875 -0.53125,-1.21875 0,-0.421875 0.0625,-1 0.3125,-1.96875 z m 0,0"
             id="id-b1491551-8e8d-4846-b6f9-e36eca558548" />
        </g>
      </g>
    </g>
  </g>
</svg>
