<?xml version="1.0" encoding="UTF-8" standalone="no"?>
<!-- Created with Inkscape (http://www.inkscape.org/) -->

<svg
   width="108.76297mm"
   height="53mm"
   viewBox="0 0 108.76297 53"
   version="1.1"
   id="svg3532"
   inkscape:version="1.2 (dc2aeda, 2022-05-15)"
   sodipodi:docname="angle-of-depression.svg"
   inkscape:export-filename="angle-of-depression.png"
   inkscape:export-xdpi="96"
   inkscape:export-ydpi="96"
   xmlns:inkscape="http://www.inkscape.org/namespaces/inkscape"
   xmlns:sodipodi="http://sodipodi.sourceforge.net/DTD/sodipodi-0.dtd"
   xmlns="http://www.w3.org/2000/svg"
   xmlns:svg="http://www.w3.org/2000/svg">
  <sodipodi:namedview
     id="namedview3534"
     pagecolor="#ffffff"
     bordercolor="#000000"
     borderopacity="0.25"
     inkscape:showpageshadow="2"
     inkscape:pageopacity="0.0"
     inkscape:pagecheckerboard="0"
     inkscape:deskcolor="#d1d1d1"
     inkscape:document-units="mm"
     showgrid="false"
     inkscape:zoom="1.3825878"
     inkscape:cx="139.95495"
     inkscape:cy="113.91682"
     inkscape:window-width="1390"
     inkscape:window-height="847"
     inkscape:window-x="50"
     inkscape:window-y="25"
     inkscape:window-maximized="0"
     inkscape:current-layer="layer1" />
  <defs
     id="defs3529">
    <marker
       style="overflow:visible"
       id="Arrow2"
       refX="6"
       refY="0"
       orient="auto-start-reverse"
       inkscape:stockid="Arrow2"
       markerWidth="4"
       markerHeight="5"
       viewBox="0 0 7.7 5.6"
       inkscape:isstock="true"
       inkscape:collect="always"
       preserveAspectRatio="none">
      <path
         transform="scale(0.7)"
         d="M -2,-4 9,0 -2,4 c 2,-2.33 2,-5.66 0,-8 z"
         style="fill:context-stroke;fill-rule:evenodd;stroke:none"
         id="arrow2L" />
    </marker>
  </defs>
  <g
     inkscape:label="Layer 1"
     inkscape:groupmode="layer"
     id="layer1"
     transform="translate(-21.49601,-110.19608)">
    <rect
       style="fill:#999999;fill-opacity:0.78012;stroke:none;stroke-width:0.395979;stroke-linecap:round;stroke-linejoin:bevel"
       id="rect2444"
       width="108.76297"
       height="5.911119"
       x="21.687378"
       y="157.02826"
       rx="0"
       ry="0" />
    <g
       id="g2235"
       transform="matrix(0.19880069,0,0,0.19880069,30.717312,105.73368)">
      <path
         d="m 71.066,42.027 c 0,3.9062 -3.1641,7.0664 -7.0664,7.0664 -3.9023,0 -7.0664,-3.1602 -7.0664,-7.0664 0,-3.9023 3.1641,-7.0664 7.0664,-7.0664 3.9023,0 7.0664,3.1641 7.0664,7.0664"
         id="path2231" />
      <path
         d="M 79.648,67.465 71.2378,52.43 c -0.5,-0.89453 -1.3711,-1.4297 -2.25,-1.4766 v -0.01172 h -9.9727 v 0.01172 c -0.87891,0.04687 -1.75,0.58203 -2.25,1.4766 l -8.4102,15.035 c -0.74219,1.3281 -0.38672,2.9414 0.80078,3.6055 1.1875,0.66406 2.75,0.125 3.4922,-1.2031 l 3.6719,-6.5664 v 6.6914 c 0,0.32422 0.03516,0.63672 0.09766,0.94141 -0.0625,0.24219 -0.09766,0.48828 -0.09766,0.75 v 18.129 c 0,1.7812 1.4453,3.2266 3.2266,3.2266 1.7813,0 3.2266,-1.4453 3.2266,-3.2266 v -15.211 h 2.457 v 15.211 c 0,1.7812 1.4453,3.2266 3.2266,3.2266 1.7813,0 3.2266,-1.4453 3.2266,-3.2266 v -18.129 c 0,-0.26172 -0.03906,-0.50781 -0.09766,-0.75 0.0625,-0.30078 0.09766,-0.61719 0.09766,-0.94141 V 63.301 l 3.6719,6.5664 c 0.74219,1.3281 2.3047,1.8672 3.4922,1.2031 1.1836,-0.66406 1.5391,-2.2773 0.80078,-3.6055 z"
         id="path2233" />
    </g>
    <path
       d="m 24.408145,157.07175 h 34.62584 c 0.25356,0 0.49195,-0.13092 0.627,-0.34314 0.13504,-0.21635 0.15847,-0.48369 0.0496,-0.71381 l -4.75015,-10.46621 c -0.12127,-0.26596 -0.38862,-0.43822 -0.68213,-0.43822 h -1.78869 l -8.3439,-19.64796 c -0.113,-0.27147 -0.37482,-0.44647 -0.66834,-0.45614 -0.2756,-0.0179 -0.565,0.15296 -0.69592,0.4148 l -6.09635,12.26855 h -4.09963 c -0.29353,0 -0.55947,0.17226 -0.68213,0.43822 l -8.17739,17.88266 c -0.10887,0.23013 -0.0854,0.50161 0.0496,0.71797 0.14056,0.21222 0.37483,0.34314 0.63253,0.34314 z m 18.99638,-29.52715 3.58563,8.43915 -1.79282,3.82411 -1.48551,-2.78638 c -0.0992,-0.19017 -0.27974,-0.32935 -0.48782,-0.37483 -0.20808,-0.0496 -0.42855,-0.004 -0.60494,0.11714 l -1.41799,1.00735 -1.92373,-1.92373 z m -10.33533,11.64167 h 4.08728 c 0.28388,0 0.54159,-0.16261 0.67247,-0.4148 l 0.74965,-1.50343 2.01884,2.01884 c 0.25769,0.25769 0.66421,0.29352 0.96188,0.0813 l 1.23748,-0.88056 1.78869,3.35001 c 0.13091,0.24391 0.38445,0.39687 0.6587,0.39687 h 0.0179 c 0.28387,-0.01 0.53742,-0.17639 0.6587,-0.42855 l 1.85622,-3.96452 3.5306,8.31356 c 0.11713,0.27561 0.38862,0.45614 0.69038,0.45614 h 1.80111 l 4.07776,8.96832 -32.30386,-0.003 z"
       id="path4107"
       style="stroke-width:0.352778" />
    <path
       d="m 119.65799,145.99898 v -1.55049 c 0,-0.2568 0.20805,-0.46485 0.46533,-0.46485 h 0.93019 v -2.09346 c 0,-0.25729 0.20853,-0.46534 0.46533,-0.46534 0.2568,0 0.46533,0.20805 0.46533,0.46534 v 2.09346 h 0.93018 c 0.25728,0 0.46533,0.20805 0.46533,0.46485 v 1.55049 c 1.64317,0.7178 2.79155,2.35706 2.79155,4.26529 v 3.72169 h 0.93018 c 0.25679,0 0.46533,0.20805 0.46533,0.46485 v 2.32617 c 0,0.25728 -0.20854,0.46533 -0.46533,0.46533 h -11.16519 c -0.2568,0 -0.46533,-0.20805 -0.46533,-0.46533 v -2.32617 c 0,-0.2568 0.20853,-0.46485 0.46533,-0.46485 h 0.93018 v -3.72169 c 0,-1.90811 1.14837,-3.54744 2.79155,-4.26529 z m 2.79155,-0.29397 v -0.79116 h -1.86128 v 0.79116 c 0.30074,-0.0613 0.61207,-0.0932 0.93067,-0.0932 0.31858,0 0.62994,0.0319 0.93066,0.0932 z m -6.04786,10.60664 h 10.23443 v -1.39553 h -10.23443 z m 1.39553,-3.72169 v 1.39602 h 7.44338 v -1.39602 z m 5.11721,-0.93018 v -2.09348 c 0,-1.14837 -0.52326,-2.20741 -1.39552,-2.90598 -0.87226,0.69849 -1.39553,1.75761 -1.39553,2.90598 v 2.09348 z m -3.72168,0 v -2.09348 c 0,-1.00549 0.32197,-1.95692 0.88915,-2.73655 -1.34189,0.56236 -2.28465,1.88834 -2.28465,3.4345 v 1.39553 z m 4.65232,0 h 1.39553 v -1.39553 c 0,-1.54616 -0.94274,-2.87211 -2.28465,-3.4345 0.56719,0.77958 0.88916,1.73103 0.88916,2.73655 z"
       fill-rule="evenodd"
       id="path4379"
       style="stroke-width:0.123575" />
    <g
       id="g10167"
       transform="translate(17.223138,47.650682)">
      <path
         style="fill:none;fill-opacity:0.78012;stroke:#000000;stroke-width:0.499999;stroke-linecap:round;stroke-linejoin:bevel"
         d="M 110.06092,66.334445 H 28.713041 l 73.119049,28.448251"
         id="path1881" />
      <path
         style="fill:none;fill-opacity:0.78012;stroke:#000000;stroke-width:1;stroke-linecap:round;stroke-linejoin:bevel;stroke-dasharray:none;marker-end:url(#Arrow2)"
         id="path1986"
         sodipodi:type="arc"
         sodipodi:cx="31.053202"
         sodipodi:cy="66.842125"
         sodipodi:rx="34.090878"
         sodipodi:ry="34.090878"
         sodipodi:start="0"
         sodipodi:end="0.36012338"
         sodipodi:open="true"
         sodipodi:arc-type="arc"
         d="M 65.144079,66.842125 A 34.090878,34.090878 0 0 1 62.957264,78.855399" />
    </g>
  </g>
</svg>
