<?xml version="1.0" encoding="UTF-8" standalone="no"?>
<!-- Created with Inkscape (http://www.inkscape.org/) -->

<svg
   width="123.74884mm"
   height="53mm"
   viewBox="0 0 123.74884 53"
   version="1.1"
   id="svg1706"
   xml:space="preserve"
   inkscape:version="1.2 (dc2aeda, 2022-05-15)"
   sodipodi:docname="angle-of-elevation.svg"
   inkscape:export-filename="angle-of-elevation.png"
   inkscape:export-xdpi="96"
   inkscape:export-ydpi="96"
   xmlns:inkscape="http://www.inkscape.org/namespaces/inkscape"
   xmlns:sodipodi="http://sodipodi.sourceforge.net/DTD/sodipodi-0.dtd"
   xmlns="http://www.w3.org/2000/svg"
   xmlns:svg="http://www.w3.org/2000/svg"><sodipodi:namedview
     id="namedview1708"
     pagecolor="#ffffff"
     bordercolor="#000000"
     borderopacity="0.25"
     inkscape:showpageshadow="2"
     inkscape:pageopacity="0.0"
     inkscape:pagecheckerboard="0"
     inkscape:deskcolor="#d1d1d1"
     inkscape:document-units="mm"
     showgrid="false"
     inkscape:zoom="1.3808888"
     inkscape:cx="193.71582"
     inkscape:cy="294.37562"
     inkscape:window-width="1390"
     inkscape:window-height="847"
     inkscape:window-x="0"
     inkscape:window-y="25"
     inkscape:window-maximized="0"
     inkscape:current-layer="layer1" /><defs
     id="defs1703"><marker
       style="overflow:visible"
       id="Arrow2"
       refX="6"
       refY="0"
       orient="auto-start-reverse"
       inkscape:stockid="Arrow2"
       markerWidth="4"
       markerHeight="5"
       viewBox="0 0 7.7 5.6"
       inkscape:isstock="true"
       inkscape:collect="always"
       preserveAspectRatio="none"><path
         transform="scale(0.7)"
         d="M -2,-4 9,0 -2,4 c 2,-2.33 2,-5.66 0,-8 z"
         style="fill:context-stroke;fill-rule:evenodd;stroke:none"
         id="arrow2L" /></marker></defs><g
     inkscape:label="Layer 1"
     inkscape:groupmode="layer"
     id="layer1"
     transform="translate(-16.493572,-60.788794)"><path
       style="fill:none;fill-opacity:0.78012;stroke:#000000;stroke-width:0.499999;stroke-linecap:round;stroke-linejoin:bevel"
       d="M 107.26751,97.096816 H 25.91963 L 99.038683,68.648568"
       id="path1881" /><path
       style="fill:none;fill-opacity:0.78012;stroke:#000000;stroke-width:1;stroke-linecap:round;stroke-linejoin:bevel;stroke-dasharray:none;marker-end:url(#Arrow2)"
       id="path1986"
       transform="scale(1,-1)"
       sodipodi:type="arc"
       sodipodi:cx="26.154739"
       sodipodi:cy="-96.861702"
       sodipodi:rx="34.090878"
       sodipodi:ry="34.090878"
       sodipodi:start="0"
       sodipodi:end="0.36012338"
       sodipodi:open="true"
       sodipodi:arc-type="arc"
       d="m 60.245617,-96.861702 a 34.090878,34.090878 0 0 1 -2.186816,12.013274" /><path
       d="m 140.13156,66.944624 h -2.68718 c -0.0179,0 -0.0455,0.01 -0.0634,0.0179 l -1.08313,0.66421 c 0.92604,-1.76527 2.17177,-4.01426 2.17593,-4.04178 0.0276,-0.0358 0.0276,-0.0772 0,-0.10335 -0.0179,-0.0358 -0.0537,-0.0537 -0.0854,-0.0537 h -2.5921 c -0.0276,0 -0.0537,0.01 -0.0675,0.0179 l -5.80707,4.71276 c -2.38813,-0.37483 -4.75968,-0.73586 -7.06261,-1.05696 l 10.36849,-6.11434 c 0.0455,-0.0276 0.0717,-0.0772 0.0537,-0.12127 -0.01,-0.0537 -0.0537,-0.0772 -0.10335,-0.0772 h -2.27651 l -14.54926,5.43772 c -4.88104,-0.60495 -8.33155,-0.89437 -9.25618,-0.76345 -0.89436,0.13091 -2.64171,1.07488 -2.86219,1.47175 v 0.01 h -0.01 c -0.20258,0.38446 -0.12127,0.86677 0.20257,1.18374 0.27147,0.25356 0.50574,0.34314 0.58706,0.37483 0.79512,0.27974 1.60267,0.48369 2.14421,0.60494 l 5.25568,0.83097 6.73876,7.25135 c 0.0276,0.0276 0.0537,0.0358 0.0854,0.0358 h 2.20348 c 0.0358,0 0.0634,-0.01 0.0854,-0.0358 0.0179,-0.0276 0.0276,-0.0634 0.0179,-0.0951 l -1.42629,-5.77532 5.16078,0.62699 c 0.25356,0.0179 0.66421,0.0455 1.192,0.0537 1.63435,0.0537 2.88562,-0.0358 3.64914,-0.12126 0.21221,-0.0276 1.02524,-0.12127 2.0326,-0.25356 l 2.12629,1.8645 c 0.0179,0.0179 0.0455,0.0276 0.0717,0.0276 h 1.59439 c 0.0276,0 0.0634,-0.0179 0.0772,-0.0455 0.0275,-0.0276 0.0358,-0.0634 0.0275,-0.0854 l -0.4203,-2.19523 c 0.75378,-0.10336 1.27745,-0.17639 1.305,-0.17639 0.0276,-0.01 0.22599,-0.0951 0.27974,-0.25356 0.0276,-0.0772 0.0179,-0.15848 -0.0275,-0.226 -0.0537,-0.0951 -0.26183,-0.20257 -0.76345,-0.40238 l 3.78001,-2.99448 c 0.0358,-0.0276 0.0455,-0.0717 0.0358,-0.113 -0.0221,-0.0496 -0.0634,-0.0813 -0.10748,-0.0813 z"
       id="path2040"
       style="stroke-width:0.352778" /><g
       id="g2235"
       transform="matrix(0.19880069,0,0,0.19880069,9.3723981,88.53431)"><path
         d="m 71.066,42.027 c 0,3.9062 -3.1641,7.0664 -7.0664,7.0664 -3.9023,0 -7.0664,-3.1602 -7.0664,-7.0664 0,-3.9023 3.1641,-7.0664 7.0664,-7.0664 3.9023,0 7.0664,3.1641 7.0664,7.0664"
         id="path2231" /><path
         d="M 79.648,67.465 71.2378,52.43 c -0.5,-0.89453 -1.3711,-1.4297 -2.25,-1.4766 v -0.01172 h -9.9727 v 0.01172 c -0.87891,0.04687 -1.75,0.58203 -2.25,1.4766 l -8.4102,15.035 c -0.74219,1.3281 -0.38672,2.9414 0.80078,3.6055 1.1875,0.66406 2.75,0.125 3.4922,-1.2031 l 3.6719,-6.5664 v 6.6914 c 0,0.32422 0.03516,0.63672 0.09766,0.94141 -0.0625,0.24219 -0.09766,0.48828 -0.09766,0.75 v 18.129 c 0,1.7812 1.4453,3.2266 3.2266,3.2266 1.7813,0 3.2266,-1.4453 3.2266,-3.2266 v -15.211 h 2.457 v 15.211 c 0,1.7812 1.4453,3.2266 3.2266,3.2266 1.7813,0 3.2266,-1.4453 3.2266,-3.2266 v -18.129 c 0,-0.26172 -0.03906,-0.50781 -0.09766,-0.75 0.0625,-0.30078 0.09766,-0.61719 0.09766,-0.94141 V 63.301 l 3.6719,6.5664 c 0.74219,1.3281 2.3047,1.8672 3.4922,1.2031 1.1836,-0.66406 1.5391,-2.2773 0.80078,-3.6055 z"
         id="path2233" /></g><rect
       style="fill:#999999;fill-opacity:0.78012;stroke:none;stroke-width:0.418669;stroke-linecap:round;stroke-linejoin:bevel"
       id="rect2444"
       width="121.58464"
       height="5.911119"
       x="16.493572"
       y="107.80675"
       rx="0"
       ry="0" /></g></svg>
