<svg width="864" height="288" xmlns="http://www.w3.org/2000/svg" xmlns:xlink="http://www.w3.org/1999/xlink" xml:space="preserve" overflow="hidden"><defs><clipPath id="clip0"><rect x="24" y="0" width="864" height="288"/></clipPath><clipPath id="clip1"><rect x="99" y="87" width="764" height="114"/></clipPath><clipPath id="clip2"><rect x="99" y="87" width="764" height="114"/></clipPath><clipPath id="clip3"><rect x="99" y="87" width="764" height="114"/></clipPath><clipPath id="clip4"><rect x="99" y="87" width="764" height="114"/></clipPath></defs><g clip-path="url(#clip0)" transform="translate(-24 0)"><path d="M99.0867 200.241 862.08 200.241 862.08 87.7585 99.0867 87.7585Z" fill="#FFFFFF" fill-rule="nonzero" fill-opacity="1"/><path d="M99.0867 195.128 87.0867 195.128" stroke="#000000" stroke-width="2.5" stroke-linecap="butt" stroke-linejoin="round" stroke-miterlimit="4" stroke-opacity="1" fill="none" fill-rule="nonzero"/><path d="M2.33063 7.81 16.1012 7.81 16.1012 5.98469 2.33063 5.98469 2.33063 7.81Z" fill="#000000" fill-rule="nonzero" fill-opacity="1" transform="matrix(1 0 0 -1 49.9872 203.487)"/><path d="M2.72937 1.82531 6.27344 1.82531 6.27344 14.0628 2.41656 13.2894 2.41656 15.2659 6.25281 16.0394 8.42188 16.0394 8.42188 1.82531 11.9659 1.82531 11.9659 0 2.72937 0 2.72937 1.82531Z" fill="#000000" fill-rule="nonzero" fill-opacity="1" transform="matrix(1 0 0 -1 68.4208 203.487)"/><path d="M99.0867 92.8713 87.0867 92.8713" stroke="#000000" stroke-width="2.5" stroke-linecap="butt" stroke-linejoin="round" stroke-miterlimit="4" stroke-opacity="1" fill="none" fill-rule="nonzero"/><path d="M2.72937 1.82531 6.27344 1.82531 6.27344 14.0628 2.41656 13.2894 2.41656 15.2659 6.25281 16.0394 8.42188 16.0394 8.42188 1.82531 11.9659 1.82531 11.9659 0 2.72937 0 2.72937 1.82531Z" fill="#000000" fill-rule="nonzero" fill-opacity="1" transform="matrix(1 0 0 -1 68.4225 101.23)"/><g clip-path="url(#clip1)"><path d="M133.768 144 827.399 144" stroke="#000000" stroke-width="1.33333" stroke-linecap="butt" stroke-linejoin="round" stroke-miterlimit="4" stroke-opacity="1" fill="none" fill-rule="nonzero"/></g><g clip-path="url(#clip2)"><path d="M159.332 195.128 159.332 92.8713" stroke="#000000" stroke-width="1.33333" stroke-linecap="butt" stroke-linejoin="round" stroke-miterlimit="4" stroke-opacity="1" fill="none" fill-rule="nonzero"/></g><g clip-path="url(#clip3)"><path d="M133.768 168.512 140.775 162.153 147.781 155.453 154.787 148.539 161.793 141.54 168.8 134.587 175.807 127.81 182.813 121.336 189.819 115.288 196.825 109.778 203.832 104.91 210.839 100.774 217.844 97.4491 224.851 94.9968 231.857 93.4633 238.864 92.8773 245.871 93.2499 252.876 94.5739 259.883 96.8245 266.889 99.9597 273.896 103.921 280.901 108.633 287.908 114.008 294.915 119.946 301.921 126.335 308.928 133.055 315.933 139.98 322.94 146.98 329.947 153.925 336.953 160.684 343.959 167.129 350.965 173.141 357.972 178.607 364.979 183.424 371.984 187.501 378.991 190.764 385.997 193.149 393.004 194.613 400.011 195.128 407.016 194.684 414.023 193.291 421.029 190.972 428.036 187.773 435.041 183.753 442.048 178.989 449.055 173.568 456.061 167.593 463.068 161.175 470.073 154.436 477.08 147.5 484.087 140.5 491.093 133.564 498.099 126.825 505.105 120.407 512.112 114.432 519.119 109.011 526.125 104.246 533.131 100.227 540.137 97.0279 547.144 94.7097 554.151 93.3157 561.156 92.872 568.163 93.3869 575.169 94.8507 582.176 97.236 589.183 100.498 596.188 104.576 603.195 109.393 610.201 114.859 617.208 120.871 624.213 127.316 631.22 134.075 638.227 141.02 645.233 148.02 652.239 154.945 659.245 161.665 666.252 168.053 673.259 173.992 680.265 179.367 687.271 184.08 694.277 188.04 701.284 191.176 708.291 193.427 715.296 194.751 722.303 195.123 729.309 194.537 736.316 193.003 743.323 190.551 750.328 187.225 757.335 183.091 764.341 178.221 771.348 172.712 778.353 166.664 785.36 160.191 792.367 153.413 799.373 146.46 806.38 139.461 813.385 132.546 820.392 125.847 827.399 119.488" stroke="#808080" stroke-width="3" stroke-linecap="square" stroke-linejoin="round" stroke-miterlimit="4" stroke-opacity="1" fill="none" fill-rule="nonzero"/></g><g clip-path="url(#clip4)"><path d="M159.332 150C160.923 150 162.449 149.368 163.575 148.243 164.7 147.117 165.332 145.591 165.332 144 165.332 142.409 164.7 140.883 163.575 139.757 162.449 138.632 160.923 138 159.332 138 157.741 138 156.215 138.632 155.089 139.757 153.964 140.883 153.332 142.409 153.332 144 153.332 145.591 153.964 147.117 155.089 148.243 156.215 149.368 157.741 150 159.332 150Z" stroke="#000000" stroke-width="1.33333" stroke-linecap="butt" stroke-linejoin="round" stroke-miterlimit="4" stroke-opacity="1" fill="#000000" fill-rule="nonzero" fill-opacity="1"/><path d="M319.957 150C321.549 150 323.075 149.368 324.2 148.243 325.325 147.117 325.957 145.591 325.957 144 325.957 142.409 325.325 140.883 324.2 139.757 323.075 138.632 321.549 138 319.957 138 318.366 138 316.84 138.632 315.715 139.757 314.59 140.883 313.957 142.409 313.957 144 313.957 145.591 314.59 147.117 315.715 148.243 316.84 149.368 318.366 150 319.957 150Z" stroke="#000000" stroke-width="1.33333" stroke-linecap="butt" stroke-linejoin="round" stroke-miterlimit="4" stroke-opacity="1" fill="#000000" fill-rule="nonzero" fill-opacity="1"/><path d="M480.584 150C482.175 150 483.702 149.368 484.827 148.243 485.952 147.117 486.584 145.591 486.584 144 486.584 142.409 485.952 140.883 484.827 139.757 483.702 138.632 482.175 138 480.584 138 478.993 138 477.467 138.632 476.341 139.757 475.216 140.883 474.584 142.409 474.584 144 474.584 145.591 475.216 147.117 476.341 148.243 477.467 149.368 478.993 150 480.584 150Z" stroke="#000000" stroke-width="1.33333" stroke-linecap="butt" stroke-linejoin="round" stroke-miterlimit="4" stroke-opacity="1" fill="#000000" fill-rule="nonzero" fill-opacity="1"/><path d="M641.209 150C642.801 150 644.327 149.368 645.452 148.243 646.577 147.117 647.209 145.591 647.209 144 647.209 142.409 646.577 140.883 645.452 139.757 644.327 138.632 642.801 138 641.209 138 639.618 138 638.092 138.632 636.967 139.757 635.842 140.883 635.209 142.409 635.209 144 635.209 145.591 635.842 147.117 636.967 148.243 638.092 149.368 639.618 150 641.209 150Z" stroke="#000000" stroke-width="1.33333" stroke-linecap="butt" stroke-linejoin="round" stroke-miterlimit="4" stroke-opacity="1" fill="#000000" fill-rule="nonzero" fill-opacity="1"/><path d="M801.835 150C803.426 150 804.952 149.368 806.077 148.243 807.202 147.117 807.835 145.591 807.835 144 807.835 142.409 807.202 140.883 806.077 139.757 804.952 138.632 803.426 138 801.835 138 800.243 138 798.717 138.632 797.592 139.757 796.467 140.883 795.835 142.409 795.835 144 795.835 145.591 796.467 147.117 797.592 148.243 798.717 149.368 800.243 150 801.835 150Z" stroke="#000000" stroke-width="1.33333" stroke-linecap="butt" stroke-linejoin="round" stroke-miterlimit="4" stroke-opacity="1" fill="#000000" fill-rule="nonzero" fill-opacity="1"/></g><path d="M5.085 10.625C4.27332 10.625 3.6625 10.225 3.2525 9.425 2.84418 8.62667 2.64 7.425 2.64 5.82 2.64 4.22167 2.84418 3.0225 3.2525 2.2225 3.6625 1.4225 4.27332 1.0225 5.085 1.0225 5.90333 1.0225 6.51667 1.4225 6.925 2.2225 7.335 3.0225 7.54 4.22167 7.54 5.82 7.54 7.425 7.335 8.62667 6.925 9.425 6.51667 10.225 5.90333 10.625 5.085 10.625ZM5.085 11.875C6.39332 11.875 7.3925 11.3575 8.0825 10.3225 8.7725 9.28918 9.1175 7.78832 9.1175 5.82 9.1175 3.85667 8.7725 2.3575 8.0825 1.3225 7.3925 0.289167 6.39332-0.2275 5.085-0.2275 3.77832-0.2275 2.78 0.289167 2.09 1.3225 1.4 2.3575 1.055 3.85667 1.055 5.82 1.055 7.78832 1.4 9.28918 2.09 10.3225 2.78 11.3575 3.77832 11.875 5.085 11.875Z" fill="#000000" fill-rule="nonzero" fill-opacity="1" transform="matrix(1 0 0 -1 175.332 138.667)"/><path d="M1.46 8.75 9.845 8.75 9.5625 7.3125 8.46 7.3125 7.415 1.9375C7.34167 1.5625 7.35417 1.29167 7.4525 1.125 7.5475 0.963332 7.7375 0.8825 8.0225 0.8825 8.10083 0.8825 8.1975 0.890832 8.3125 0.9075 8.4325 0.9175 8.51083 0.925 8.5475 0.93L8.345-0.11C8.15167-0.176667 7.95582-0.225833 7.7575-0.2575 7.55417-0.289167 7.35667-0.305 7.165-0.305 6.54-0.305 6.14167-0.135833 5.97 0.2025 5.79667 0.5475 5.79917 1.17833 5.9775 2.095L6.9925 7.3125 3.765 7.3125 2.345 0 0.875 0 2.2975 7.3125 1.18 7.3125 1.46 8.75Z" fill="#000000" fill-rule="nonzero" fill-opacity="1" transform="matrix(1 0 0 -1 335.957 138.617)"/><path d="M3.07 1.3275 8.5775 1.3275 8.5775 0 1.1725 0 1.1725 1.3275C1.77083 1.9475 2.58668 2.77918 3.62 3.8225 4.655 4.8675 5.305 5.54167 5.57 5.845 6.075 6.41167 6.4275 6.89167 6.6275 7.285 6.82917 7.67833 6.93 8.065 6.93 8.445 6.93 9.065 6.7125 9.57 6.2775 9.96 5.8425 10.3517 5.27583 10.5475 4.5775 10.5475 4.0825 10.5475 3.56 10.4617 3.01 10.29 2.46167 10.1183 1.875 9.8575 1.25 9.5075L1.25 11.1025C1.885 11.3575 2.47833 11.55 3.03 11.68 3.58332 11.81 4.08918 11.875 4.5475 11.875 5.75583 11.875 6.71917 11.5725 7.4375 10.9675 8.15582 10.3642 8.515 9.5575 8.515 8.5475 8.515 8.0675 8.425 7.6125 8.245 7.1825 8.06667 6.75417 7.74 6.24832 7.265 5.665 7.135 5.51333 6.72083 5.07667 6.0225 4.355 5.32583 3.63332 4.34167 2.62418 3.07 1.3275Z" fill="#000000" fill-rule="nonzero" fill-opacity="1" transform="matrix(1 0 0 -1 496.584 138.542)"/><path d="M1.46 8.75 9.845 8.75 9.5625 7.3125 8.46 7.3125 7.415 1.9375C7.34167 1.5625 7.35417 1.29167 7.4525 1.125 7.5475 0.963332 7.7375 0.8825 8.0225 0.8825 8.10083 0.8825 8.1975 0.890832 8.3125 0.9075 8.4325 0.9175 8.51083 0.925 8.5475 0.93L8.345-0.11C8.15167-0.176667 7.95582-0.225833 7.7575-0.2575 7.55417-0.289167 7.35667-0.305 7.165-0.305 6.54-0.305 6.14167-0.135833 5.97 0.2025 5.79667 0.5475 5.79917 1.17833 5.9775 2.095L6.9925 7.3125 3.765 7.3125 2.345 0 0.875 0 2.2975 7.3125 1.18 7.3125 1.46 8.75Z" fill="#000000" fill-rule="nonzero" fill-opacity="1" transform="matrix(1 0 0 -1 506.764 138.542)"/><path d="M6.4925 6.29C7.2475 6.12832 7.83667 5.79167 8.26 5.28 8.685 4.77 8.8975 4.14 8.8975 3.39 8.8975 2.24 8.50167 1.34917 7.71 0.7175 6.91832 0.0875 5.79332-0.2275 4.335-0.2275 3.84667-0.2275 3.34332-0.179167 2.825-0.0825 2.30667 0.0141667 1.77167 0.159167 1.22 0.3525L1.22 1.875C1.65667 1.62 2.135 1.4275 2.655 1.2975 3.17668 1.1675 3.72167 1.1025 4.29 1.1025 5.27833 1.1025 6.03167 1.2975 6.55 1.6875 7.06833 2.0775 7.3275 2.645 7.3275 3.39 7.3275 4.07832 7.08667 4.61582 6.605 5.0025 6.12332 5.39083 5.45333 5.585 4.595 5.585L3.235 5.585 3.235 6.8825 4.6575 6.8825C5.4325 6.8825 6.02583 7.0375 6.4375 7.3475 6.84917 7.6575 7.055 8.10417 7.055 8.6875 7.055 9.28582 6.8425 9.745 6.4175 10.065 5.99417 10.3867 5.38667 10.5475 4.595 10.5475 4.16167 10.5475 3.6975 10.5 3.2025 10.405 2.7075 10.3117 2.16333 10.1667 1.57 9.97L1.57 11.375C2.17 11.5417 2.73168 11.6667 3.255 11.75 3.77832 11.8333 4.27168 11.875 4.735 11.875 5.93333 11.875 6.88083 11.6025 7.5775 11.0575 8.27582 10.5142 8.625 9.77917 8.625 8.8525 8.625 8.20582 8.44 7.66 8.07 7.215 7.7 6.77 7.17417 6.46167 6.4925 6.29Z" fill="#000000" fill-rule="nonzero" fill-opacity="1" transform="matrix(1 0 0 -1 657.209 138.542)"/><path d="M1.46 8.75 9.845 8.75 9.5625 7.3125 8.46 7.3125 7.415 1.9375C7.34167 1.5625 7.35417 1.29167 7.4525 1.125 7.5475 0.963332 7.7375 0.8825 8.0225 0.8825 8.10083 0.8825 8.1975 0.890832 8.3125 0.9075 8.4325 0.9175 8.51083 0.925 8.5475 0.93L8.345-0.11C8.15167-0.176667 7.95582-0.225833 7.7575-0.2575 7.55417-0.289167 7.35667-0.305 7.165-0.305 6.54-0.305 6.14167-0.135833 5.97 0.2025 5.79667 0.5475 5.79917 1.17833 5.9775 2.095L6.9925 7.3125 3.765 7.3125 2.345 0 0.875 0 2.2975 7.3125 1.18 7.3125 1.46 8.75Z" fill="#000000" fill-rule="nonzero" fill-opacity="1" transform="matrix(1 0 0 -1 667.389 138.542)"/><path d="M6.0475 10.29 2.0625 4.0625 6.0475 4.0625 6.0475 10.29ZM5.6325 11.665 7.6175 11.665 7.6175 4.0625 9.2825 4.0625 9.2825 2.75 7.6175 2.75 7.6175 0 6.0475 0 6.0475 2.75 0.7825 2.75 0.7825 4.2725 5.6325 11.665Z" fill="#000000" fill-rule="nonzero" fill-opacity="1" transform="matrix(1 0 0 -1 817.835 138.652)"/><path d="M1.46 8.75 9.845 8.75 9.5625 7.3125 8.46 7.3125 7.415 1.9375C7.34167 1.5625 7.35417 1.29167 7.4525 1.125 7.5475 0.963332 7.7375 0.8825 8.0225 0.8825 8.10083 0.8825 8.1975 0.890832 8.3125 0.9075 8.4325 0.9175 8.51083 0.925 8.5475 0.93L8.345-0.11C8.15167-0.176667 7.95582-0.225833 7.7575-0.2575 7.55417-0.289167 7.35667-0.305 7.165-0.305 6.54-0.305 6.14167-0.135833 5.97 0.2025 5.79667 0.5475 5.79917 1.17833 5.9775 2.095L6.9925 7.3125 3.765 7.3125 2.345 0 0.875 0 2.2975 7.3125 1.18 7.3125 1.46 8.75Z" fill="#000000" fill-rule="nonzero" fill-opacity="1" transform="matrix(1 0 0 -1 828.014 138.652)"/><path d="M9.5225 1.665 9.5225 4.7975 6.945 4.7975 6.945 6.095 11.085 6.095 11.085 1.085C10.4767 0.653333 9.805 0.326668 9.07 0.105 8.33667-0.116667 7.55333-0.2275 6.72-0.2275 4.89668-0.2275 3.47 0.305 2.44 1.37 1.41167 2.43667 0.8975 3.92 0.8975 5.82 0.8975 7.72667 1.41167 9.2125 2.44 10.2775 3.47 11.3425 4.89668 11.875 6.72 11.875 7.48 11.875 8.2025 11.7808 8.8875 11.5925 9.5725 11.4058 10.2042 11.13 10.7825 10.765L10.7825 9.085C10.1992 9.58 9.57917 9.9525 8.9225 10.2025 8.26583 10.4525 7.57583 10.5775 6.8525 10.5775 5.42417 10.5775 4.35168 10.1792 3.635 9.3825 2.92 8.58582 2.5625 7.39832 2.5625 5.82 2.5625 4.24668 2.92 3.06168 3.635 2.265 4.35168 1.46833 5.42417 1.07 6.8525 1.07 7.40917 1.07 7.90583 1.11833 8.3425 1.215 8.78082 1.31167 9.17417 1.46167 9.5225 1.665Z" fill="#000000" fill-rule="nonzero" fill-opacity="1" transform="matrix(1 0 0 -1 752.32 79.756)"/><path d="M6.5775 7.4075C6.41582 7.50082 6.24 7.56917 6.05 7.6125 5.86 7.6575 5.65083 7.68 5.4225 7.68 4.60918 7.68 3.985 7.41582 3.55 6.8875 3.115 6.35917 2.8975 5.6 2.8975 4.61L2.8975 0 1.4525 0 1.4525 8.75 2.8975 8.75 2.8975 7.39C3.20082 7.92167 3.59418 8.31583 4.0775 8.5725 4.5625 8.83082 5.15167 8.96 5.845 8.96 5.94333 8.96 6.0525 8.95333 6.1725 8.94 6.2925 8.92832 6.425 8.90917 6.57 8.8825L6.5775 7.4075Z" fill="#000000" fill-rule="nonzero" fill-opacity="1" transform="matrix(1 0 0 -1 764.718 79.756)"/><path d="M5.485 4.3975C4.32332 4.3975 3.51832 4.265 3.07 4 2.62168 3.735 2.3975 3.28168 2.3975 2.64 2.3975 2.13 2.56582 1.725 2.9025 1.425 3.23918 1.12667 3.69582 0.9775 4.2725 0.9775 5.07082 0.9775 5.71082 1.26 6.1925 1.825 6.67417 2.39 6.915 3.14082 6.915 4.0775L6.915 4.3975 5.485 4.3975ZM8.3525 4.9925 8.3525 0 6.915 0 6.915 1.3275C6.58667 0.7975 6.1775 0.405832 5.6875 0.1525 5.1975-0.100833 4.59832-0.2275 3.89-0.2275 2.995-0.2275 2.2825 0.0241667 1.7525 0.5275 1.22417 1.03083 0.96 1.70417 0.96 2.5475 0.96 3.53082 1.28917 4.2725 1.9475 4.7725 2.6075 5.2725 3.59082 5.5225 4.8975 5.5225L6.915 5.5225 6.915 5.665C6.915 6.32667 6.6975 6.83833 6.2625 7.2 5.8275 7.56167 5.21667 7.7425 4.43 7.7425 3.93 7.7425 3.4425 7.6825 2.9675 7.5625 2.49417 7.4425 2.03917 7.2625 1.6025 7.0225L1.6025 8.3525C2.1275 8.55583 2.6375 8.7075 3.1325 8.8075 3.6275 8.90917 4.10918 8.96 4.5775 8.96 5.84417 8.96 6.79 8.63167 7.415 7.975 8.04 7.32 8.3525 6.32583 8.3525 4.9925Z" fill="#000000" fill-rule="nonzero" fill-opacity="1" transform="matrix(1 0 0 -1 771.297 79.756)"/><path d="M2.8975 1.3125 2.8975-3.3275 1.4525-3.3275 1.4525 8.75 2.8975 8.75 2.8975 7.4225C3.20082 7.9425 3.5825 8.32833 4.0425 8.58 4.50418 8.83333 5.055 8.96 5.695 8.96 6.75833 8.96 7.62167 8.53833 8.285 7.695 8.95 6.85167 9.2825 5.7425 9.2825 4.3675 9.2825 2.9925 8.95 1.8825 8.285 1.0375 7.62167 0.194167 6.75833-0.2275 5.695-0.2275 5.055-0.2275 4.50418-0.100833 4.0425 0.1525 3.5825 0.405832 3.20082 0.7925 2.8975 1.3125ZM7.79 4.3675C7.79 5.42417 7.5725 6.25332 7.1375 6.855 6.7025 7.45667 6.105 7.7575 5.345 7.7575 4.58332 7.7575 3.985 7.45667 3.55 6.855 3.115 6.25332 2.8975 5.42417 2.8975 4.3675 2.8975 3.31082 3.115 2.48167 3.55 1.88 3.985 1.27833 4.58332 0.9775 5.345 0.9775 6.105 0.9775 6.7025 1.27833 7.1375 1.88 7.5725 2.48167 7.79 3.31082 7.79 4.3675Z" fill="#000000" fill-rule="nonzero" fill-opacity="1" transform="matrix(1 0 0 -1 781.101 79.756)"/><path d="M8.7825 5.2825 8.7825 0 7.345 0 7.345 5.235C7.345 6.06332 7.18332 6.6825 6.86 7.0925 6.53667 7.50417 6.0525 7.71 5.4075 7.71 4.63082 7.71 4.01832 7.4625 3.57 6.9675 3.12168 6.47417 2.8975 5.8 2.8975 4.945L2.8975 0 1.4525 0 1.4525 12.1575 2.8975 12.1575 2.8975 7.39C3.2425 7.91667 3.6475 8.31 4.1125 8.57 4.57917 8.83 5.1175 8.96 5.7275 8.96 6.7325 8.96 7.4925 8.64917 8.0075 8.0275 8.52417 7.40583 8.7825 6.49083 8.7825 5.2825Z" fill="#000000" fill-rule="nonzero" fill-opacity="1" transform="matrix(1 0 0 -1 791.257 79.756)"/><path d="M4.8975 7.7425C4.1275 7.7425 3.51832 7.44167 3.07 6.84 2.62168 6.23833 2.3975 5.41417 2.3975 4.3675 2.3975 3.32082 2.62 2.49667 3.065 1.895 3.51168 1.29333 4.1225 0.9925 4.8975 0.9925 5.66417 0.9925 6.27082 1.29417 6.7175 1.8975 7.16582 2.5025 7.39 3.32582 7.39 4.3675 7.39 5.40417 7.16582 6.22582 6.7175 6.8325 6.27082 7.43917 5.66417 7.7425 4.8975 7.7425ZM4.8975 8.96C6.1475 8.96 7.12917 8.55332 7.8425 7.74 8.5575 6.92833 8.915 5.80417 8.915 4.3675 8.915 2.93582 8.5575 1.81167 7.8425 0.995 7.12917 0.18 6.1475-0.2275 4.8975-0.2275 3.6425-0.2275 2.65918 0.18 1.9475 0.995 1.2375 1.81167 0.8825 2.93582 0.8825 4.3675 0.8825 5.80417 1.2375 6.92833 1.9475 7.74 2.65918 8.55332 3.6425 8.96 4.8975 8.96Z" fill="#000000" fill-rule="nonzero" fill-opacity="1" transform="matrix(1 0 0 -1 806.484 79.756)"/><path d="M5.9375 12.1575 5.9375 10.96 4.5625 10.96C4.0475 10.96 3.68918 10.8558 3.4875 10.6475 3.2875 10.4392 3.1875 10.0642 3.1875 9.5225L3.1875 8.75 5.555 8.75 5.555 7.6325 3.1875 7.6325 3.1875 0 1.7425 0 1.7425 7.6325 0.3675 7.6325 0.3675 8.75 1.7425 8.75 1.7425 9.36C1.7425 10.3333 1.96917 11.0425 2.4225 11.4875 2.87582 11.9342 3.59418 12.1575 4.5775 12.1575L5.9375 12.1575Z" fill="#000000" fill-rule="nonzero" fill-opacity="1" transform="matrix(1 0 0 -1 816.273 79.756)"/><path d="M7.085 8.4925 7.085 7.1325C6.68 7.34083 6.25833 7.49667 5.82 7.6 5.38333 7.705 4.93 7.7575 4.46 7.7575 3.74668 7.7575 3.21167 7.64832 2.855 7.43 2.49833 7.21167 2.32 6.88333 2.32 6.445 2.32 6.11167 2.4475 5.85 2.7025 5.66 2.9575 5.47 3.47082 5.28917 4.2425 5.1175L4.735 5.0075C5.755 4.78918 6.48 4.48082 6.91 4.0825 7.34 3.68418 7.555 3.12832 7.555 2.415 7.555 1.60167 7.23333 0.9575 6.59 0.4825 5.94667 0.00916667 5.0625-0.2275 3.9375-0.2275 3.46918-0.2275 2.98082-0.181667 2.4725-0.09 1.96417 0.00166667 1.42917 0.138333 0.8675 0.32L0.8675 1.805C1.39917 1.52833 1.9225 1.32083 2.4375 1.1825 2.9525 1.04583 3.46332 0.9775 3.97 0.9775 4.64668 0.9775 5.16667 1.09333 5.53 1.325 5.895 1.55667 6.0775 1.88333 6.0775 2.305 6.0775 2.695 5.94583 2.99417 5.6825 3.2025 5.42083 3.41082 4.84417 3.61168 3.9525 3.805L3.4525 3.9225C2.5625 4.10918 1.91917 4.39668 1.5225 4.785 1.1275 5.17333 0.93 5.70582 0.93 6.3825 0.93 7.20582 1.22167 7.84083 1.805 8.2875 2.38833 8.73582 3.21668 8.96 4.29 8.96 4.82 8.96 5.31917 8.92083 5.7875 8.8425 6.2575 8.76583 6.69 8.64917 7.085 8.4925Z" fill="#000000" fill-rule="nonzero" fill-opacity="1" transform="matrix(1 0 0 -1 826.992 79.756)"/><path d="M1.5075 8.75 2.945 8.75 2.945 0 1.5075 0 1.5075 8.75ZM1.5075 12.1575 2.945 12.1575 2.945 10.335 1.5075 10.335 1.5075 12.1575Z" fill="#000000" fill-rule="nonzero" fill-opacity="1" transform="matrix(1 0 0 -1 835.328 79.756)"/><path d="M8.7825 5.2825 8.7825 0 7.345 0 7.345 5.235C7.345 6.06332 7.18332 6.6825 6.86 7.0925 6.53667 7.50417 6.0525 7.71 5.4075 7.71 4.63082 7.71 4.01832 7.4625 3.57 6.9675 3.12168 6.47417 2.8975 5.8 2.8975 4.945L2.8975 0 1.4525 0 1.4525 8.75 2.8975 8.75 2.8975 7.39C3.2425 7.91667 3.6475 8.31 4.1125 8.57 4.57917 8.83 5.1175 8.96 5.7275 8.96 6.7325 8.96 7.4925 8.64917 8.0075 8.0275 8.52417 7.40583 8.7825 6.49083 8.7825 5.2825Z" fill="#000000" fill-rule="nonzero" fill-opacity="1" transform="matrix(1 0 0 -1 839.773 79.756)"/><path d="M9.6025 8.75 5.585 4.46 8.0475 0 6.3975 0 4.5475 3.47 1.3275 0-0.415 0 3.89 4.61 1.6025 8.75 3.25 8.75 4.93 5.585 7.86 8.75 9.6025 8.75Z" fill="#000000" fill-rule="nonzero" fill-opacity="1" transform="matrix(1 0 0 -1 852.512 79.756)"/></g></svg>