<svg width="576" height="386" xmlns="http://www.w3.org/2000/svg" xmlns:xlink="http://www.w3.org/1999/xlink" xml:space="preserve" overflow="hidden"><defs><clipPath id="clip0"><rect x="704" y="342" width="576" height="386"/></clipPath><clipPath id="clip1"><rect x="704" y="343" width="576" height="384"/></clipPath><clipPath id="clip2"><rect x="704" y="343" width="576" height="384"/></clipPath><clipPath id="clip3"><rect x="704" y="343" width="576" height="384"/></clipPath><clipPath id="clip4"><rect x="743" y="392" width="508" height="270"/></clipPath><clipPath id="clip5"><rect x="743" y="392" width="508" height="270"/></clipPath><clipPath id="clip6"><rect x="743" y="392" width="508" height="270"/></clipPath><clipPath id="clip7"><rect x="743" y="392" width="508" height="270"/></clipPath><clipPath id="clip8"><rect x="743" y="392" width="508" height="270"/></clipPath><clipPath id="clip9"><rect x="743" y="392" width="508" height="270"/></clipPath><clipPath id="clip10"><rect x="743" y="392" width="508" height="270"/></clipPath><clipPath id="clip11"><rect x="743" y="392" width="508" height="270"/></clipPath><clipPath id="clip12"><rect x="743" y="392" width="508" height="270"/></clipPath></defs><g clip-path="url(#clip0)" transform="translate(-704 -342)"><g clip-path="url(#clip1)"><g clip-path="url(#clip2)"><g clip-path="url(#clip3)"><path d="M743.006 661.747 1250.21 661.747 1250.21 392.92 743.006 392.92Z" fill="#FFFFFF" fill-rule="nonzero" fill-opacity="1"/><path d="M766.061 661.747 766.061 673.747" stroke="#000000" stroke-width="2.5" stroke-linecap="butt" stroke-linejoin="round" stroke-miterlimit="4" stroke-opacity="1" fill="none" fill-rule="nonzero"/><path d="M2.33063 7.81 16.1012 7.81 16.1012 5.98469 2.33063 5.98469 2.33063 7.81Z" fill="#000000" fill-rule="nonzero" fill-opacity="1" transform="matrix(1 0 0 -1 732.841 694.957)"/><path d="M8.92719 8.64875C9.96531 8.42645 10.7754 7.96355 11.3575 7.26 11.9419 6.55875 12.2341 5.6925 12.2341 4.66125 12.2341 3.08 11.6898 1.85511 10.6012 0.986562 9.5127 0.120312 7.96582-0.312813 5.96063-0.312813 5.28918-0.312813 4.59707-0.246354 3.88438-0.113437 3.17167 0.0194792 2.43604 0.218854 1.6775 0.484688L1.6775 2.57812C2.27792 2.2275 2.93563 1.96281 3.65062 1.78406 4.36793 1.60531 5.1173 1.51594 5.89875 1.51594 7.2577 1.51594 8.29355 1.78406 9.00625 2.32031 9.71895 2.85656 10.0753 3.63687 10.0753 4.66125 10.0753 5.6077 9.74418 6.34676 9.08187 6.87844 8.41957 7.41238 7.49832 7.67938 6.31812 7.67938L4.44812 7.67938 4.44812 9.46344 6.40406 9.46344C7.46969 9.46344 8.28551 9.67656 8.85156 10.1028 9.41761 10.5291 9.70063 11.1432 9.70063 11.9453 9.70063 12.768 9.40844 13.3994 8.82406 13.8394 8.24199 14.2817 7.40668 14.5028 6.31812 14.5028 5.7223 14.5028 5.08406 14.4375 4.40344 14.3069 3.72281 14.1786 2.97458 13.9792 2.15875 13.7087L2.15875 15.6406C2.98375 15.8698 3.75605 16.0417 4.47563 16.1562 5.1952 16.2708 5.87355 16.3281 6.51062 16.3281 8.15832 16.3281 9.46113 15.9534 10.4191 15.2041 11.3793 14.457 11.8594 13.4464 11.8594 12.1722 11.8594 11.283 11.605 10.5325 11.0962 9.92062 10.5875 9.30875 9.86449 8.8848 8.92719 8.64875Z" fill="#000000" fill-rule="nonzero" fill-opacity="1" transform="matrix(1 0 0 -1 751.275 694.957)"/><path d="M2.0075 12.0312 13.5369 12.0312 13.1484 10.0547 11.6325 10.0547 10.1956 2.66406C10.0948 2.14844 10.112 1.77604 10.2472 1.54688 10.3778 1.32458 10.6391 1.21344 11.0309 1.21344 11.1386 1.21344 11.2716 1.22489 11.4297 1.24781 11.5947 1.26156 11.7024 1.27188 11.7528 1.27875L11.4744-0.15125C11.2086-0.242917 10.9393-0.310521 10.6666-0.354062 10.387-0.397605 10.1154-0.419375 9.85188-0.419375 8.9925-0.419375 8.4448-0.186771 8.20875 0.278437 7.97043 0.752813 7.97387 1.62021 8.21906 2.88063L9.61469 10.0547 5.17688 10.0547 3.22438 0 1.20312 0 3.15906 10.0547 1.6225 10.0547 2.0075 12.0312Z" fill="#000000" fill-rule="nonzero" fill-opacity="1" transform="matrix(1 0 0 -1 765.272 694.957)"/><path d="M5.58594 16.0394 7.41125 16.0394 1.82531-2.04187 0-2.04187 5.58594 16.0394Z" fill="#000000" fill-rule="nonzero" fill-opacity="1" transform="matrix(1 0 0 -1 778.517 694.957)"/><path d="M4.22125 1.82531 11.7941 1.82531 11.7941 0 1.61219 0 1.61219 1.82531C2.43489 2.67781 3.55668 3.82137 4.9775 5.25594 6.40062 6.69281 7.29437 7.6198 7.65875 8.03687 8.35312 8.81605 8.83781 9.47605 9.11281 10.0169 9.39012 10.5577 9.52875 11.0894 9.52875 11.6119 9.52875 12.4644 9.22969 13.1587 8.63156 13.695 8.03344 14.2336 7.25426 14.5028 6.29406 14.5028 5.61344 14.5028 4.895 14.3848 4.13875 14.1488 3.38479 13.9127 2.57812 13.5541 1.71875 13.0728L1.71875 15.2659C2.59188 15.6166 3.40771 15.8813 4.16625 16.06 4.92707 16.2388 5.62262 16.3281 6.25281 16.3281 7.91426 16.3281 9.23886 15.9122 10.2266 15.0803 11.2143 14.2507 11.7081 13.1416 11.7081 11.7528 11.7081 11.0928 11.5844 10.4672 11.3369 9.87594 11.0917 9.28699 10.6425 8.59145 9.98938 7.78937 9.81063 7.58082 9.24113 6.98043 8.28094 5.98812 7.32301 4.99582 5.9698 3.60824 4.22125 1.82531Z" fill="#000000" fill-rule="nonzero" fill-opacity="1" transform="matrix(1 0 0 -1 785.132 694.957)"/><path d="M919.759 661.747 919.759 673.747" stroke="#000000" stroke-width="2.5" stroke-linecap="butt" stroke-linejoin="round" stroke-miterlimit="4" stroke-opacity="1" fill="none" fill-rule="nonzero"/><path d="M2.33063 7.81 16.1012 7.81 16.1012 5.98469 2.33063 5.98469 2.33063 7.81Z" fill="#000000" fill-rule="nonzero" fill-opacity="1" transform="matrix(1 0 0 -1 893.579 694.957)"/><path d="M2.0075 12.0312 13.5369 12.0312 13.1484 10.0547 11.6325 10.0547 10.1956 2.66406C10.0948 2.14844 10.112 1.77604 10.2472 1.54688 10.3778 1.32458 10.6391 1.21344 11.0309 1.21344 11.1386 1.21344 11.2716 1.22489 11.4297 1.24781 11.5947 1.26156 11.7024 1.27188 11.7528 1.27875L11.4744-0.15125C11.2086-0.242917 10.9393-0.310521 10.6666-0.354062 10.387-0.397605 10.1154-0.419375 9.85188-0.419375 8.9925-0.419375 8.4448-0.186771 8.20875 0.278437 7.97043 0.752813 7.97387 1.62021 8.21906 2.88063L9.61469 10.0547 5.17688 10.0547 3.22438 0 1.20312 0 3.15906 10.0547 1.6225 10.0547 2.0075 12.0312Z" fill="#000000" fill-rule="nonzero" fill-opacity="1" transform="matrix(1 0 0 -1 912.012 694.957)"/><path d="M5.58594 16.0394 7.41125 16.0394 1.82531-2.04187 0-2.04187 5.58594 16.0394Z" fill="#000000" fill-rule="nonzero" fill-opacity="1" transform="matrix(1 0 0 -1 925.257 694.957)"/><path d="M4.22125 1.82531 11.7941 1.82531 11.7941 0 1.61219 0 1.61219 1.82531C2.43489 2.67781 3.55668 3.82137 4.9775 5.25594 6.40062 6.69281 7.29437 7.6198 7.65875 8.03687 8.35312 8.81605 8.83781 9.47605 9.11281 10.0169 9.39012 10.5577 9.52875 11.0894 9.52875 11.6119 9.52875 12.4644 9.22969 13.1587 8.63156 13.695 8.03344 14.2336 7.25426 14.5028 6.29406 14.5028 5.61344 14.5028 4.895 14.3848 4.13875 14.1488 3.38479 13.9127 2.57812 13.5541 1.71875 13.0728L1.71875 15.2659C2.59188 15.6166 3.40771 15.8813 4.16625 16.06 4.92707 16.2388 5.62262 16.3281 6.25281 16.3281 7.91426 16.3281 9.23886 15.9122 10.2266 15.0803 11.2143 14.2507 11.7081 13.1416 11.7081 11.7528 11.7081 11.0928 11.5844 10.4672 11.3369 9.87594 11.0917 9.28699 10.6425 8.59145 9.98938 7.78937 9.81063 7.58082 9.24113 6.98043 8.28094 5.98812 7.32301 4.99582 5.9698 3.60824 4.22125 1.82531Z" fill="#000000" fill-rule="nonzero" fill-opacity="1" transform="matrix(1 0 0 -1 931.872 694.957)"/><path d="M1073.46 661.747 1073.46 673.747" stroke="#000000" stroke-width="2.5" stroke-linecap="butt" stroke-linejoin="round" stroke-miterlimit="4" stroke-opacity="1" fill="none" fill-rule="nonzero"/><path d="M2.0075 12.0312 13.5369 12.0312 13.1484 10.0547 11.6325 10.0547 10.1956 2.66406C10.0948 2.14844 10.112 1.77604 10.2472 1.54688 10.3778 1.32458 10.6391 1.21344 11.0309 1.21344 11.1386 1.21344 11.2716 1.22489 11.4297 1.24781 11.5947 1.26156 11.7024 1.27188 11.7528 1.27875L11.4744-0.15125C11.2086-0.242917 10.9393-0.310521 10.6666-0.354062 10.387-0.397605 10.1154-0.419375 9.85188-0.419375 8.9925-0.419375 8.4448-0.186771 8.20875 0.278437 7.97043 0.752813 7.97387 1.62021 8.21906 2.88063L9.61469 10.0547 5.17688 10.0547 3.22438 0 1.20312 0 3.15906 10.0547 1.6225 10.0547 2.0075 12.0312Z" fill="#000000" fill-rule="nonzero" fill-opacity="1" transform="matrix(1 0 0 -1 1056.52 694.957)"/><path d="M5.58594 16.0394 7.41125 16.0394 1.82531-2.04187 0-2.04187 5.58594 16.0394Z" fill="#000000" fill-rule="nonzero" fill-opacity="1" transform="matrix(1 0 0 -1 1069.76 694.957)"/><path d="M4.22125 1.82531 11.7941 1.82531 11.7941 0 1.61219 0 1.61219 1.82531C2.43489 2.67781 3.55668 3.82137 4.9775 5.25594 6.40062 6.69281 7.29437 7.6198 7.65875 8.03687 8.35312 8.81605 8.83781 9.47605 9.11281 10.0169 9.39012 10.5577 9.52875 11.0894 9.52875 11.6119 9.52875 12.4644 9.22969 13.1587 8.63156 13.695 8.03344 14.2336 7.25426 14.5028 6.29406 14.5028 5.61344 14.5028 4.895 14.3848 4.13875 14.1488 3.38479 13.9127 2.57812 13.5541 1.71875 13.0728L1.71875 15.2659C2.59188 15.6166 3.40771 15.8813 4.16625 16.06 4.92707 16.2388 5.62262 16.3281 6.25281 16.3281 7.91426 16.3281 9.23886 15.9122 10.2266 15.0803 11.2143 14.2507 11.7081 13.1416 11.7081 11.7528 11.7081 11.0928 11.5844 10.4672 11.3369 9.87594 11.0917 9.28699 10.6425 8.59145 9.98938 7.78937 9.81063 7.58082 9.24113 6.98043 8.28094 5.98812 7.32301 4.99582 5.9698 3.60824 4.22125 1.82531Z" fill="#000000" fill-rule="nonzero" fill-opacity="1" transform="matrix(1 0 0 -1 1076.38 694.957)"/><path d="M1227.16 661.747 1227.16 673.747" stroke="#000000" stroke-width="2.5" stroke-linecap="butt" stroke-linejoin="round" stroke-miterlimit="4" stroke-opacity="1" fill="none" fill-rule="nonzero"/><path d="M8.92719 8.64875C9.96531 8.42645 10.7754 7.96355 11.3575 7.26 11.9419 6.55875 12.2341 5.6925 12.2341 4.66125 12.2341 3.08 11.6898 1.85511 10.6012 0.986562 9.5127 0.120312 7.96582-0.312813 5.96063-0.312813 5.28918-0.312813 4.59707-0.246354 3.88438-0.113437 3.17167 0.0194792 2.43604 0.218854 1.6775 0.484688L1.6775 2.57812C2.27792 2.2275 2.93563 1.96281 3.65062 1.78406 4.36793 1.60531 5.1173 1.51594 5.89875 1.51594 7.2577 1.51594 8.29355 1.78406 9.00625 2.32031 9.71895 2.85656 10.0753 3.63687 10.0753 4.66125 10.0753 5.6077 9.74418 6.34676 9.08187 6.87844 8.41957 7.41238 7.49832 7.67938 6.31812 7.67938L4.44812 7.67938 4.44812 9.46344 6.40406 9.46344C7.46969 9.46344 8.28551 9.67656 8.85156 10.1028 9.41761 10.5291 9.70063 11.1432 9.70063 11.9453 9.70063 12.768 9.40844 13.3994 8.82406 13.8394 8.24199 14.2817 7.40668 14.5028 6.31812 14.5028 5.7223 14.5028 5.08406 14.4375 4.40344 14.3069 3.72281 14.1786 2.97458 13.9792 2.15875 13.7087L2.15875 15.6406C2.98375 15.8698 3.75605 16.0417 4.47563 16.1562 5.1952 16.2708 5.87355 16.3281 6.51062 16.3281 8.15832 16.3281 9.46113 15.9534 10.4191 15.2041 11.3793 14.457 11.8594 13.4464 11.8594 12.1722 11.8594 11.283 11.605 10.5325 11.0962 9.92062 10.5875 9.30875 9.86449 8.8848 8.92719 8.64875Z" fill="#000000" fill-rule="nonzero" fill-opacity="1" transform="matrix(1 0 0 -1 1203.18 694.957)"/><path d="M2.0075 12.0312 13.5369 12.0312 13.1484 10.0547 11.6325 10.0547 10.1956 2.66406C10.0948 2.14844 10.112 1.77604 10.2472 1.54688 10.3778 1.32458 10.6391 1.21344 11.0309 1.21344 11.1386 1.21344 11.2716 1.22489 11.4297 1.24781 11.5947 1.26156 11.7024 1.27188 11.7528 1.27875L11.4744-0.15125C11.2086-0.242917 10.9393-0.310521 10.6666-0.354062 10.387-0.397605 10.1154-0.419375 9.85188-0.419375 8.9925-0.419375 8.4448-0.186771 8.20875 0.278437 7.97043 0.752813 7.97387 1.62021 8.21906 2.88063L9.61469 10.0547 5.17688 10.0547 3.22438 0 1.20312 0 3.15906 10.0547 1.6225 10.0547 2.0075 12.0312Z" fill="#000000" fill-rule="nonzero" fill-opacity="1" transform="matrix(1 0 0 -1 1217.17 694.957)"/><path d="M5.58594 16.0394 7.41125 16.0394 1.82531-2.04187 0-2.04187 5.58594 16.0394Z" fill="#000000" fill-rule="nonzero" fill-opacity="1" transform="matrix(1 0 0 -1 1230.42 694.957)"/><path d="M4.22125 1.82531 11.7941 1.82531 11.7941 0 1.61219 0 1.61219 1.82531C2.43489 2.67781 3.55668 3.82137 4.9775 5.25594 6.40062 6.69281 7.29437 7.6198 7.65875 8.03687 8.35312 8.81605 8.83781 9.47605 9.11281 10.0169 9.39012 10.5577 9.52875 11.0894 9.52875 11.6119 9.52875 12.4644 9.22969 13.1587 8.63156 13.695 8.03344 14.2336 7.25426 14.5028 6.29406 14.5028 5.61344 14.5028 4.895 14.3848 4.13875 14.1488 3.38479 13.9127 2.57812 13.5541 1.71875 13.0728L1.71875 15.2659C2.59188 15.6166 3.40771 15.8813 4.16625 16.06 4.92707 16.2388 5.62262 16.3281 6.25281 16.3281 7.91426 16.3281 9.23886 15.9122 10.2266 15.0803 11.2143 14.2507 11.7081 13.1416 11.7081 11.7528 11.7081 11.0928 11.5844 10.4672 11.3369 9.87594 11.0917 9.28699 10.6425 8.59145 9.98938 7.78937 9.81063 7.58082 9.24113 6.98043 8.28094 5.98812 7.32301 4.99582 5.9698 3.60824 4.22125 1.82531Z" fill="#000000" fill-rule="nonzero" fill-opacity="1" transform="matrix(1 0 0 -1 1237.03 694.957)"/><g clip-path="url(#clip4)"><path d="M766.061 527.333 1227.16 527.333" stroke="#000000" stroke-width="1.33333" stroke-linecap="butt" stroke-linejoin="round" stroke-miterlimit="4" stroke-opacity="1" fill="none" fill-rule="nonzero"/></g><g clip-path="url(#clip5)"><path d="M766.061 649.527 766.061 405.139" stroke="#000000" stroke-width="1.33333" stroke-linecap="butt" stroke-linejoin="round" stroke-miterlimit="4" stroke-dasharray="1.33333 2.2" stroke-opacity="1" fill="none" fill-rule="nonzero"/></g><g clip-path="url(#clip6)"><path d="M919.759 649.527 919.759 405.139" stroke="#000000" stroke-width="1.33333" stroke-linecap="butt" stroke-linejoin="round" stroke-miterlimit="4" stroke-dasharray="1.33333 2.2" stroke-opacity="1" fill="none" fill-rule="nonzero"/></g><g clip-path="url(#clip7)"><path d="M1073.46 649.527 1073.46 405.139" stroke="#000000" stroke-width="1.33333" stroke-linecap="butt" stroke-linejoin="round" stroke-miterlimit="4" stroke-dasharray="1.33333 2.2" stroke-opacity="1" fill="none" fill-rule="nonzero"/></g><g clip-path="url(#clip8)"><path d="M1227.16 649.527 1227.16 405.139" stroke="#000000" stroke-width="1.33333" stroke-linecap="butt" stroke-linejoin="round" stroke-miterlimit="4" stroke-dasharray="1.33333 2.2" stroke-opacity="1" fill="none" fill-rule="nonzero"/></g><g clip-path="url(#clip9)"><path d="M770.953 649.12 773.891 603.036 776.827 581.96 779.765 569.812 782.701 561.863 785.639 556.221 788.575 551.984 791.513 548.664 794.45 545.973 797.387 543.735 800.324 541.831 803.261 540.18 806.198 538.727 809.135 537.427 812.072 536.249 815.009 535.171 817.946 534.173 820.883 533.24 823.82 532.359 826.757 531.521 829.694 530.717 832.631 529.939 835.568 529.181 838.505 528.436 841.441 527.7 844.379 526.967 847.316 526.231 850.253 525.485 853.189 524.728 856.127 523.949 859.064 523.145 862.001 522.308 864.937 521.427 867.875 520.493 870.812 519.496 873.749 518.417 876.685 517.24 879.623 515.94 882.56 514.487 885.497 512.836 888.433 510.932 891.371 508.693 894.308 506.003 897.245 502.683 900.181 498.445 903.119 492.804 906.056 484.855 908.993 472.706 911.929 451.631 914.867 405.547" stroke="#808080" stroke-width="3" stroke-linecap="square" stroke-linejoin="round" stroke-miterlimit="4" stroke-opacity="1" fill="none" fill-rule="nonzero"/></g><g clip-path="url(#clip10)"><path d="M924.652 649.12 927.588 603.036 930.525 581.96 933.463 569.812 936.4 561.863 939.337 556.221 942.273 551.984 945.211 548.664 948.148 545.973 951.085 543.735 954.021 541.831 956.959 540.18 959.896 538.727 962.833 537.427 965.769 536.249 968.707 535.171 971.644 534.173 974.581 533.24 977.517 532.359 980.455 531.521 983.392 530.717 986.329 529.939 989.265 529.181 992.203 528.436 995.14 527.7 998.077 526.967 1001.01 526.231 1003.95 525.485 1006.89 524.728 1009.83 523.949 1012.76 523.145 1015.7 522.308 1018.64 521.427 1021.57 520.493 1024.51 519.496 1027.45 518.417 1030.38 517.24 1033.32 515.94 1036.26 514.487 1039.19 512.836 1042.13 510.932 1045.07 508.693 1048.01 506.003 1050.94 502.683 1053.88 498.445 1056.82 492.804 1059.75 484.855 1062.69 472.706 1065.63 451.631 1068.57 405.547" stroke="#808080" stroke-width="3" stroke-linecap="square" stroke-linejoin="round" stroke-miterlimit="4" stroke-opacity="1" fill="none" fill-rule="nonzero"/></g><g clip-path="url(#clip11)"><path d="M1078.35 649.12 1081.29 603.036 1084.22 581.96 1087.16 569.812 1090.1 561.863 1093.03 556.221 1095.97 551.984 1098.91 548.664 1101.85 545.973 1104.78 543.735 1107.72 541.831 1110.66 540.18 1113.59 538.727 1116.53 537.427 1119.47 536.249 1122.41 535.171 1125.34 534.173 1128.28 533.24 1131.22 532.359 1134.15 531.521 1137.09 530.717 1140.03 529.939 1142.96 529.181 1145.9 528.436 1148.84 527.7 1151.77 526.967 1154.71 526.231 1157.65 525.485 1160.59 524.728 1163.52 523.949 1166.46 523.145 1169.4 522.308 1172.33 521.427 1175.27 520.493 1178.21 519.496 1181.15 518.417 1184.08 517.24 1187.02 515.94 1189.96 514.487 1192.89 512.836 1195.83 510.932 1198.77 508.693 1201.7 506.003 1204.64 502.683 1207.58 498.445 1210.51 492.804 1213.45 484.855 1216.39 472.706 1219.33 451.631 1222.26 405.547" stroke="#808080" stroke-width="3" stroke-linecap="square" stroke-linejoin="round" stroke-miterlimit="4" stroke-opacity="1" fill="none" fill-rule="nonzero"/></g><g clip-path="url(#clip12)"><path d="M842.911 533.333C844.502 533.333 846.028 532.701 847.153 531.576 848.278 530.451 848.911 528.924 848.911 527.333 848.911 525.742 848.278 524.216 847.153 523.091 846.028 521.966 844.502 521.333 842.911 521.333 841.319 521.333 839.793 521.966 838.668 523.091 837.543 524.216 836.911 525.742 836.911 527.333 836.911 528.924 837.543 530.451 838.668 531.576 839.793 532.701 841.319 533.333 842.911 533.333Z" stroke="#000000" stroke-width="1.33333" stroke-linecap="butt" stroke-linejoin="round" stroke-miterlimit="4" stroke-opacity="1" fill="#000000" fill-rule="nonzero" fill-opacity="1"/><path d="M996.608 533.333C998.199 533.333 999.725 532.701 1000.85 531.576 1001.98 530.451 1002.61 528.924 1002.61 527.333 1002.61 525.742 1001.98 524.216 1000.85 523.091 999.725 521.966 998.199 521.333 996.608 521.333 995.017 521.333 993.49 521.966 992.365 523.091 991.24 524.216 990.608 525.742 990.608 527.333 990.608 528.924 991.24 530.451 992.365 531.576 993.49 532.701 995.017 533.333 996.608 533.333Z" stroke="#000000" stroke-width="1.33333" stroke-linecap="butt" stroke-linejoin="round" stroke-miterlimit="4" stroke-opacity="1" fill="#000000" fill-rule="nonzero" fill-opacity="1"/><path d="M1150.31 533.333C1151.9 533.333 1153.42 532.701 1154.55 531.576 1155.67 530.451 1156.31 528.924 1156.31 527.333 1156.31 525.742 1155.67 524.216 1154.55 523.091 1153.42 521.966 1151.9 521.333 1150.31 521.333 1148.72 521.333 1147.19 521.966 1146.06 523.091 1144.94 524.216 1144.31 525.742 1144.31 527.333 1144.31 528.924 1144.94 530.451 1146.06 531.576 1147.19 532.701 1148.72 533.333 1150.31 533.333Z" stroke="#000000" stroke-width="1.33333" stroke-linecap="butt" stroke-linejoin="round" stroke-miterlimit="4" stroke-opacity="1" fill="#000000" fill-rule="nonzero" fill-opacity="1"/></g><path d="M9.5225 1.665 9.5225 4.7975 6.945 4.7975 6.945 6.095 11.085 6.095 11.085 1.085C10.4767 0.653333 9.805 0.326668 9.07 0.105 8.33667-0.116667 7.55333-0.2275 6.72-0.2275 4.89668-0.2275 3.47 0.305 2.44 1.37 1.41167 2.43667 0.8975 3.92 0.8975 5.82 0.8975 7.72667 1.41167 9.2125 2.44 10.2775 3.47 11.3425 4.89668 11.875 6.72 11.875 7.48 11.875 8.2025 11.7808 8.8875 11.5925 9.5725 11.4058 10.2042 11.13 10.7825 10.765L10.7825 9.085C10.1992 9.58 9.57917 9.9525 8.9225 10.2025 8.26583 10.4525 7.57583 10.5775 6.8525 10.5775 5.42417 10.5775 4.35168 10.1792 3.635 9.3825 2.92 8.58582 2.5625 7.39832 2.5625 5.82 2.5625 4.24668 2.92 3.06168 3.635 2.265 4.35168 1.46833 5.42417 1.07 6.8525 1.07 7.40917 1.07 7.90583 1.11833 8.3425 1.215 8.78082 1.31167 9.17417 1.46167 9.5225 1.665Z" fill="#000000" fill-rule="nonzero" fill-opacity="1" transform="matrix(1 0 0 -1 1137.25 384.918)"/><path d="M6.5775 7.4075C6.41582 7.50082 6.24 7.56917 6.05 7.6125 5.86 7.6575 5.65083 7.68 5.4225 7.68 4.60918 7.68 3.985 7.41582 3.55 6.8875 3.115 6.35917 2.8975 5.6 2.8975 4.61L2.8975 0 1.4525 0 1.4525 8.75 2.8975 8.75 2.8975 7.39C3.20082 7.92167 3.59418 8.31583 4.0775 8.5725 4.5625 8.83082 5.15167 8.96 5.845 8.96 5.94333 8.96 6.0525 8.95333 6.1725 8.94 6.2925 8.92832 6.425 8.90917 6.57 8.8825L6.5775 7.4075Z" fill="#000000" fill-rule="nonzero" fill-opacity="1" transform="matrix(1 0 0 -1 1149.65 384.918)"/><path d="M5.485 4.3975C4.32332 4.3975 3.51832 4.265 3.07 4 2.62168 3.735 2.3975 3.28168 2.3975 2.64 2.3975 2.13 2.56582 1.725 2.9025 1.425 3.23918 1.12667 3.69582 0.9775 4.2725 0.9775 5.07082 0.9775 5.71082 1.26 6.1925 1.825 6.67417 2.39 6.915 3.14082 6.915 4.0775L6.915 4.3975 5.485 4.3975ZM8.3525 4.9925 8.3525 0 6.915 0 6.915 1.3275C6.58667 0.7975 6.1775 0.405832 5.6875 0.1525 5.1975-0.100833 4.59832-0.2275 3.89-0.2275 2.995-0.2275 2.2825 0.0241667 1.7525 0.5275 1.22417 1.03083 0.96 1.70417 0.96 2.5475 0.96 3.53082 1.28917 4.2725 1.9475 4.7725 2.6075 5.2725 3.59082 5.5225 4.8975 5.5225L6.915 5.5225 6.915 5.665C6.915 6.32667 6.6975 6.83833 6.2625 7.2 5.8275 7.56167 5.21667 7.7425 4.43 7.7425 3.93 7.7425 3.4425 7.6825 2.9675 7.5625 2.49417 7.4425 2.03917 7.2625 1.6025 7.0225L1.6025 8.3525C2.1275 8.55583 2.6375 8.7075 3.1325 8.8075 3.6275 8.90917 4.10918 8.96 4.5775 8.96 5.84417 8.96 6.79 8.63167 7.415 7.975 8.04 7.32 8.3525 6.32583 8.3525 4.9925Z" fill="#000000" fill-rule="nonzero" fill-opacity="1" transform="matrix(1 0 0 -1 1156.23 384.918)"/><path d="M2.8975 1.3125 2.8975-3.3275 1.4525-3.3275 1.4525 8.75 2.8975 8.75 2.8975 7.4225C3.20082 7.9425 3.5825 8.32833 4.0425 8.58 4.50418 8.83333 5.055 8.96 5.695 8.96 6.75833 8.96 7.62167 8.53833 8.285 7.695 8.95 6.85167 9.2825 5.7425 9.2825 4.3675 9.2825 2.9925 8.95 1.8825 8.285 1.0375 7.62167 0.194167 6.75833-0.2275 5.695-0.2275 5.055-0.2275 4.50418-0.100833 4.0425 0.1525 3.5825 0.405832 3.20082 0.7925 2.8975 1.3125ZM7.79 4.3675C7.79 5.42417 7.5725 6.25332 7.1375 6.855 6.7025 7.45667 6.105 7.7575 5.345 7.7575 4.58332 7.7575 3.985 7.45667 3.55 6.855 3.115 6.25332 2.8975 5.42417 2.8975 4.3675 2.8975 3.31082 3.115 2.48167 3.55 1.88 3.985 1.27833 4.58332 0.9775 5.345 0.9775 6.105 0.9775 6.7025 1.27833 7.1375 1.88 7.5725 2.48167 7.79 3.31082 7.79 4.3675Z" fill="#000000" fill-rule="nonzero" fill-opacity="1" transform="matrix(1 0 0 -1 1166.03 384.918)"/><path d="M8.7825 5.2825 8.7825 0 7.345 0 7.345 5.235C7.345 6.06332 7.18332 6.6825 6.86 7.0925 6.53667 7.50417 6.0525 7.71 5.4075 7.71 4.63082 7.71 4.01832 7.4625 3.57 6.9675 3.12168 6.47417 2.8975 5.8 2.8975 4.945L2.8975 0 1.4525 0 1.4525 12.1575 2.8975 12.1575 2.8975 7.39C3.2425 7.91667 3.6475 8.31 4.1125 8.57 4.57917 8.83 5.1175 8.96 5.7275 8.96 6.7325 8.96 7.4925 8.64917 8.0075 8.0275 8.52417 7.40583 8.7825 6.49083 8.7825 5.2825Z" fill="#000000" fill-rule="nonzero" fill-opacity="1" transform="matrix(1 0 0 -1 1176.19 384.918)"/><path d="M4.8975 7.7425C4.1275 7.7425 3.51832 7.44167 3.07 6.84 2.62168 6.23833 2.3975 5.41417 2.3975 4.3675 2.3975 3.32082 2.62 2.49667 3.065 1.895 3.51168 1.29333 4.1225 0.9925 4.8975 0.9925 5.66417 0.9925 6.27082 1.29417 6.7175 1.8975 7.16582 2.5025 7.39 3.32582 7.39 4.3675 7.39 5.40417 7.16582 6.22582 6.7175 6.8325 6.27082 7.43917 5.66417 7.7425 4.8975 7.7425ZM4.8975 8.96C6.1475 8.96 7.12917 8.55332 7.8425 7.74 8.5575 6.92833 8.915 5.80417 8.915 4.3675 8.915 2.93582 8.5575 1.81167 7.8425 0.995 7.12917 0.18 6.1475-0.2275 4.8975-0.2275 3.6425-0.2275 2.65918 0.18 1.9475 0.995 1.2375 1.81167 0.8825 2.93582 0.8825 4.3675 0.8825 5.80417 1.2375 6.92833 1.9475 7.74 2.65918 8.55332 3.6425 8.96 4.8975 8.96Z" fill="#000000" fill-rule="nonzero" fill-opacity="1" transform="matrix(1 0 0 -1 1191.41 384.918)"/><path d="M5.9375 12.1575 5.9375 10.96 4.5625 10.96C4.0475 10.96 3.68918 10.8558 3.4875 10.6475 3.2875 10.4392 3.1875 10.0642 3.1875 9.5225L3.1875 8.75 5.555 8.75 5.555 7.6325 3.1875 7.6325 3.1875 0 1.7425 0 1.7425 7.6325 0.3675 7.6325 0.3675 8.75 1.7425 8.75 1.7425 9.36C1.7425 10.3333 1.96917 11.0425 2.4225 11.4875 2.87582 11.9342 3.59418 12.1575 4.5775 12.1575L5.9375 12.1575Z" fill="#000000" fill-rule="nonzero" fill-opacity="1" transform="matrix(1 0 0 -1 1201.2 384.918)"/><path d="M2.93 11.235 2.93 8.75 5.89 8.75 5.89 7.6325 2.93 7.6325 2.93 2.8825C2.93 2.16917 3.0275 1.71083 3.2225 1.5075 3.4175 1.30417 3.815 1.2025 4.415 1.2025L5.89 1.2025 5.89 0 4.415 0C3.305 0 2.53917 0.206667 2.1175 0.62 1.69583 1.035 1.485 1.78917 1.485 2.8825L1.485 7.6325 0.43 7.6325 0.43 8.75 1.485 8.75 1.485 11.235 2.93 11.235Z" fill="#000000" fill-rule="nonzero" fill-opacity="1" transform="matrix(1 0 0 -1 1211.92 384.918)"/><path d="M5.485 4.3975C4.32332 4.3975 3.51832 4.265 3.07 4 2.62168 3.735 2.3975 3.28168 2.3975 2.64 2.3975 2.13 2.56582 1.725 2.9025 1.425 3.23918 1.12667 3.69582 0.9775 4.2725 0.9775 5.07082 0.9775 5.71082 1.26 6.1925 1.825 6.67417 2.39 6.915 3.14082 6.915 4.0775L6.915 4.3975 5.485 4.3975ZM8.3525 4.9925 8.3525 0 6.915 0 6.915 1.3275C6.58667 0.7975 6.1775 0.405832 5.6875 0.1525 5.1975-0.100833 4.59832-0.2275 3.89-0.2275 2.995-0.2275 2.2825 0.0241667 1.7525 0.5275 1.22417 1.03083 0.96 1.70417 0.96 2.5475 0.96 3.53082 1.28917 4.2725 1.9475 4.7725 2.6075 5.2725 3.59082 5.5225 4.8975 5.5225L6.915 5.5225 6.915 5.665C6.915 6.32667 6.6975 6.83833 6.2625 7.2 5.8275 7.56167 5.21667 7.7425 4.43 7.7425 3.93 7.7425 3.4425 7.6825 2.9675 7.5625 2.49417 7.4425 2.03917 7.2625 1.6025 7.0225L1.6025 8.3525C2.1275 8.55583 2.6375 8.7075 3.1325 8.8075 3.6275 8.90917 4.10918 8.96 4.5775 8.96 5.84417 8.96 6.79 8.63167 7.415 7.975 8.04 7.32 8.3525 6.32583 8.3525 4.9925Z" fill="#000000" fill-rule="nonzero" fill-opacity="1" transform="matrix(1 0 0 -1 1218.2 384.918)"/><path d="M8.7825 5.2825 8.7825 0 7.345 0 7.345 5.235C7.345 6.06332 7.18332 6.6825 6.86 7.0925 6.53667 7.50417 6.0525 7.71 5.4075 7.71 4.63082 7.71 4.01832 7.4625 3.57 6.9675 3.12168 6.47417 2.8975 5.8 2.8975 4.945L2.8975 0 1.4525 0 1.4525 8.75 2.8975 8.75 2.8975 7.39C3.2425 7.91667 3.6475 8.31 4.1125 8.57 4.57917 8.83 5.1175 8.96 5.7275 8.96 6.7325 8.96 7.4925 8.64917 8.0075 8.0275 8.52417 7.40583 8.7825 6.49083 8.7825 5.2825Z" fill="#000000" fill-rule="nonzero" fill-opacity="1" transform="matrix(1 0 0 -1 1228 384.918)"/><path d="M9.6025 8.75 5.585 4.46 8.0475 0 6.3975 0 4.5475 3.47 1.3275 0-0.415 0 3.89 4.61 1.6025 8.75 3.25 8.75 4.93 5.585 7.86 8.75 9.6025 8.75Z" fill="#000000" fill-rule="nonzero" fill-opacity="1" transform="matrix(1 0 0 -1 1240.74 384.918)"/></g></g></g></g></svg>