<svg width="864" height="290" xmlns="http://www.w3.org/2000/svg" xmlns:xlink="http://www.w3.org/1999/xlink" xml:space="preserve" overflow="hidden"><defs><clipPath id="clip0"><rect x="24" y="198" width="864" height="290"/></clipPath><clipPath id="clip1"><rect x="24" y="199" width="864" height="288"/></clipPath><clipPath id="clip2"><rect x="24" y="199" width="864" height="288"/></clipPath><clipPath id="clip3"><rect x="24" y="199" width="864" height="288"/></clipPath><clipPath id="clip4"><rect x="99" y="286" width="764" height="114"/></clipPath><clipPath id="clip5"><rect x="99" y="286" width="764" height="114"/></clipPath><clipPath id="clip6"><rect x="99" y="286" width="764" height="114"/></clipPath><clipPath id="clip7"><rect x="99" y="286" width="764" height="114"/></clipPath></defs><g clip-path="url(#clip0)" transform="translate(-24 -198)"><g clip-path="url(#clip1)"><g clip-path="url(#clip2)"><g clip-path="url(#clip3)"><path d="M99.0867 399.241 862.08 399.241 862.08 286.759 99.0867 286.759Z" fill="#FFFFFF" fill-rule="nonzero" fill-opacity="1"/><path d="M99.0867 394.128 87.0867 394.128" stroke="#000000" stroke-width="2.5" stroke-linecap="butt" stroke-linejoin="round" stroke-miterlimit="4" stroke-opacity="1" fill="none" fill-rule="nonzero"/><path d="M2.33063 7.81 16.1012 7.81 16.1012 5.98469 2.33063 5.98469 2.33063 7.81Z" fill="#000000" fill-rule="nonzero" fill-opacity="1" transform="matrix(1 0 0 -1 49.9872 402.487)"/><path d="M2.72937 1.82531 6.27344 1.82531 6.27344 14.0628 2.41656 13.2894 2.41656 15.2659 6.25281 16.0394 8.42188 16.0394 8.42188 1.82531 11.9659 1.82531 11.9659 0 2.72937 0 2.72937 1.82531Z" fill="#000000" fill-rule="nonzero" fill-opacity="1" transform="matrix(1 0 0 -1 68.4208 402.487)"/><path d="M99.0867 291.871 87.0867 291.871" stroke="#000000" stroke-width="2.5" stroke-linecap="butt" stroke-linejoin="round" stroke-miterlimit="4" stroke-opacity="1" fill="none" fill-rule="nonzero"/><path d="M2.72937 1.82531 6.27344 1.82531 6.27344 14.0628 2.41656 13.2894 2.41656 15.2659 6.25281 16.0394 8.42188 16.0394 8.42188 1.82531 11.9659 1.82531 11.9659 0 2.72937 0 2.72937 1.82531Z" fill="#000000" fill-rule="nonzero" fill-opacity="1" transform="matrix(1 0 0 -1 68.4225 300.23)"/><g clip-path="url(#clip4)"><path d="M133.768 343 827.399 343" stroke="#000000" stroke-width="1.33333" stroke-linecap="butt" stroke-linejoin="round" stroke-miterlimit="4" stroke-opacity="1" fill="none" fill-rule="nonzero"/></g><g clip-path="url(#clip5)"><path d="M159.332 394.128 159.332 291.871" stroke="#000000" stroke-width="1.33333" stroke-linecap="butt" stroke-linejoin="round" stroke-miterlimit="4" stroke-opacity="1" fill="none" fill-rule="nonzero"/></g><g clip-path="url(#clip6)"><path d="M133.768 298.13 140.775 295.203 147.781 293.171 154.787 292.073 161.793 291.931 168.8 292.745 175.807 294.502 182.813 297.169 189.819 300.694 196.825 305.013 203.832 310.044 210.839 315.693 217.844 321.854 224.851 328.411 231.857 335.243 238.864 342.219 245.871 349.209 252.876 356.084 259.883 362.713 266.889 368.973 273.896 374.745 280.901 379.923 287.908 384.408 294.915 388.117 301.921 390.98 308.928 392.944 315.933 393.971 322.94 394.041 329.947 393.156 336.953 391.331 343.959 388.597 350.965 385.011 357.972 380.636 364.979 375.556 371.984 369.865 378.991 363.671 385.997 357.088 393.004 350.243 400.011 343.26 407.016 336.273 414.023 329.413 421.029 322.807 428.036 316.58 435.041 310.848 442.048 305.719 449.055 301.288 456.061 297.64 463.068 294.842 470.073 292.948 477.08 291.991 484.087 291.991 491.093 292.948 498.099 294.842 505.105 297.64 512.112 301.288 519.119 305.719 526.125 310.848 533.131 316.58 540.137 322.807 547.144 329.413 554.151 336.273 561.156 343.26 568.163 350.243 575.169 357.088 582.176 363.671 589.183 369.865 596.188 375.556 603.195 380.636 610.201 385.011 617.208 388.597 624.213 391.331 631.22 393.156 638.227 394.041 645.233 393.971 652.239 392.944 659.245 390.98 666.252 388.117 673.259 384.408 680.265 379.923 687.271 374.745 694.277 368.973 701.284 362.713 708.291 356.084 715.296 349.209 722.303 342.219 729.309 335.243 736.316 328.411 743.323 321.854 750.328 315.693 757.335 310.044 764.341 305.013 771.348 300.694 778.353 297.169 785.36 294.502 792.367 292.745 799.373 291.931 806.38 292.073 813.385 293.171 820.392 295.203 827.399 298.13" stroke="#808080" stroke-width="3" stroke-linecap="square" stroke-linejoin="round" stroke-miterlimit="4" stroke-opacity="1" fill="none" fill-rule="nonzero"/></g><g clip-path="url(#clip7)"><path d="M239.645 349C241.237 349 242.763 348.368 243.888 347.243 245.013 346.117 245.645 344.591 245.645 343 245.645 341.409 245.013 339.883 243.888 338.757 242.763 337.632 241.237 337 239.645 337 238.054 337 236.528 337.632 235.403 338.757 234.278 339.883 233.645 341.409 233.645 343 233.645 344.591 234.278 346.117 235.403 347.243 236.528 348.368 238.054 349 239.645 349Z" stroke="#000000" stroke-width="1.33333" stroke-linecap="butt" stroke-linejoin="round" stroke-miterlimit="4" stroke-opacity="1" fill="#000000" fill-rule="nonzero" fill-opacity="1"/><path d="M400.271 349C401.862 349 403.388 348.368 404.513 347.243 405.638 346.117 406.271 344.591 406.271 343 406.271 341.409 405.638 339.883 404.513 338.757 403.388 337.632 401.862 337 400.271 337 398.679 337 397.153 337.632 396.028 338.757 394.903 339.883 394.271 341.409 394.271 343 394.271 344.591 394.903 346.117 396.028 347.243 397.153 348.368 398.679 349 400.271 349Z" stroke="#000000" stroke-width="1.33333" stroke-linecap="butt" stroke-linejoin="round" stroke-miterlimit="4" stroke-opacity="1" fill="#000000" fill-rule="nonzero" fill-opacity="1"/><path d="M560.896 349C562.487 349 564.013 348.368 565.139 347.243 566.264 346.117 566.896 344.591 566.896 343 566.896 341.409 566.264 339.883 565.139 338.757 564.013 337.632 562.487 337 560.896 337 559.305 337 557.779 337.632 556.653 338.757 555.528 339.883 554.896 341.409 554.896 343 554.896 344.591 555.528 346.117 556.653 347.243 557.779 348.368 559.305 349 560.896 349Z" stroke="#000000" stroke-width="1.33333" stroke-linecap="butt" stroke-linejoin="round" stroke-miterlimit="4" stroke-opacity="1" fill="#000000" fill-rule="nonzero" fill-opacity="1"/><path d="M721.521 349C723.113 349 724.639 348.368 725.764 347.243 726.889 346.117 727.521 344.591 727.521 343 727.521 341.409 726.889 339.883 725.764 338.757 724.639 337.632 723.113 337 721.521 337 719.93 337 718.404 337.632 717.279 338.757 716.154 339.883 715.521 341.409 715.521 343 715.521 344.591 716.154 346.117 717.279 347.243 718.404 348.368 719.93 349 721.521 349Z" stroke="#000000" stroke-width="1.33333" stroke-linecap="butt" stroke-linejoin="round" stroke-miterlimit="4" stroke-opacity="1" fill="#000000" fill-rule="nonzero" fill-opacity="1"/></g><path d="M1.46 8.75 9.845 8.75 9.5625 7.3125 8.46 7.3125 7.415 1.9375C7.34167 1.5625 7.35417 1.29167 7.4525 1.125 7.5475 0.963332 7.7375 0.8825 8.0225 0.8825 8.10083 0.8825 8.1975 0.890832 8.3125 0.9075 8.4325 0.9175 8.51083 0.925 8.5475 0.93L8.345-0.11C8.15167-0.176667 7.95582-0.225833 7.7575-0.2575 7.55417-0.289167 7.35667-0.305 7.165-0.305 6.54-0.305 6.14167-0.135833 5.97 0.2025 5.79667 0.5475 5.79917 1.17833 5.9775 2.095L6.9925 7.3125 3.765 7.3125 2.345 0 0.875 0 2.2975 7.3125 1.18 7.3125 1.46 8.75Z" fill="#000000" fill-rule="nonzero" fill-opacity="1" transform="matrix(1 0 0 -1 255.645 337.542)"/><path d="M4.0625 11.665 5.39 11.665 1.3275-1.485 0-1.485 4.0625 11.665Z" fill="#000000" fill-rule="nonzero" fill-opacity="1" transform="matrix(1 0 0 -1 265.278 337.542)"/><path d="M3.07 1.3275 8.5775 1.3275 8.5775 0 1.1725 0 1.1725 1.3275C1.77083 1.9475 2.58668 2.77918 3.62 3.8225 4.655 4.8675 5.305 5.54167 5.57 5.845 6.075 6.41167 6.4275 6.89167 6.6275 7.285 6.82917 7.67833 6.93 8.065 6.93 8.445 6.93 9.065 6.7125 9.57 6.2775 9.96 5.8425 10.3517 5.27583 10.5475 4.5775 10.5475 4.0825 10.5475 3.56 10.4617 3.01 10.29 2.46167 10.1183 1.875 9.8575 1.25 9.5075L1.25 11.1025C1.885 11.3575 2.47833 11.55 3.03 11.68 3.58332 11.81 4.08918 11.875 4.5475 11.875 5.75583 11.875 6.71917 11.5725 7.4375 10.9675 8.15582 10.3642 8.515 9.5575 8.515 8.5475 8.515 8.0675 8.425 7.6125 8.245 7.1825 8.06667 6.75417 7.74 6.24832 7.265 5.665 7.135 5.51333 6.72083 5.07667 6.0225 4.355 5.32583 3.63332 4.34167 2.62418 3.07 1.3275Z" fill="#000000" fill-rule="nonzero" fill-opacity="1" transform="matrix(1 0 0 -1 270.089 337.542)"/><path d="M6.4925 6.29C7.2475 6.12832 7.83667 5.79167 8.26 5.28 8.685 4.77 8.8975 4.14 8.8975 3.39 8.8975 2.24 8.50167 1.34917 7.71 0.7175 6.91832 0.0875 5.79332-0.2275 4.335-0.2275 3.84667-0.2275 3.34332-0.179167 2.825-0.0825 2.30667 0.0141667 1.77167 0.159167 1.22 0.3525L1.22 1.875C1.65667 1.62 2.135 1.4275 2.655 1.2975 3.17668 1.1675 3.72167 1.1025 4.29 1.1025 5.27833 1.1025 6.03167 1.2975 6.55 1.6875 7.06833 2.0775 7.3275 2.645 7.3275 3.39 7.3275 4.07832 7.08667 4.61582 6.605 5.0025 6.12332 5.39083 5.45333 5.585 4.595 5.585L3.235 5.585 3.235 6.8825 4.6575 6.8825C5.4325 6.8825 6.02583 7.0375 6.4375 7.3475 6.84917 7.6575 7.055 8.10417 7.055 8.6875 7.055 9.28582 6.8425 9.745 6.4175 10.065 5.99417 10.3867 5.38667 10.5475 4.595 10.5475 4.16167 10.5475 3.6975 10.5 3.2025 10.405 2.7075 10.3117 2.16333 10.1667 1.57 9.97L1.57 11.375C2.17 11.5417 2.73168 11.6667 3.255 11.75 3.77832 11.8333 4.27168 11.875 4.735 11.875 5.93333 11.875 6.88083 11.6025 7.5775 11.0575 8.27582 10.5142 8.625 9.77917 8.625 8.8525 8.625 8.20582 8.44 7.66 8.07 7.215 7.7 6.77 7.17417 6.46167 6.4925 6.29Z" fill="#000000" fill-rule="nonzero" fill-opacity="1" transform="matrix(1 0 0 -1 416.271 337.542)"/><path d="M1.46 8.75 9.845 8.75 9.5625 7.3125 8.46 7.3125 7.415 1.9375C7.34167 1.5625 7.35417 1.29167 7.4525 1.125 7.5475 0.963332 7.7375 0.8825 8.0225 0.8825 8.10083 0.8825 8.1975 0.890832 8.3125 0.9075 8.4325 0.9175 8.51083 0.925 8.5475 0.93L8.345-0.11C8.15167-0.176667 7.95582-0.225833 7.7575-0.2575 7.55417-0.289167 7.35667-0.305 7.165-0.305 6.54-0.305 6.14167-0.135833 5.97 0.2025 5.79667 0.5475 5.79917 1.17833 5.9775 2.095L6.9925 7.3125 3.765 7.3125 2.345 0 0.875 0 2.2975 7.3125 1.18 7.3125 1.46 8.75Z" fill="#000000" fill-rule="nonzero" fill-opacity="1" transform="matrix(1 0 0 -1 426.45 337.542)"/><path d="M4.0625 11.665 5.39 11.665 1.3275-1.485 0-1.485 4.0625 11.665Z" fill="#000000" fill-rule="nonzero" fill-opacity="1" transform="matrix(1 0 0 -1 436.083 337.542)"/><path d="M3.07 1.3275 8.5775 1.3275 8.5775 0 1.1725 0 1.1725 1.3275C1.77083 1.9475 2.58668 2.77918 3.62 3.8225 4.655 4.8675 5.305 5.54167 5.57 5.845 6.075 6.41167 6.4275 6.89167 6.6275 7.285 6.82917 7.67833 6.93 8.065 6.93 8.445 6.93 9.065 6.7125 9.57 6.2775 9.96 5.8425 10.3517 5.27583 10.5475 4.5775 10.5475 4.0825 10.5475 3.56 10.4617 3.01 10.29 2.46167 10.1183 1.875 9.8575 1.25 9.5075L1.25 11.1025C1.885 11.3575 2.47833 11.55 3.03 11.68 3.58332 11.81 4.08918 11.875 4.5475 11.875 5.75583 11.875 6.71917 11.5725 7.4375 10.9675 8.15582 10.3642 8.515 9.5575 8.515 8.5475 8.515 8.0675 8.425 7.6125 8.245 7.1825 8.06667 6.75417 7.74 6.24832 7.265 5.665 7.135 5.51333 6.72083 5.07667 6.0225 4.355 5.32583 3.63332 4.34167 2.62418 3.07 1.3275Z" fill="#000000" fill-rule="nonzero" fill-opacity="1" transform="matrix(1 0 0 -1 440.894 337.542)"/><path d="M1.7275 11.665 7.9225 11.665 7.9225 10.335 3.1725 10.335 3.1725 7.4775C3.40082 7.55583 3.62917 7.61417 3.8575 7.6525 4.0875 7.69082 4.3175 7.71 4.5475 7.71 5.84917 7.71 6.88 7.35332 7.64 6.64 8.40167 5.92667 8.7825 4.96082 8.7825 3.7425 8.7825 2.4875 8.39167 1.51167 7.61 0.815 6.82833 0.12 5.72667-0.2275 4.305-0.2275 3.815-0.2275 3.31582-0.185833 2.8075-0.1025 2.30083-0.0191667 1.77667 0.105833 1.235 0.2725L1.235 1.86C1.70333 1.605 2.1875 1.415 2.6875 1.29 3.1875 1.165 3.71582 1.1025 4.2725 1.1025 5.17417 1.1025 5.8875 1.33917 6.4125 1.8125 6.93917 2.28583 7.2025 2.92918 7.2025 3.7425 7.2025 4.55417 6.93917 5.19667 6.4125 5.67 5.8875 6.145 5.17417 6.3825 4.2725 6.3825 3.85082 6.3825 3.43 6.33582 3.01 6.2425 2.59168 6.14917 2.16417 6.00332 1.7275 5.805L1.7275 11.665Z" fill="#000000" fill-rule="nonzero" fill-opacity="1" transform="matrix(1 0 0 -1 576.896 337.542)"/><path d="M1.46 8.75 9.845 8.75 9.5625 7.3125 8.46 7.3125 7.415 1.9375C7.34167 1.5625 7.35417 1.29167 7.4525 1.125 7.5475 0.963332 7.7375 0.8825 8.0225 0.8825 8.10083 0.8825 8.1975 0.890832 8.3125 0.9075 8.4325 0.9175 8.51083 0.925 8.5475 0.93L8.345-0.11C8.15167-0.176667 7.95582-0.225833 7.7575-0.2575 7.55417-0.289167 7.35667-0.305 7.165-0.305 6.54-0.305 6.14167-0.135833 5.97 0.2025 5.79667 0.5475 5.79917 1.17833 5.9775 2.095L6.9925 7.3125 3.765 7.3125 2.345 0 0.875 0 2.2975 7.3125 1.18 7.3125 1.46 8.75Z" fill="#000000" fill-rule="nonzero" fill-opacity="1" transform="matrix(1 0 0 -1 587.076 337.542)"/><path d="M4.0625 11.665 5.39 11.665 1.3275-1.485 0-1.485 4.0625 11.665Z" fill="#000000" fill-rule="nonzero" fill-opacity="1" transform="matrix(1 0 0 -1 596.708 337.542)"/><path d="M3.07 1.3275 8.5775 1.3275 8.5775 0 1.1725 0 1.1725 1.3275C1.77083 1.9475 2.58668 2.77918 3.62 3.8225 4.655 4.8675 5.305 5.54167 5.57 5.845 6.075 6.41167 6.4275 6.89167 6.6275 7.285 6.82917 7.67833 6.93 8.065 6.93 8.445 6.93 9.065 6.7125 9.57 6.2775 9.96 5.8425 10.3517 5.27583 10.5475 4.5775 10.5475 4.0825 10.5475 3.56 10.4617 3.01 10.29 2.46167 10.1183 1.875 9.8575 1.25 9.5075L1.25 11.1025C1.885 11.3575 2.47833 11.55 3.03 11.68 3.58332 11.81 4.08918 11.875 4.5475 11.875 5.75583 11.875 6.71917 11.5725 7.4375 10.9675 8.15582 10.3642 8.515 9.5575 8.515 8.5475 8.515 8.0675 8.425 7.6125 8.245 7.1825 8.06667 6.75417 7.74 6.24832 7.265 5.665 7.135 5.51333 6.72083 5.07667 6.0225 4.355 5.32583 3.63332 4.34167 2.62418 3.07 1.3275Z" fill="#000000" fill-rule="nonzero" fill-opacity="1" transform="matrix(1 0 0 -1 601.519 337.542)"/><path d="M1.3125 11.665 8.8125 11.665 8.8125 10.9925 4.5775 0 2.93 0 6.915 10.335 1.3125 10.335 1.3125 11.665Z" fill="#000000" fill-rule="nonzero" fill-opacity="1" transform="matrix(1 0 0 -1 737.521 337.542)"/><path d="M1.46 8.75 9.845 8.75 9.5625 7.3125 8.46 7.3125 7.415 1.9375C7.34167 1.5625 7.35417 1.29167 7.4525 1.125 7.5475 0.963332 7.7375 0.8825 8.0225 0.8825 8.10083 0.8825 8.1975 0.890832 8.3125 0.9075 8.4325 0.9175 8.51083 0.925 8.5475 0.93L8.345-0.11C8.15167-0.176667 7.95582-0.225833 7.7575-0.2575 7.55417-0.289167 7.35667-0.305 7.165-0.305 6.54-0.305 6.14167-0.135833 5.97 0.2025 5.79667 0.5475 5.79917 1.17833 5.9775 2.095L6.9925 7.3125 3.765 7.3125 2.345 0 0.875 0 2.2975 7.3125 1.18 7.3125 1.46 8.75Z" fill="#000000" fill-rule="nonzero" fill-opacity="1" transform="matrix(1 0 0 -1 747.701 337.542)"/><path d="M4.0625 11.665 5.39 11.665 1.3275-1.485 0-1.485 4.0625 11.665Z" fill="#000000" fill-rule="nonzero" fill-opacity="1" transform="matrix(1 0 0 -1 757.334 337.542)"/><path d="M3.07 1.3275 8.5775 1.3275 8.5775 0 1.1725 0 1.1725 1.3275C1.77083 1.9475 2.58668 2.77918 3.62 3.8225 4.655 4.8675 5.305 5.54167 5.57 5.845 6.075 6.41167 6.4275 6.89167 6.6275 7.285 6.82917 7.67833 6.93 8.065 6.93 8.445 6.93 9.065 6.7125 9.57 6.2775 9.96 5.8425 10.3517 5.27583 10.5475 4.5775 10.5475 4.0825 10.5475 3.56 10.4617 3.01 10.29 2.46167 10.1183 1.875 9.8575 1.25 9.5075L1.25 11.1025C1.885 11.3575 2.47833 11.55 3.03 11.68 3.58332 11.81 4.08918 11.875 4.5475 11.875 5.75583 11.875 6.71917 11.5725 7.4375 10.9675 8.15582 10.3642 8.515 9.5575 8.515 8.5475 8.515 8.0675 8.425 7.6125 8.245 7.1825 8.06667 6.75417 7.74 6.24832 7.265 5.665 7.135 5.51333 6.72083 5.07667 6.0225 4.355 5.32583 3.63332 4.34167 2.62418 3.07 1.3275Z" fill="#000000" fill-rule="nonzero" fill-opacity="1" transform="matrix(1 0 0 -1 762.145 337.542)"/><path d="M9.5225 1.665 9.5225 4.7975 6.945 4.7975 6.945 6.095 11.085 6.095 11.085 1.085C10.4767 0.653333 9.805 0.326668 9.07 0.105 8.33667-0.116667 7.55333-0.2275 6.72-0.2275 4.89668-0.2275 3.47 0.305 2.44 1.37 1.41167 2.43667 0.8975 3.92 0.8975 5.82 0.8975 7.72667 1.41167 9.2125 2.44 10.2775 3.47 11.3425 4.89668 11.875 6.72 11.875 7.48 11.875 8.2025 11.7808 8.8875 11.5925 9.5725 11.4058 10.2042 11.13 10.7825 10.765L10.7825 9.085C10.1992 9.58 9.57917 9.9525 8.9225 10.2025 8.26583 10.4525 7.57583 10.5775 6.8525 10.5775 5.42417 10.5775 4.35168 10.1792 3.635 9.3825 2.92 8.58582 2.5625 7.39832 2.5625 5.82 2.5625 4.24668 2.92 3.06168 3.635 2.265 4.35168 1.46833 5.42417 1.07 6.8525 1.07 7.40917 1.07 7.90583 1.11833 8.3425 1.215 8.78082 1.31167 9.17417 1.46167 9.5225 1.665Z" fill="#000000" fill-rule="nonzero" fill-opacity="1" transform="matrix(1 0 0 -1 748.32 278.756)"/><path d="M6.5775 7.4075C6.41582 7.50082 6.24 7.56917 6.05 7.6125 5.86 7.6575 5.65083 7.68 5.4225 7.68 4.60918 7.68 3.985 7.41582 3.55 6.8875 3.115 6.35917 2.8975 5.6 2.8975 4.61L2.8975 0 1.4525 0 1.4525 8.75 2.8975 8.75 2.8975 7.39C3.20082 7.92167 3.59418 8.31583 4.0775 8.5725 4.5625 8.83082 5.15167 8.96 5.845 8.96 5.94333 8.96 6.0525 8.95333 6.1725 8.94 6.2925 8.92832 6.425 8.90917 6.57 8.8825L6.5775 7.4075Z" fill="#000000" fill-rule="nonzero" fill-opacity="1" transform="matrix(1 0 0 -1 760.718 278.756)"/><path d="M5.485 4.3975C4.32332 4.3975 3.51832 4.265 3.07 4 2.62168 3.735 2.3975 3.28168 2.3975 2.64 2.3975 2.13 2.56582 1.725 2.9025 1.425 3.23918 1.12667 3.69582 0.9775 4.2725 0.9775 5.07082 0.9775 5.71082 1.26 6.1925 1.825 6.67417 2.39 6.915 3.14082 6.915 4.0775L6.915 4.3975 5.485 4.3975ZM8.3525 4.9925 8.3525 0 6.915 0 6.915 1.3275C6.58667 0.7975 6.1775 0.405832 5.6875 0.1525 5.1975-0.100833 4.59832-0.2275 3.89-0.2275 2.995-0.2275 2.2825 0.0241667 1.7525 0.5275 1.22417 1.03083 0.96 1.70417 0.96 2.5475 0.96 3.53082 1.28917 4.2725 1.9475 4.7725 2.6075 5.2725 3.59082 5.5225 4.8975 5.5225L6.915 5.5225 6.915 5.665C6.915 6.32667 6.6975 6.83833 6.2625 7.2 5.8275 7.56167 5.21667 7.7425 4.43 7.7425 3.93 7.7425 3.4425 7.6825 2.9675 7.5625 2.49417 7.4425 2.03917 7.2625 1.6025 7.0225L1.6025 8.3525C2.1275 8.55583 2.6375 8.7075 3.1325 8.8075 3.6275 8.90917 4.10918 8.96 4.5775 8.96 5.84417 8.96 6.79 8.63167 7.415 7.975 8.04 7.32 8.3525 6.32583 8.3525 4.9925Z" fill="#000000" fill-rule="nonzero" fill-opacity="1" transform="matrix(1 0 0 -1 767.297 278.756)"/><path d="M2.8975 1.3125 2.8975-3.3275 1.4525-3.3275 1.4525 8.75 2.8975 8.75 2.8975 7.4225C3.20082 7.9425 3.5825 8.32833 4.0425 8.58 4.50418 8.83333 5.055 8.96 5.695 8.96 6.75833 8.96 7.62167 8.53833 8.285 7.695 8.95 6.85167 9.2825 5.7425 9.2825 4.3675 9.2825 2.9925 8.95 1.8825 8.285 1.0375 7.62167 0.194167 6.75833-0.2275 5.695-0.2275 5.055-0.2275 4.50418-0.100833 4.0425 0.1525 3.5825 0.405832 3.20082 0.7925 2.8975 1.3125ZM7.79 4.3675C7.79 5.42417 7.5725 6.25332 7.1375 6.855 6.7025 7.45667 6.105 7.7575 5.345 7.7575 4.58332 7.7575 3.985 7.45667 3.55 6.855 3.115 6.25332 2.8975 5.42417 2.8975 4.3675 2.8975 3.31082 3.115 2.48167 3.55 1.88 3.985 1.27833 4.58332 0.9775 5.345 0.9775 6.105 0.9775 6.7025 1.27833 7.1375 1.88 7.5725 2.48167 7.79 3.31082 7.79 4.3675Z" fill="#000000" fill-rule="nonzero" fill-opacity="1" transform="matrix(1 0 0 -1 777.101 278.756)"/><path d="M8.7825 5.2825 8.7825 0 7.345 0 7.345 5.235C7.345 6.06332 7.18332 6.6825 6.86 7.0925 6.53667 7.50417 6.0525 7.71 5.4075 7.71 4.63082 7.71 4.01832 7.4625 3.57 6.9675 3.12168 6.47417 2.8975 5.8 2.8975 4.945L2.8975 0 1.4525 0 1.4525 12.1575 2.8975 12.1575 2.8975 7.39C3.2425 7.91667 3.6475 8.31 4.1125 8.57 4.57917 8.83 5.1175 8.96 5.7275 8.96 6.7325 8.96 7.4925 8.64917 8.0075 8.0275 8.52417 7.40583 8.7825 6.49083 8.7825 5.2825Z" fill="#000000" fill-rule="nonzero" fill-opacity="1" transform="matrix(1 0 0 -1 787.257 278.756)"/><path d="M4.8975 7.7425C4.1275 7.7425 3.51832 7.44167 3.07 6.84 2.62168 6.23833 2.3975 5.41417 2.3975 4.3675 2.3975 3.32082 2.62 2.49667 3.065 1.895 3.51168 1.29333 4.1225 0.9925 4.8975 0.9925 5.66417 0.9925 6.27082 1.29417 6.7175 1.8975 7.16582 2.5025 7.39 3.32582 7.39 4.3675 7.39 5.40417 7.16582 6.22582 6.7175 6.8325 6.27082 7.43917 5.66417 7.7425 4.8975 7.7425ZM4.8975 8.96C6.1475 8.96 7.12917 8.55332 7.8425 7.74 8.5575 6.92833 8.915 5.80417 8.915 4.3675 8.915 2.93582 8.5575 1.81167 7.8425 0.995 7.12917 0.18 6.1475-0.2275 4.8975-0.2275 3.6425-0.2275 2.65918 0.18 1.9475 0.995 1.2375 1.81167 0.8825 2.93582 0.8825 4.3675 0.8825 5.80417 1.2375 6.92833 1.9475 7.74 2.65918 8.55332 3.6425 8.96 4.8975 8.96Z" fill="#000000" fill-rule="nonzero" fill-opacity="1" transform="matrix(1 0 0 -1 802.484 278.756)"/><path d="M5.9375 12.1575 5.9375 10.96 4.5625 10.96C4.0475 10.96 3.68918 10.8558 3.4875 10.6475 3.2875 10.4392 3.1875 10.0642 3.1875 9.5225L3.1875 8.75 5.555 8.75 5.555 7.6325 3.1875 7.6325 3.1875 0 1.7425 0 1.7425 7.6325 0.3675 7.6325 0.3675 8.75 1.7425 8.75 1.7425 9.36C1.7425 10.3333 1.96917 11.0425 2.4225 11.4875 2.87582 11.9342 3.59418 12.1575 4.5775 12.1575L5.9375 12.1575Z" fill="#000000" fill-rule="nonzero" fill-opacity="1" transform="matrix(1 0 0 -1 812.273 278.756)"/><path d="M7.805 8.415 7.805 7.07C7.39832 7.295 6.99083 7.46333 6.5825 7.575 6.17417 7.68667 5.76167 7.7425 5.345 7.7425 4.41167 7.7425 3.68668 7.44667 3.17 6.855 2.655 6.265 2.3975 5.43582 2.3975 4.3675 2.3975 3.29918 2.655 2.46917 3.17 1.8775 3.68668 1.2875 4.41167 0.9925 5.345 0.9925 5.76167 0.9925 6.17417 1.04833 6.5825 1.16 6.99083 1.27167 7.39832 1.44 7.805 1.665L7.805 0.335C7.40333 0.148333 6.9875 0.00833332 6.5575-0.085 6.12917-0.18 5.6725-0.2275 5.1875-0.2275 3.86917-0.2275 2.82168 0.186667 2.045 1.015 1.27 1.84333 0.8825 2.96082 0.8825 4.3675 0.8825 5.79417 1.27417 6.91582 2.0575 7.7325 2.8425 8.55083 3.9175 8.96 5.2825 8.96 5.72417 8.96 6.15583 8.91418 6.5775 8.8225 6.99917 8.7325 7.40833 8.59667 7.805 8.415Z" fill="#000000" fill-rule="nonzero" fill-opacity="1" transform="matrix(1 0 0 -1 822.992 278.756)"/><path d="M4.8975 7.7425C4.1275 7.7425 3.51832 7.44167 3.07 6.84 2.62168 6.23833 2.3975 5.41417 2.3975 4.3675 2.3975 3.32082 2.62 2.49667 3.065 1.895 3.51168 1.29333 4.1225 0.9925 4.8975 0.9925 5.66417 0.9925 6.27082 1.29417 6.7175 1.8975 7.16582 2.5025 7.39 3.32582 7.39 4.3675 7.39 5.40417 7.16582 6.22582 6.7175 6.8325 6.27082 7.43917 5.66417 7.7425 4.8975 7.7425ZM4.8975 8.96C6.1475 8.96 7.12917 8.55332 7.8425 7.74 8.5575 6.92833 8.915 5.80417 8.915 4.3675 8.915 2.93582 8.5575 1.81167 7.8425 0.995 7.12917 0.18 6.1475-0.2275 4.8975-0.2275 3.6425-0.2275 2.65918 0.18 1.9475 0.995 1.2375 1.81167 0.8825 2.93582 0.8825 4.3675 0.8825 5.80417 1.2375 6.92833 1.9475 7.74 2.65918 8.55332 3.6425 8.96 4.8975 8.96Z" fill="#000000" fill-rule="nonzero" fill-opacity="1" transform="matrix(1 0 0 -1 831.789 278.756)"/><path d="M7.085 8.4925 7.085 7.1325C6.68 7.34083 6.25833 7.49667 5.82 7.6 5.38333 7.705 4.93 7.7575 4.46 7.7575 3.74668 7.7575 3.21167 7.64832 2.855 7.43 2.49833 7.21167 2.32 6.88333 2.32 6.445 2.32 6.11167 2.4475 5.85 2.7025 5.66 2.9575 5.47 3.47082 5.28917 4.2425 5.1175L4.735 5.0075C5.755 4.78918 6.48 4.48082 6.91 4.0825 7.34 3.68418 7.555 3.12832 7.555 2.415 7.555 1.60167 7.23333 0.9575 6.59 0.4825 5.94667 0.00916667 5.0625-0.2275 3.9375-0.2275 3.46918-0.2275 2.98082-0.181667 2.4725-0.09 1.96417 0.00166667 1.42917 0.138333 0.8675 0.32L0.8675 1.805C1.39917 1.52833 1.9225 1.32083 2.4375 1.1825 2.9525 1.04583 3.46332 0.9775 3.97 0.9775 4.64668 0.9775 5.16667 1.09333 5.53 1.325 5.895 1.55667 6.0775 1.88333 6.0775 2.305 6.0775 2.695 5.94583 2.99417 5.6825 3.2025 5.42083 3.41082 4.84417 3.61168 3.9525 3.805L3.4525 3.9225C2.5625 4.10918 1.91917 4.39668 1.5225 4.785 1.1275 5.17333 0.93 5.70582 0.93 6.3825 0.93 7.20582 1.22167 7.84083 1.805 8.2875 2.38833 8.73582 3.21668 8.96 4.29 8.96 4.82 8.96 5.31917 8.92083 5.7875 8.8425 6.2575 8.76583 6.69 8.64917 7.085 8.4925Z" fill="#000000" fill-rule="nonzero" fill-opacity="1" transform="matrix(1 0 0 -1 841.578 278.756)"/><path d="M9.6025 8.75 5.585 4.46 8.0475 0 6.3975 0 4.5475 3.47 1.3275 0-0.415 0 3.89 4.61 1.6025 8.75 3.25 8.75 4.93 5.585 7.86 8.75 9.6025 8.75Z" fill="#000000" fill-rule="nonzero" fill-opacity="1" transform="matrix(1 0 0 -1 852.512 278.756)"/></g></g></g></g></svg>