<?xml version="1.0" encoding="UTF-8" standalone="no"?>
<!-- Created with Inkscape (http://www.inkscape.org/) -->

<svg
   width="77.236053mm"
   height="52.283932mm"
   viewBox="0 0 77.236056 52.283932"
   version="1.1"
   id="svg5"
   inkscape:version="1.2 (dc2aeda, 2022-05-15)"
   sodipodi:docname="triangle-sine-formula.svg"
   inkscape:export-filename="triangle-sine-formula.png"
   inkscape:export-xdpi="96"
   inkscape:export-ydpi="96"
   xmlns:inkscape="http://www.inkscape.org/namespaces/inkscape"
   xmlns:sodipodi="http://sodipodi.sourceforge.net/DTD/sodipodi-0.dtd"
   xmlns="http://www.w3.org/2000/svg"
   xmlns:svg="http://www.w3.org/2000/svg"
   xmlns:ns1="http://www.iki.fi/pav/software/textext/">
  <sodipodi:namedview
     id="namedview7"
     pagecolor="#ffffff"
     bordercolor="#000000"
     borderopacity="0.25"
     inkscape:showpageshadow="2"
     inkscape:pageopacity="0.0"
     inkscape:pagecheckerboard="0"
     inkscape:deskcolor="#d1d1d1"
     inkscape:document-units="mm"
     showgrid="false"
     inkscape:zoom="1.044997"
     inkscape:cx="104.78499"
     inkscape:cy="72.249011"
     inkscape:window-width="1440"
     inkscape:window-height="847"
     inkscape:window-x="0"
     inkscape:window-y="25"
     inkscape:window-maximized="0"
     inkscape:current-layer="layer1" />
  <defs
     id="defs2">
    <clipPath
       clipPathUnits="userSpaceOnUse"
       id="clipPath1916">
      <path
         style="fill:none;fill-opacity:0.78012;stroke:#000000;stroke-width:0.499999;stroke-linecap:round;stroke-linejoin:bevel;stroke-dasharray:none"
         d="m 82.74046,58.596522 67.27749,28.48442 -76.772298,23.330098 z"
         id="path1918" />
    </clipPath>
  </defs>
  <g
     inkscape:label="Layer 1"
     inkscape:groupmode="layer"
     id="layer1"
     transform="translate(-21.420269,-22.001843)">
    <path
       style="fill:none;fill-opacity:0.78012;stroke:#000000;stroke-width:0.499999;stroke-linecap:round;stroke-linejoin:bevel;stroke-dasharray:none"
       id="path1834"
       transform="scale(1,-1)"
       sodipodi:type="arc"
       sodipodi:cx="21.852516"
       sodipodi:cy="-74.016014"
       sodipodi:rx="6.917645"
       sodipodi:ry="6.917645"
       sodipodi:start="0.29044937"
       sodipodi:end="1.3900846"
       sodipodi:arc-type="slice"
       d="m 28.480418,-72.03492 a 6.917645,6.917645 0 0 1 -5.384595,4.823904 l -1.243307,-6.804998 z" />
    <path
       style="fill:none;fill-opacity:0.78012;stroke:#000000;stroke-width:0.499999;stroke-linecap:round;stroke-linejoin:bevel;stroke-dasharray:none"
       id="path1834-3"
       transform="scale(1,-1)"
       sodipodi:type="arc"
       sodipodi:cx="98.348999"
       sodipodi:cy="-51.399174"
       sodipodi:rx="6.917645"
       sodipodi:ry="6.917645"
       sodipodi:start="2.6311548"
       sodipodi:end="3.3325954"
       sodipodi:arc-type="arc"
       d="m 92.313142,-48.019494 a 6.917645,6.917645 0 0 1 -0.755986,-4.69295"
       sodipodi:open="true" />
    <circle
       style="fill:none;fill-opacity:0.78012;stroke:#000000;stroke-width:0.499999;stroke-linecap:round;stroke-linejoin:bevel;stroke-dasharray:none"
       id="path1834-3-9"
       cx="83.554306"
       cy="59.410358"
       r="6.917645"
       clip-path="url(#clipPath1916)"
       transform="translate(-51.397675,-36.48222)" />
    <path
       style="fill:none;fill-opacity:0.78012;stroke:#000000;stroke-width:0.499999;stroke-linecap:round;stroke-linejoin:bevel;stroke-dasharray:none"
       d="m 31.281365,22.232059 67.27749,28.48442 -76.7723,23.330097 z"
       id="path389-0" />
    <g
       transform="matrix(0.705556,0,0,0.705556,26.383985,64.363136)"
       ns1:version="1.8.2"
       ns1:texconverter="pdflatex"
       ns1:pdfconverter="inkscape"
       ns1:text="$\\alpha$"
       ns1:preamble="/Users/jvkersch/Library/Application Support/org.inkscape.Inkscape/config/inkscape/extensions/textext/default_packages.tex"
       ns1:scale="2.0"
       ns1:alignment="middle center"
       ns1:stroke-to-path="0"
       ns1:inkscapeversion="1.2"
       ns1:jacobian_sqrt="0.705556"
       id="g4739">
      <defs
         id="id-a87807f6-d9f5-4852-84d7-80d51f30fccf">
        <g
           id="id-e3ad0a8b-0c9a-40d5-a0ff-0bf71ad106fe">
          <g
             id="id-f4a6724c-0be8-4b02-ac01-961e6c529071" />
          <g
             id="id-7f41da0f-a81c-43ec-8e0c-233c515b910c">
            <path
               d="m 4.75,-2.359375 c 0,-1.5625 -0.921875,-2.046875 -1.65625,-2.046875 -1.375,0 -2.6875,1.421875 -2.6875,2.828125 0,0.9375 0.59375,1.6875 1.625,1.6875 0.625,0 1.34375,-0.234375 2.09375,-0.84375 0.125,0.53125 0.453125,0.84375 0.90625,0.84375 0.53125,0 0.84375,-0.546875 0.84375,-0.703125 0,-0.078125 -0.0625,-0.109375 -0.125,-0.109375 -0.0625,0 -0.09375,0.03125 -0.125,0.109375 -0.1875,0.484375 -0.546875,0.484375 -0.5625,0.484375 -0.3125,0 -0.3125,-0.78125 -0.3125,-1.015625 0,-0.203125 0,-0.234375 0.109375,-0.34375 C 5.796875,-2.65625 6,-3.8125 6,-3.8125 6,-3.84375 5.984375,-3.921875 5.875,-3.921875 c -0.09375,0 -0.09375,0.03125 -0.140625,0.21875 -0.1875,0.625 -0.515625,1.375 -0.984375,1.96875 z m -0.65625,1.375 c -0.890625,0.765625 -1.65625,0.875 -2.046875,0.875 -0.59375,0 -0.90625,-0.453125 -0.90625,-1.09375 0,-0.484375 0.265625,-1.5625 0.578125,-2.0625 C 2.1875,-4 2.734375,-4.1875 3.078125,-4.1875 c 0.984375,0 0.984375,1.3125 0.984375,2.078125 0,0.375 0,0.953125 0.03125,1.125 z m 0,0"
               id="id-7cb913d5-7d50-458b-a175-501c18dd3bcc" />
          </g>
        </g>
      </defs>
      <g
         fill="#000000"
         fill-opacity="1"
         id="id-7517aa28-5b90-445c-846a-f6aff22a6bf7"
         transform="translate(-149.118,-130.359)">
        <g
           transform="translate(148.712,134.765)"
           id="g4736">
          <path
             d="m 4.75,-2.359375 c 0,-1.5625 -0.921875,-2.046875 -1.65625,-2.046875 -1.375,0 -2.6875,1.421875 -2.6875,2.828125 0,0.9375 0.59375,1.6875 1.625,1.6875 0.625,0 1.34375,-0.234375 2.09375,-0.84375 0.125,0.53125 0.453125,0.84375 0.90625,0.84375 0.53125,0 0.84375,-0.546875 0.84375,-0.703125 0,-0.078125 -0.0625,-0.109375 -0.125,-0.109375 -0.0625,0 -0.09375,0.03125 -0.125,0.109375 -0.1875,0.484375 -0.546875,0.484375 -0.5625,0.484375 -0.3125,0 -0.3125,-0.78125 -0.3125,-1.015625 0,-0.203125 0,-0.234375 0.109375,-0.34375 C 5.796875,-2.65625 6,-3.8125 6,-3.8125 6,-3.84375 5.984375,-3.921875 5.875,-3.921875 c -0.09375,0 -0.09375,0.03125 -0.140625,0.21875 -0.1875,0.625 -0.515625,1.375 -0.984375,1.96875 z m -0.65625,1.375 c -0.890625,0.765625 -1.65625,0.875 -2.046875,0.875 -0.59375,0 -0.90625,-0.453125 -0.90625,-1.09375 0,-0.484375 0.265625,-1.5625 0.578125,-2.0625 C 2.1875,-4 2.734375,-4.1875 3.078125,-4.1875 c 0.984375,0 0.984375,1.3125 0.984375,2.078125 0,0.375 0,0.953125 0.03125,1.125 z m 0,0"
             id="id-f8c5a9fa-fbe4-4893-bf19-de36f9d8f2c2" />
        </g>
      </g>
    </g>
    <g
       transform="matrix(0.705556,0,0,0.705556,36.313518,28.864602)"
       ns1:version="1.8.2"
       ns1:texconverter="pdflatex"
       ns1:pdfconverter="inkscape"
       ns1:text="$\\beta$"
       ns1:preamble="/Users/jvkersch/Library/Application Support/org.inkscape.Inkscape/config/inkscape/extensions/textext/default_packages.tex"
       ns1:scale="2.0"
       ns1:alignment="middle center"
       ns1:stroke-to-path="0"
       ns1:inkscapeversion="1.2"
       ns1:jacobian_sqrt="0.705556"
       id="g4797">
      <defs
         id="id-3ff9c5a0-16bc-4c4c-a1c4-ed79dc550075">
        <g
           id="id-37fd8d7f-7928-4cb5-ae8c-09e65c515516">
          <g
             id="id-85901d30-1b06-4263-b85e-28d7b02abed7" />
          <g
             id="id-9e0a42c7-af8e-4115-b7d7-660ce4edcdcd">
            <path
               d="m 5.734375,-5.671875 c 0,-0.75 -0.546875,-1.359375 -1.359375,-1.359375 -0.578125,0 -0.859375,0.15625 -1.203125,0.40625 C 2.625,-6.21875 2.078125,-5.25 1.890625,-4.5 L 0.296875,1.828125 C 0.296875,1.875 0.34375,1.9375 0.421875,1.9375 0.5,1.9375 0.53125,1.90625 0.53125,1.890625 L 1.234375,-0.875 c 0.1875,0.609375 0.625,0.96875 1.359375,0.96875 C 3.3125,0.09375 4.0625,-0.25 4.515625,-0.6875 5,-1.140625 5.3125,-1.78125 5.3125,-2.515625 c 0,-0.71875 -0.375,-1.25 -0.734375,-1.484375 0.578125,-0.34375 1.15625,-0.953125 1.15625,-1.671875 z M 3.9375,-4.015625 c -0.125,0.046875 -0.234375,0.0625 -0.484375,0.0625 -0.140625,0 -0.328125,0.015625 -0.4375,-0.03125 0.03125,-0.109375 0.390625,-0.078125 0.5,-0.078125 0.203125,0 0.296875,0 0.421875,0.046875 z M 5.171875,-5.90625 c 0,0.703125 -0.375,1.421875 -0.890625,1.734375 C 4,-4.28125 3.8125,-4.296875 3.515625,-4.296875 c -0.21875,0 -0.78125,-0.015625 -0.78125,0.3125 0,0.28125 0.515625,0.25 0.6875,0.25 0.375,0 0.53125,0 0.828125,-0.125 0.375,0.359375 0.421875,0.671875 0.4375,1.125 0.015625,0.578125 -0.21875,1.328125 -0.5,1.71875 C 3.796875,-0.484375 3.125,-0.125 2.5625,-0.125 c -0.765625,0 -1.140625,-0.578125 -1.140625,-1.28125 0,-0.09375 0,-0.25 0.046875,-0.4375 L 2.109375,-4.359375 C 2.328125,-5.21875 3.046875,-6.8125 4.25,-6.8125 c 0.578125,0 0.921875,0.3125 0.921875,0.90625 z m 0,0"
               id="id-7d5631cc-ba72-4607-9777-f24c9e2c8674" />
          </g>
        </g>
      </defs>
      <g
         fill="#000000"
         fill-opacity="1"
         id="id-dfe33d0b-7ab4-4b38-9845-27244f76244f"
         transform="translate(-149.009,-127.734)">
        <g
           transform="translate(148.712,134.765)"
           id="g4794">
          <path
             d="m 5.734375,-5.671875 c 0,-0.75 -0.546875,-1.359375 -1.359375,-1.359375 -0.578125,0 -0.859375,0.15625 -1.203125,0.40625 C 2.625,-6.21875 2.078125,-5.25 1.890625,-4.5 L 0.296875,1.828125 C 0.296875,1.875 0.34375,1.9375 0.421875,1.9375 0.5,1.9375 0.53125,1.90625 0.53125,1.890625 L 1.234375,-0.875 c 0.1875,0.609375 0.625,0.96875 1.359375,0.96875 C 3.3125,0.09375 4.0625,-0.25 4.515625,-0.6875 5,-1.140625 5.3125,-1.78125 5.3125,-2.515625 c 0,-0.71875 -0.375,-1.25 -0.734375,-1.484375 0.578125,-0.34375 1.15625,-0.953125 1.15625,-1.671875 z M 3.9375,-4.015625 c -0.125,0.046875 -0.234375,0.0625 -0.484375,0.0625 -0.140625,0 -0.328125,0.015625 -0.4375,-0.03125 0.03125,-0.109375 0.390625,-0.078125 0.5,-0.078125 0.203125,0 0.296875,0 0.421875,0.046875 z M 5.171875,-5.90625 c 0,0.703125 -0.375,1.421875 -0.890625,1.734375 C 4,-4.28125 3.8125,-4.296875 3.515625,-4.296875 c -0.21875,0 -0.78125,-0.015625 -0.78125,0.3125 0,0.28125 0.515625,0.25 0.6875,0.25 0.375,0 0.53125,0 0.828125,-0.125 0.375,0.359375 0.421875,0.671875 0.4375,1.125 0.015625,0.578125 -0.21875,1.328125 -0.5,1.71875 C 3.796875,-0.484375 3.125,-0.125 2.5625,-0.125 c -0.765625,0 -1.140625,-0.578125 -1.140625,-1.28125 0,-0.09375 0,-0.25 0.046875,-0.4375 L 2.109375,-4.359375 C 2.328125,-5.21875 3.046875,-6.8125 4.25,-6.8125 c 0.578125,0 0.921875,0.3125 0.921875,0.90625 z m 0,0"
             id="id-40cf3a3f-20be-42dc-b081-78cb6ec8f0e0" />
        </g>
      </g>
    </g>
    <g
       transform="matrix(0.705556,0,0,0.705556,86.010555,47.695128)"
       ns1:version="1.8.2"
       ns1:texconverter="pdflatex"
       ns1:pdfconverter="inkscape"
       ns1:text="$\\gamma$"
       ns1:preamble="/Users/jvkersch/Library/Application Support/org.inkscape.Inkscape/config/inkscape/extensions/textext/default_packages.tex"
       ns1:scale="2.0"
       ns1:alignment="middle center"
       ns1:stroke-to-path="0"
       ns1:inkscapeversion="1.2"
       ns1:jacobian_sqrt="0.705556"
       id="g4873">
      <defs
         id="id-3bf0bb70-3caa-4f22-a5d8-dab8438f1538">
        <g
           id="id-0c5b04e4-cb39-4fc6-bc93-73ad7c8b654d">
          <g
             id="id-1ffa9b04-782e-4e14-a18f-cbdabf921be6" />
          <g
             id="id-79552719-3cf0-42ca-a45b-5ee570c1641d">
            <path
               d="M 0.40625,-2.53125 C 0.796875,-3.671875 1.890625,-3.6875 2,-3.6875 c 1.5,0 1.609375,1.75 1.609375,2.53125 0,0.609375 -0.046875,0.78125 -0.125,0.984375 -0.21875,0.71875 -0.515625,1.875 -0.515625,2.140625 0,0.109375 0.046875,0.171875 0.125,0.171875 0.140625,0 0.21875,-0.21875 0.328125,-0.59375 C 3.65625,0.703125 3.75,0.140625 3.78125,-0.171875 c 0.03125,-0.125 0.046875,-0.25 0.09375,-0.390625 0.3125,-0.984375 0.953125,-2.46875 1.34375,-3.25 0.078125,-0.125 0.1875,-0.34375 0.1875,-0.390625 0,-0.09375 -0.09375,-0.09375 -0.109375,-0.09375 -0.03125,0 -0.09375,0 -0.125,0.0625 C 4.65625,-3.28125 4.25,-2.28125 3.859375,-1.28125 3.84375,-1.578125 3.84375,-2.34375 3.453125,-3.3125 3.203125,-3.921875 2.8125,-4.40625 2.125,-4.40625 c -1.25,0 -1.953125,1.515625 -1.953125,1.828125 0,0.09375 0.09375,0.09375 0.203125,0.09375 z m 0,0"
               id="id-a3ef9ca3-d1e7-4fe8-b9ea-4e7c05273eb5" />
          </g>
        </g>
      </defs>
      <g
         fill="#000000"
         fill-opacity="1"
         id="id-6715d658-c788-4c84-86c1-0a6e985208fb"
         transform="translate(-148.884,-130.359)">
        <g
           transform="translate(148.712,134.765)"
           id="g4870">
          <path
             d="M 0.40625,-2.53125 C 0.796875,-3.671875 1.890625,-3.6875 2,-3.6875 c 1.5,0 1.609375,1.75 1.609375,2.53125 0,0.609375 -0.046875,0.78125 -0.125,0.984375 -0.21875,0.71875 -0.515625,1.875 -0.515625,2.140625 0,0.109375 0.046875,0.171875 0.125,0.171875 0.140625,0 0.21875,-0.21875 0.328125,-0.59375 C 3.65625,0.703125 3.75,0.140625 3.78125,-0.171875 c 0.03125,-0.125 0.046875,-0.25 0.09375,-0.390625 0.3125,-0.984375 0.953125,-2.46875 1.34375,-3.25 0.078125,-0.125 0.1875,-0.34375 0.1875,-0.390625 0,-0.09375 -0.09375,-0.09375 -0.109375,-0.09375 -0.03125,0 -0.09375,0 -0.125,0.0625 C 4.65625,-3.28125 4.25,-2.28125 3.859375,-1.28125 3.84375,-1.578125 3.84375,-2.34375 3.453125,-3.3125 3.203125,-3.921875 2.8125,-4.40625 2.125,-4.40625 c -1.25,0 -1.953125,1.515625 -1.953125,1.828125 0,0.09375 0.09375,0.09375 0.203125,0.09375 z m 0,0"
             id="id-34ed7de5-8eee-4962-934d-f6eae87a844e" />
        </g>
      </g>
    </g>
    <g
       transform="matrix(0.705556,0,0,0.705556,64.219985,30.688792)"
       ns1:version="1.8.2"
       ns1:texconverter="pdflatex"
       ns1:pdfconverter="inkscape"
       ns1:text="$a$"
       ns1:preamble="/Users/jvkersch/Library/Application Support/org.inkscape.Inkscape/config/inkscape/extensions/textext/default_packages.tex"
       ns1:scale="2.0"
       ns1:alignment="middle center"
       ns1:stroke-to-path="0"
       ns1:inkscapeversion="1.2"
       ns1:jacobian_sqrt="0.705556"
       id="g4967">
      <defs
         id="id-213c3e78-11d6-4a74-a919-af4fa3494da8">
        <g
           id="id-275dac9f-5c92-4fc4-9677-4f3bd74fa84b">
          <g
             id="id-06171d5b-3c6c-43a7-965e-a71cb2d4e30e" />
          <g
             id="id-56649a80-31da-4620-847d-32e08abb4f59">
            <path
               d="M 3.71875,-3.765625 C 3.53125,-4.140625 3.25,-4.40625 2.796875,-4.40625 c -1.15625,0 -2.390625,1.46875 -2.390625,2.921875 0,0.9375 0.546875,1.59375 1.3125,1.59375 0.203125,0 0.703125,-0.046875 1.296875,-0.75 0.078125,0.421875 0.4375,0.75 0.90625,0.75 0.359375,0 0.578125,-0.234375 0.75,-0.546875 0.15625,-0.359375 0.296875,-0.96875 0.296875,-0.984375 0,-0.109375 -0.09375,-0.109375 -0.125,-0.109375 -0.09375,0 -0.109375,0.046875 -0.140625,0.1875 -0.171875,0.640625 -0.34375,1.234375 -0.75,1.234375 -0.28125,0 -0.296875,-0.265625 -0.296875,-0.453125 0,-0.21875 0.015625,-0.3125 0.125,-0.75 C 3.890625,-1.71875 3.90625,-1.828125 4,-2.203125 L 4.359375,-3.59375 c 0.0625,-0.28125 0.0625,-0.296875 0.0625,-0.34375 0,-0.171875 -0.109375,-0.265625 -0.28125,-0.265625 -0.25,0 -0.390625,0.21875 -0.421875,0.4375 z M 3.078125,-1.1875 C 3.015625,-1 3.015625,-0.984375 2.875,-0.8125 2.4375,-0.265625 2.03125,-0.109375 1.75,-0.109375 c -0.5,0 -0.640625,-0.546875 -0.640625,-0.9375 0,-0.5 0.3125,-1.71875 0.546875,-2.1875 0.3125,-0.578125 0.75,-0.953125 1.15625,-0.953125 0.640625,0 0.78125,0.8125 0.78125,0.875 0,0.0625 -0.015625,0.125 -0.03125,0.171875 z m 0,0"
               id="id-78f8cba5-4919-41d8-b686-d3201a62ffd5" />
          </g>
        </g>
      </defs>
      <g
         fill="#000000"
         fill-opacity="1"
         id="id-5e974b5e-410a-414c-a325-5ff102e80ed6"
         transform="translate(-149.118,-130.359)">
        <g
           transform="translate(148.712,134.765)"
           id="g4964">
          <path
             d="M 3.71875,-3.765625 C 3.53125,-4.140625 3.25,-4.40625 2.796875,-4.40625 c -1.15625,0 -2.390625,1.46875 -2.390625,2.921875 0,0.9375 0.546875,1.59375 1.3125,1.59375 0.203125,0 0.703125,-0.046875 1.296875,-0.75 0.078125,0.421875 0.4375,0.75 0.90625,0.75 0.359375,0 0.578125,-0.234375 0.75,-0.546875 0.15625,-0.359375 0.296875,-0.96875 0.296875,-0.984375 0,-0.109375 -0.09375,-0.109375 -0.125,-0.109375 -0.09375,0 -0.109375,0.046875 -0.140625,0.1875 -0.171875,0.640625 -0.34375,1.234375 -0.75,1.234375 -0.28125,0 -0.296875,-0.265625 -0.296875,-0.453125 0,-0.21875 0.015625,-0.3125 0.125,-0.75 C 3.890625,-1.71875 3.90625,-1.828125 4,-2.203125 L 4.359375,-3.59375 c 0.0625,-0.28125 0.0625,-0.296875 0.0625,-0.34375 0,-0.171875 -0.109375,-0.265625 -0.28125,-0.265625 -0.25,0 -0.390625,0.21875 -0.421875,0.4375 z M 3.078125,-1.1875 C 3.015625,-1 3.015625,-0.984375 2.875,-0.8125 2.4375,-0.265625 2.03125,-0.109375 1.75,-0.109375 c -0.5,0 -0.640625,-0.546875 -0.640625,-0.9375 0,-0.5 0.3125,-1.71875 0.546875,-2.1875 0.3125,-0.578125 0.75,-0.953125 1.15625,-0.953125 0.640625,0 0.78125,0.8125 0.78125,0.875 0,0.0625 -0.015625,0.125 -0.03125,0.171875 z m 0,0"
             id="id-59b86a2c-ec28-4d48-a9f3-e266d1b198e1" />
        </g>
      </g>
    </g>
    <g
       transform="matrix(0.705556,0,0,0.705556,60.989515,64.212916)"
       ns1:version="1.8.2"
       ns1:texconverter="pdflatex"
       ns1:pdfconverter="inkscape"
       ns1:text="$b$"
       ns1:preamble="/Users/jvkersch/Library/Application Support/org.inkscape.Inkscape/config/inkscape/extensions/textext/default_packages.tex"
       ns1:scale="2.0"
       ns1:alignment="middle center"
       ns1:stroke-to-path="0"
       ns1:inkscapeversion="1.2"
       ns1:jacobian_sqrt="0.705556"
       id="g5079">
      <defs
         id="id-3dd74a6c-98aa-48af-98f1-6d04122e23fa">
        <g
           id="id-a17e3164-143a-4700-b098-f6b9b40251c5">
          <g
             id="id-a92b4932-fd3d-4798-bc45-5ec85541fcc0" />
          <g
             id="id-fb697a09-420b-4bbc-b242-82119492c86e">
            <path
               d="m 2.375,-6.8125 c 0,0 0,-0.109375 -0.125,-0.109375 -0.21875,0 -0.953125,0.078125 -1.21875,0.109375 -0.078125,0 -0.1875,0.015625 -0.1875,0.1875 0,0.125 0.09375,0.125 0.25,0.125 0.46875,0 0.484375,0.0625 0.484375,0.171875 0,0.0625 -0.078125,0.40625 -0.125,0.609375 l -0.828125,3.25 c -0.109375,0.5 -0.15625,0.671875 -0.15625,1.015625 0,0.9375 0.53125,1.5625 1.265625,1.5625 1.171875,0 2.40625,-1.484375 2.40625,-2.921875 0,-0.90625 -0.53125,-1.59375 -1.328125,-1.59375 -0.453125,0 -0.875,0.296875 -1.171875,0.59375 z M 1.453125,-3.046875 C 1.5,-3.265625 1.5,-3.28125 1.59375,-3.390625 2.078125,-4.03125 2.53125,-4.1875 2.796875,-4.1875 c 0.359375,0 0.625,0.296875 0.625,0.9375 0,0.59375 -0.328125,1.734375 -0.515625,2.109375 -0.328125,0.671875 -0.78125,1.03125 -1.171875,1.03125 -0.34375,0 -0.671875,-0.265625 -0.671875,-1 0,-0.203125 0,-0.390625 0.15625,-1.015625 z m 0,0"
               id="id-f2ee3e3a-51e6-4d95-8938-bbe60b05918d" />
          </g>
        </g>
      </defs>
      <g
         fill="#000000"
         fill-opacity="1"
         id="id-5fa42827-fc0c-44ec-8317-48b605dd2a85"
         transform="translate(-149.181,-127.843)">
        <g
           transform="translate(148.712,134.765)"
           id="g5076">
          <path
             d="m 2.375,-6.8125 c 0,0 0,-0.109375 -0.125,-0.109375 -0.21875,0 -0.953125,0.078125 -1.21875,0.109375 -0.078125,0 -0.1875,0.015625 -0.1875,0.1875 0,0.125 0.09375,0.125 0.25,0.125 0.46875,0 0.484375,0.0625 0.484375,0.171875 0,0.0625 -0.078125,0.40625 -0.125,0.609375 l -0.828125,3.25 c -0.109375,0.5 -0.15625,0.671875 -0.15625,1.015625 0,0.9375 0.53125,1.5625 1.265625,1.5625 1.171875,0 2.40625,-1.484375 2.40625,-2.921875 0,-0.90625 -0.53125,-1.59375 -1.328125,-1.59375 -0.453125,0 -0.875,0.296875 -1.171875,0.59375 z M 1.453125,-3.046875 C 1.5,-3.265625 1.5,-3.28125 1.59375,-3.390625 2.078125,-4.03125 2.53125,-4.1875 2.796875,-4.1875 c 0.359375,0 0.625,0.296875 0.625,0.9375 0,0.59375 -0.328125,1.734375 -0.515625,2.109375 -0.328125,0.671875 -0.78125,1.03125 -1.171875,1.03125 -0.34375,0 -0.671875,-0.265625 -0.671875,-1 0,-0.203125 0,-0.390625 0.15625,-1.015625 z m 0,0"
             id="id-12b8d9b9-8f38-4445-9301-38d3fedbc652" />
        </g>
      </g>
    </g>
    <g
       transform="matrix(0.705556,0,0,0.705556,21.420093,45.880223)"
       ns1:version="1.8.2"
       ns1:texconverter="pdflatex"
       ns1:pdfconverter="inkscape"
       ns1:text="$c$"
       ns1:preamble="/Users/jvkersch/Library/Application Support/org.inkscape.Inkscape/config/inkscape/extensions/textext/default_packages.tex"
       ns1:scale="2.0"
       ns1:alignment="middle center"
       ns1:stroke-to-path="0"
       ns1:inkscapeversion="1.2"
       ns1:jacobian_sqrt="0.705556"
       id="g5209">
      <defs
         id="id-79d9b398-c978-4f92-97ea-0577d5897024">
        <g
           id="id-91452e4c-d622-4177-ae6a-cce29679d6ef">
          <g
             id="id-d3c426db-5e42-48c3-9a35-c7a5f19da9bc" />
          <g
             id="id-4e96ad8c-f301-4c83-bdc2-bde90c32ccb2">
            <path
               d="m 3.953125,-3.78125 c -0.171875,0 -0.296875,0 -0.4375,0.125 -0.171875,0.15625 -0.1875,0.328125 -0.1875,0.390625 0,0.25 0.1875,0.359375 0.375,0.359375 0.28125,0 0.546875,-0.25 0.546875,-0.640625 0,-0.484375 -0.46875,-0.859375 -1.171875,-0.859375 -1.34375,0 -2.671875,1.421875 -2.671875,2.828125 0,0.90625 0.578125,1.6875 1.625,1.6875 1.421875,0 2.25,-1.0625 2.25,-1.171875 0,-0.0625 -0.046875,-0.140625 -0.109375,-0.140625 -0.0625,0 -0.078125,0.03125 -0.140625,0.109375 -0.78125,0.984375 -1.875,0.984375 -1.984375,0.984375 -0.625,0 -0.90625,-0.484375 -0.90625,-1.09375 0,-0.40625 0.203125,-1.375 0.546875,-1.984375 0.3125,-0.578125 0.859375,-1 1.40625,-1 0.328125,0 0.71875,0.125 0.859375,0.40625 z m 0,0"
               id="id-044b1914-3575-46a4-8970-313ecf1453ac" />
          </g>
        </g>
      </defs>
      <g
         fill="#000000"
         fill-opacity="1"
         id="id-2bc1ab91-9553-4799-95ef-0fc103a90f0b"
         transform="translate(-149.118,-130.359)">
        <g
           transform="translate(148.712,134.765)"
           id="g5206">
          <path
             d="m 3.953125,-3.78125 c -0.171875,0 -0.296875,0 -0.4375,0.125 -0.171875,0.15625 -0.1875,0.328125 -0.1875,0.390625 0,0.25 0.1875,0.359375 0.375,0.359375 0.28125,0 0.546875,-0.25 0.546875,-0.640625 0,-0.484375 -0.46875,-0.859375 -1.171875,-0.859375 -1.34375,0 -2.671875,1.421875 -2.671875,2.828125 0,0.90625 0.578125,1.6875 1.625,1.6875 1.421875,0 2.25,-1.0625 2.25,-1.171875 0,-0.0625 -0.046875,-0.140625 -0.109375,-0.140625 -0.0625,0 -0.078125,0.03125 -0.140625,0.109375 -0.78125,0.984375 -1.875,0.984375 -1.984375,0.984375 -0.625,0 -0.90625,-0.484375 -0.90625,-1.09375 0,-0.40625 0.203125,-1.375 0.546875,-1.984375 0.3125,-0.578125 0.859375,-1 1.40625,-1 0.328125,0 0.71875,0.125 0.859375,0.40625 z m 0,0"
             id="id-a453ff9d-643e-4136-bad7-66ce143d4f1c" />
        </g>
      </g>
    </g>
  </g>
</svg>
