<?xml version="1.0" encoding="UTF-8" standalone="no"?>
<!-- Created with Inkscape (http://www.inkscape.org/) -->

<svg
   width="77.063843mm"
   height="35.383091mm"
   viewBox="0 0 77.063843 35.383091"
   version="1.1"
   id="svg13034"
   sodipodi:docname="triangle-ambiguous-1.svg"
   inkscape:version="1.2 (dc2aeda, 2022-05-15)"
   xmlns:inkscape="http://www.inkscape.org/namespaces/inkscape"
   xmlns:sodipodi="http://sodipodi.sourceforge.net/DTD/sodipodi-0.dtd"
   xmlns="http://www.w3.org/2000/svg"
   xmlns:svg="http://www.w3.org/2000/svg"
   xmlns:ns1="http://www.iki.fi/pav/software/textext/">
  <sodipodi:namedview
     id="namedview13036"
     pagecolor="#ffffff"
     bordercolor="#000000"
     borderopacity="0.25"
     inkscape:showpageshadow="2"
     inkscape:pageopacity="0.0"
     inkscape:pagecheckerboard="0"
     inkscape:deskcolor="#d1d1d1"
     inkscape:document-units="mm"
     showgrid="false"
     inkscape:zoom="1.4790474"
     inkscape:cx="207.90409"
     inkscape:cy="126.77079"
     inkscape:window-width="1390"
     inkscape:window-height="1205"
     inkscape:window-x="0"
     inkscape:window-y="25"
     inkscape:window-maximized="0"
     inkscape:current-layer="layer1" />
  <defs
     id="defs13031">
    <inkscape:path-effect
       effect="spiro"
       id="path-effect13989"
       is_visible="true"
       lpeversion="1" />
    <inkscape:path-effect
       effect="spiro"
       id="path-effect13985"
       is_visible="true"
       lpeversion="1" />
    <inkscape:path-effect
       effect="spiro"
       id="path-effect13885"
       is_visible="true"
       lpeversion="1" />
  </defs>
  <g
     inkscape:label="Layer 1"
     inkscape:groupmode="layer"
     id="layer1"
     transform="translate(-21.75321,-118.35253)">
    <path
       style="fill:none;fill-opacity:0.85;stroke:#000000;stroke-width:0.8;stroke-linecap:round;stroke-linejoin:round;stroke-dasharray:none;stop-color:#000000"
       d="m 22.003183,153.30673 76.563921,0.17889 -49.015221,-34.8831 z"
       id="path13881" />
    <path
       style="fill:none;fill-opacity:0.85;stroke:#000000;stroke-width:0.499999;stroke-linecap:round;stroke-linejoin:round;stroke-dasharray:none;stop-color:#000000"
       d="m 33.809768,152.94895 c 0.15687,-1.7536 -0.08982,-3.54208 -0.715551,-5.18774 -0.646584,-1.70049 -1.697364,-3.24576 -3.041089,-4.4722"
       id="path13883"
       inkscape:path-effect="#path-effect13885"
       inkscape:original-d="m 33.809768,152.94895 c -0.178623,-2.02713 -0.655657,-3.10045 -0.715551,-5.18774 -0.05989,-2.08728 -1.9675,-3.45823 -3.041089,-4.4722"
       sodipodi:nodetypes="csc" />
    <path
       style="fill:none;fill-opacity:0.85;stroke:#000000;stroke-width:0.499999;stroke-linecap:round;stroke-linejoin:round;stroke-dasharray:none;stop-color:#000000"
       d="m 43.469702,126.1158 c 2.011413,1.32113 4.392373,2.07302 6.797731,2.14666 3.078931,0.0943 6.180024,-0.93944 8.586607,-2.86221"
       id="path13983"
       inkscape:path-effect="#path-effect13985"
       inkscape:original-d="m 43.469702,126.1158 c 2.146917,0.71582 4.532085,1.43137 6.797731,2.14666 2.265645,0.71528 5.72467,-1.90788 8.586607,-2.86221" />
    <path
       style="fill:none;fill-opacity:0.85;stroke:#000000;stroke-width:0.499999;stroke-linecap:round;stroke-linejoin:round;stroke-dasharray:none;stop-color:#000000"
       d="m 83.540538,153.30673 c -0.383616,-1.76705 -0.32155,-3.62904 0.178888,-5.36663 0.371088,-1.28847 0.980756,-2.5078 1.788877,-3.57775"
       id="path13987"
       inkscape:path-effect="#path-effect13989"
       inkscape:original-d="m 83.540538,153.30673 c 2.65e-4,-1.78861 0.119523,-3.57749 0.178888,-5.36663 0.05936,-1.78914 1.19285,-2.38491 1.788877,-3.57775" />
    <g
       transform="matrix(0.705556,0,0,0.705556,26.58054,132.51767)"
       ns1:version="1.8.2"
       ns1:texconverter="pdflatex"
       ns1:pdfconverter="inkscape"
       ns1:text="$7$"
       ns1:preamble="/Users/jvkersch/Library/Application Support/org.inkscape.Inkscape/config/inkscape/extensions/textext/default_packages.tex"
       ns1:scale="2.0"
       ns1:alignment="middle center"
       ns1:stroke-to-path="0"
       ns1:jacobian_sqrt="0.705556"
       id="g14020">
      <defs
         id="id-f15a42aa-d302-4fab-b394-34efbc688c63">
        <g
           id="id-06e8e89c-0846-472a-9afa-052c72697ad5">
          <g
             id="id-63860960-a5f5-43f7-83aa-0718c52e8a78" />
          <g
             id="id-e1c26b1e-229d-4b41-acc2-2cd5e75c38cc">
            <path
               d="m 4.75,-6.078125 c 0.078125,-0.109375 0.078125,-0.125 0.078125,-0.34375 H 2.40625 c -1.203125,0 -1.234375,-0.125 -1.265625,-0.3125 h -0.25 L 0.5625,-4.6875 h 0.25 c 0.03125,-0.15625 0.109375,-0.78125 0.25,-0.90625 0.0625,-0.0625 0.84375,-0.0625 0.96875,-0.0625 h 2.0625 C 3.984375,-5.5 3.203125,-4.40625 2.984375,-4.078125 2.078125,-2.734375 1.75,-1.34375 1.75,-0.328125 c 0,0.09375 0,0.546875 0.46875,0.546875 0.453125,0 0.453125,-0.453125 0.453125,-0.546875 V -0.84375 c 0,-0.546875 0.03125,-1.09375 0.109375,-1.625 0.046875,-0.234375 0.171875,-1.09375 0.625,-1.703125 z m 0,0"
               id="id-2584ee1e-6f21-4bea-97bd-9dcf9afb0921" />
          </g>
        </g>
      </defs>
      <g
         fill="#000000"
         fill-opacity="1"
         id="id-4b364f32-1961-4474-993e-163caca8a033"
         transform="translate(-149.275,-128.031)">
        <g
           transform="translate(148.712,134.765)"
           id="g14017">
          <path
             d="m 4.75,-6.078125 c 0.078125,-0.109375 0.078125,-0.125 0.078125,-0.34375 H 2.40625 c -1.203125,0 -1.234375,-0.125 -1.265625,-0.3125 h -0.25 L 0.5625,-4.6875 h 0.25 c 0.03125,-0.15625 0.109375,-0.78125 0.25,-0.90625 0.0625,-0.0625 0.84375,-0.0625 0.96875,-0.0625 h 2.0625 C 3.984375,-5.5 3.203125,-4.40625 2.984375,-4.078125 2.078125,-2.734375 1.75,-1.34375 1.75,-0.328125 c 0,0.09375 0,0.546875 0.46875,0.546875 0.453125,0 0.453125,-0.453125 0.453125,-0.546875 V -0.84375 c 0,-0.546875 0.03125,-1.09375 0.109375,-1.625 0.046875,-0.234375 0.171875,-1.09375 0.625,-1.703125 z m 0,0"
             id="id-302e9d5b-b171-4231-b14d-4718f6f9d63c" />
        </g>
      </g>
    </g>
    <g
       transform="matrix(0.705556,0,0,0.705556,80.515594,130.91906)"
       ns1:version="1.8.2"
       ns1:texconverter="pdflatex"
       ns1:pdfconverter="inkscape"
       ns1:text="$7\\sqrt{2}$"
       ns1:preamble="/Users/jvkersch/Library/Application Support/org.inkscape.Inkscape/config/inkscape/extensions/textext/default_packages.tex"
       ns1:scale="2.0"
       ns1:alignment="middle center"
       ns1:stroke-to-path="0"
       ns1:jacobian_sqrt="0.705556"
       id="g14094">
      <defs
         id="id-f073775a-ee18-4a5d-803d-d4926d3a8ee0">
        <g
           id="id-c703f2d8-4682-48d9-b2b0-7f14e35a0b05">
          <g
             id="id-d74f0e42-e929-4eef-9c6b-22c5386fdd9b" />
          <g
             id="id-bbdc7a0a-30ee-4eaf-b976-6538381273e2">
            <path
               d="m 4.75,-6.078125 c 0.078125,-0.109375 0.078125,-0.125 0.078125,-0.34375 H 2.40625 c -1.203125,0 -1.234375,-0.125 -1.265625,-0.3125 h -0.25 L 0.5625,-4.6875 h 0.25 c 0.03125,-0.15625 0.109375,-0.78125 0.25,-0.90625 0.0625,-0.0625 0.84375,-0.0625 0.96875,-0.0625 h 2.0625 C 3.984375,-5.5 3.203125,-4.40625 2.984375,-4.078125 2.078125,-2.734375 1.75,-1.34375 1.75,-0.328125 c 0,0.09375 0,0.546875 0.46875,0.546875 0.453125,0 0.453125,-0.453125 0.453125,-0.546875 V -0.84375 c 0,-0.546875 0.03125,-1.09375 0.109375,-1.625 0.046875,-0.234375 0.171875,-1.09375 0.625,-1.703125 z m 0,0"
               id="id-188f0259-ecf3-402b-ade5-463b90707966" />
          </g>
          <g
             id="id-dacfc374-2dd8-4afd-81d1-cf6c28cb99ec">
            <path
               d="m 1.265625,-0.765625 1.0625,-1.03125 c 1.546875,-1.375 2.140625,-1.90625 2.140625,-2.90625 0,-1.140625 -0.890625,-1.9375 -2.109375,-1.9375 -1.125,0 -1.859375,0.921875 -1.859375,1.8125 0,0.546875 0.5,0.546875 0.53125,0.546875 0.171875,0 0.515625,-0.109375 0.515625,-0.53125 0,-0.25 -0.1875,-0.515625 -0.53125,-0.515625 -0.078125,0 -0.09375,0 -0.125,0.015625 0.21875,-0.65625 0.765625,-1.015625 1.34375,-1.015625 0.90625,0 1.328125,0.8125 1.328125,1.625 C 3.5625,-3.90625 3.078125,-3.125 2.515625,-2.5 l -1.90625,2.125 C 0.5,-0.265625 0.5,-0.234375 0.5,0 H 4.203125 L 4.46875,-1.734375 H 4.234375 C 4.171875,-1.4375 4.109375,-1 4,-0.84375 3.9375,-0.765625 3.28125,-0.765625 3.0625,-0.765625 Z m 0,0"
               id="id-f4612ac5-5b11-447d-b4d7-893eac4a757e" />
          </g>
          <g
             id="id-c34ab8f5-a03f-46d7-9485-74f0632b7014" />
          <g
             id="id-432ed540-ef6e-4c2a-aae1-cbbf889e3c9a">
            <path
               d="m 3.875,8.515625 -1.75,-3.875 C 2.046875,4.484375 2,4.484375 1.96875,4.484375 c 0,0 -0.0625,0 -0.171875,0.078125 l -0.9375,0.71875 c -0.125,0.109375 -0.125,0.125 -0.125,0.15625 0,0.0625 0.015625,0.109375 0.09375,0.109375 0.0625,0 0.234375,-0.140625 0.34375,-0.21875 C 1.21875,5.28125 1.375,5.171875 1.484375,5.09375 l 1.96875,4.3125 C 3.515625,9.5625 3.5625,9.5625 3.65625,9.5625 c 0.15625,0 0.1875,-0.046875 0.25,-0.1875 L 8.4375,0 C 8.5,-0.140625 8.5,-0.171875 8.5,-0.203125 8.5,-0.296875 8.421875,-0.40625 8.296875,-0.40625 c -0.078125,0 -0.140625,0.0625 -0.21875,0.21875 z m 0,0"
               id="id-39b78b14-119e-4da8-8533-596c06f95c0c" />
          </g>
        </g>
      </defs>
      <g
         fill="#000000"
         fill-opacity="1"
         id="id-3ce15645-aa1b-4f1e-8f34-f392ba451f61"
         transform="translate(-149.275,-126.117)">
        <g
           transform="translate(148.712,134.765)"
           id="g14082">
          <path
             d="m 4.75,-6.078125 c 0.078125,-0.109375 0.078125,-0.125 0.078125,-0.34375 H 2.40625 c -1.203125,0 -1.234375,-0.125 -1.265625,-0.3125 h -0.25 L 0.5625,-4.6875 h 0.25 c 0.03125,-0.15625 0.109375,-0.78125 0.25,-0.90625 0.0625,-0.0625 0.84375,-0.0625 0.96875,-0.0625 h 2.0625 C 3.984375,-5.5 3.203125,-4.40625 2.984375,-4.078125 2.078125,-2.734375 1.75,-1.34375 1.75,-0.328125 c 0,0.09375 0,0.546875 0.46875,0.546875 0.453125,0 0.453125,-0.453125 0.453125,-0.546875 V -0.84375 c 0,-0.546875 0.03125,-1.09375 0.109375,-1.625 0.046875,-0.234375 0.171875,-1.09375 0.625,-1.703125 z m 0,0"
             id="id-4b87fd7a-7a4e-45da-9e1e-58ee253ebeb5" />
        </g>
      </g>
      <g
         fill="#000000"
         fill-opacity="1"
         id="id-c048a928-b212-4ee0-9a72-2772ab0b6366"
         transform="translate(-149.275,-126.117)">
        <g
           transform="translate(153.694,126.523)"
           id="g14086">
          <path
             d="m 3.875,8.515625 -1.75,-3.875 C 2.046875,4.484375 2,4.484375 1.96875,4.484375 c 0,0 -0.0625,0 -0.171875,0.078125 l -0.9375,0.71875 c -0.125,0.109375 -0.125,0.125 -0.125,0.15625 0,0.0625 0.015625,0.109375 0.09375,0.109375 0.0625,0 0.234375,-0.140625 0.34375,-0.21875 C 1.21875,5.28125 1.375,5.171875 1.484375,5.09375 l 1.96875,4.3125 C 3.515625,9.5625 3.5625,9.5625 3.65625,9.5625 c 0.15625,0 0.1875,-0.046875 0.25,-0.1875 L 8.4375,0 C 8.5,-0.140625 8.5,-0.171875 8.5,-0.203125 8.5,-0.296875 8.421875,-0.40625 8.296875,-0.40625 c -0.078125,0 -0.140625,0.0625 -0.21875,0.21875 z m 0,0"
             id="id-324cadae-d452-472d-a354-2af1c2734040" />
        </g>
      </g>
      <path
         fill="none"
         stroke-width="0.398"
         stroke-linecap="butt"
         stroke-linejoin="miter"
         stroke="#000000"
         stroke-opacity="1"
         stroke-miterlimit="10"
         d="m 12.721588,0.20746613 h 4.980468"
         id="id-dbf74e1e-d310-43e1-912c-68bbc4615c5c" />
      <g
         fill="#000000"
         fill-opacity="1"
         id="id-a1fb46bf-d504-497c-ac87-93269d8260c6"
         transform="translate(-149.275,-126.117)">
        <g
           transform="translate(161.996,134.765)"
           id="g14091">
          <path
             d="m 1.265625,-0.765625 1.0625,-1.03125 c 1.546875,-1.375 2.140625,-1.90625 2.140625,-2.90625 0,-1.140625 -0.890625,-1.9375 -2.109375,-1.9375 -1.125,0 -1.859375,0.921875 -1.859375,1.8125 0,0.546875 0.5,0.546875 0.53125,0.546875 0.171875,0 0.515625,-0.109375 0.515625,-0.53125 0,-0.25 -0.1875,-0.515625 -0.53125,-0.515625 -0.078125,0 -0.09375,0 -0.125,0.015625 0.21875,-0.65625 0.765625,-1.015625 1.34375,-1.015625 0.90625,0 1.328125,0.8125 1.328125,1.625 C 3.5625,-3.90625 3.078125,-3.125 2.515625,-2.5 l -1.90625,2.125 C 0.5,-0.265625 0.5,-0.234375 0.5,0 H 4.203125 L 4.46875,-1.734375 H 4.234375 C 4.171875,-1.4375 4.109375,-1 4,-0.84375 3.9375,-0.765625 3.28125,-0.765625 3.0625,-0.765625 Z m 0,0"
             id="id-15baf8b9-9aeb-4ace-868e-646625e18c32" />
        </g>
      </g>
    </g>
    <g
       transform="matrix(0.705556,0,0,0.705556,34.678009,145.53547)"
       ns1:version="1.8.2"
       ns1:texconverter="pdflatex"
       ns1:pdfconverter="inkscape"
       ns1:text="$\\alpha = 45^\\circ$"
       ns1:preamble="/Users/jvkersch/Library/Application Support/org.inkscape.Inkscape/config/inkscape/extensions/textext/default_packages.tex"
       ns1:scale="2.0"
       ns1:alignment="middle center"
       ns1:stroke-to-path="0"
       ns1:jacobian_sqrt="0.705556"
       id="g14233">
      <defs
         id="id-10d40b20-d36f-416e-904b-13672a23d06e">
        <g
           id="id-dea0d739-8e98-47e9-ad4e-0cee24d89848">
          <g
             id="id-ae391fc4-e884-409d-b817-a8ae449d5776" />
          <g
             id="id-98ef4398-e920-44b6-8891-7302b08bb144">
            <path
               d="m 4.75,-2.359375 c 0,-1.5625 -0.921875,-2.046875 -1.65625,-2.046875 -1.375,0 -2.6875,1.421875 -2.6875,2.828125 0,0.9375 0.59375,1.6875 1.625,1.6875 0.625,0 1.34375,-0.234375 2.09375,-0.84375 0.125,0.53125 0.453125,0.84375 0.90625,0.84375 0.53125,0 0.84375,-0.546875 0.84375,-0.703125 0,-0.078125 -0.0625,-0.109375 -0.125,-0.109375 -0.0625,0 -0.09375,0.03125 -0.125,0.109375 -0.1875,0.484375 -0.546875,0.484375 -0.5625,0.484375 -0.3125,0 -0.3125,-0.78125 -0.3125,-1.015625 0,-0.203125 0,-0.234375 0.109375,-0.34375 C 5.796875,-2.65625 6,-3.8125 6,-3.8125 6,-3.84375 5.984375,-3.921875 5.875,-3.921875 c -0.09375,0 -0.09375,0.03125 -0.140625,0.21875 -0.1875,0.625 -0.515625,1.375 -0.984375,1.96875 z m -0.65625,1.375 c -0.890625,0.765625 -1.65625,0.875 -2.046875,0.875 -0.59375,0 -0.90625,-0.453125 -0.90625,-1.09375 0,-0.484375 0.265625,-1.5625 0.578125,-2.0625 C 2.1875,-4 2.734375,-4.1875 3.078125,-4.1875 c 0.984375,0 0.984375,1.3125 0.984375,2.078125 0,0.375 0,0.953125 0.03125,1.125 z m 0,0"
               id="id-4442ceb9-afc6-4c60-b08f-0cc9d11697b9" />
          </g>
          <g
             id="id-66e104e7-f041-4dd1-bd41-7a51d852bbbc" />
          <g
             id="id-697b4e24-be25-448f-b033-2557c3153cae">
            <path
               d="m 6.84375,-3.265625 c 0.15625,0 0.34375,0 0.34375,-0.1875 C 7.1875,-3.65625 7,-3.65625 6.859375,-3.65625 h -5.96875 c -0.140625,0 -0.328125,0 -0.328125,0.203125 0,0.1875 0.1875,0.1875 0.328125,0.1875 z m 0.015625,1.9375 c 0.140625,0 0.328125,0 0.328125,-0.203125 0,-0.1875 -0.1875,-0.1875 -0.34375,-0.1875 H 0.890625 c -0.140625,0 -0.328125,0 -0.328125,0.1875 0,0.203125 0.1875,0.203125 0.328125,0.203125 z m 0,0"
               id="id-b910675b-badc-4ee7-b344-c7e8a7060154" />
          </g>
          <g
             id="id-7a6e0abc-aa97-49cd-ac19-87cdd4022776">
            <path
               d="m 2.9375,-1.640625 v 0.859375 c 0,0.359375 -0.03125,0.46875 -0.765625,0.46875 H 1.96875 V 0 C 2.375,-0.03125 2.890625,-0.03125 3.3125,-0.03125 c 0.421875,0 0.9375,0 1.359375,0.03125 v -0.3125 h -0.21875 c -0.734375,0 -0.75,-0.109375 -0.75,-0.46875 V -1.640625 H 4.6875 v -0.3125 H 3.703125 v -4.53125 c 0,-0.203125 0,-0.265625 -0.171875,-0.265625 -0.078125,0 -0.109375,0 -0.1875,0.125 l -3.0625,4.671875 v 0.3125 z m 0.046875,-0.3125 H 0.5625 l 2.421875,-3.71875 z m 0,0"
               id="id-e1fe9741-c6c5-4158-9a6e-c67f0d4772c5" />
          </g>
          <g
             id="id-ae91e631-749b-420b-9d2f-1abc339e93ba">
            <path
               d="m 4.46875,-2 c 0,-1.1875 -0.8125,-2.1875 -1.890625,-2.1875 -0.46875,0 -0.90625,0.15625 -1.265625,0.515625 V -5.625 c 0.203125,0.0625 0.53125,0.125 0.84375,0.125 1.234375,0 1.9375,-0.90625 1.9375,-1.03125 0,-0.0625 -0.03125,-0.109375 -0.109375,-0.109375 0,0 -0.03125,0 -0.078125,0.03125 C 3.703125,-6.515625 3.21875,-6.3125 2.546875,-6.3125 2.15625,-6.3125 1.6875,-6.390625 1.21875,-6.59375 1.140625,-6.625 1.125,-6.625 1.109375,-6.625 1,-6.625 1,-6.546875 1,-6.390625 V -3.4375 c 0,0.171875 0,0.25 0.140625,0.25 0.078125,0 0.09375,-0.015625 0.140625,-0.078125 C 1.390625,-3.421875 1.75,-3.96875 2.5625,-3.96875 c 0.515625,0 0.765625,0.453125 0.84375,0.640625 0.15625,0.375 0.1875,0.75 0.1875,1.25 0,0.359375 0,0.953125 -0.25,1.375 C 3.109375,-0.3125 2.734375,-0.0625 2.28125,-0.0625 c -0.71875,0 -1.296875,-0.53125 -1.46875,-1.109375 0.03125,0 0.0625,0.015625 0.171875,0.015625 0.328125,0 0.5,-0.25 0.5,-0.484375 0,-0.25 -0.171875,-0.5 -0.5,-0.5 C 0.84375,-2.140625 0.5,-2.0625 0.5,-1.609375 0.5,-0.75 1.1875,0.21875 2.296875,0.21875 3.453125,0.21875 4.46875,-0.734375 4.46875,-2 Z m 0,0"
               id="id-6a9b3d12-b0a4-4a83-99b6-472f1b3b57d9" />
          </g>
          <g
             id="id-9b9a3977-e719-4990-9e9f-46c5eb2b3dc8" />
          <g
             id="id-87d2fb87-4e98-40f7-b694-6e51309eff60">
            <path
               d="m 3.53125,-1.734375 c 0,-0.84375 -0.671875,-1.5 -1.5,-1.5 -0.828125,0 -1.5,0.671875 -1.5,1.484375 0,0.84375 0.6875,1.5 1.5,1.5 0.84375,0 1.5,-0.671875 1.5,-1.484375 z m -1.5,1.140625 C 1.375,-0.59375 0.875,-1.125 0.875,-1.734375 c 0,-0.65625 0.515625,-1.171875 1.15625,-1.171875 0.65625,0 1.15625,0.53125 1.15625,1.15625 0,0.65625 -0.515625,1.15625 -1.15625,1.15625 z m 0,0"
               id="id-49de64e4-98fa-44be-bd4b-d83029e46860" />
          </g>
        </g>
      </defs>
      <g
         fill="#000000"
         fill-opacity="1"
         id="id-88e8fa7e-c2eb-46e2-851b-a70d74af98e4"
         transform="translate(-149.118,-127.915)">
        <g
           transform="translate(148.712,134.765)"
           id="g14215">
          <path
             d="m 4.75,-2.359375 c 0,-1.5625 -0.921875,-2.046875 -1.65625,-2.046875 -1.375,0 -2.6875,1.421875 -2.6875,2.828125 0,0.9375 0.59375,1.6875 1.625,1.6875 0.625,0 1.34375,-0.234375 2.09375,-0.84375 0.125,0.53125 0.453125,0.84375 0.90625,0.84375 0.53125,0 0.84375,-0.546875 0.84375,-0.703125 0,-0.078125 -0.0625,-0.109375 -0.125,-0.109375 -0.0625,0 -0.09375,0.03125 -0.125,0.109375 -0.1875,0.484375 -0.546875,0.484375 -0.5625,0.484375 -0.3125,0 -0.3125,-0.78125 -0.3125,-1.015625 0,-0.203125 0,-0.234375 0.109375,-0.34375 C 5.796875,-2.65625 6,-3.8125 6,-3.8125 6,-3.84375 5.984375,-3.921875 5.875,-3.921875 c -0.09375,0 -0.09375,0.03125 -0.140625,0.21875 -0.1875,0.625 -0.515625,1.375 -0.984375,1.96875 z m -0.65625,1.375 c -0.890625,0.765625 -1.65625,0.875 -2.046875,0.875 -0.59375,0 -0.90625,-0.453125 -0.90625,-1.09375 0,-0.484375 0.265625,-1.5625 0.578125,-2.0625 C 2.1875,-4 2.734375,-4.1875 3.078125,-4.1875 c 0.984375,0 0.984375,1.3125 0.984375,2.078125 0,0.375 0,0.953125 0.03125,1.125 z m 0,0"
             id="id-348efeb8-6ae4-49cd-b15a-1c02323dbd26" />
        </g>
      </g>
      <g
         fill="#000000"
         fill-opacity="1"
         id="id-b51d7e01-dbe4-4036-b1e2-32e3c6aedca3"
         transform="translate(-149.118,-127.915)">
        <g
           transform="translate(157.89,134.765)"
           id="g14219">
          <path
             d="m 6.84375,-3.265625 c 0.15625,0 0.34375,0 0.34375,-0.1875 C 7.1875,-3.65625 7,-3.65625 6.859375,-3.65625 h -5.96875 c -0.140625,0 -0.328125,0 -0.328125,0.203125 0,0.1875 0.1875,0.1875 0.328125,0.1875 z m 0.015625,1.9375 c 0.140625,0 0.328125,0 0.328125,-0.203125 0,-0.1875 -0.1875,-0.1875 -0.34375,-0.1875 H 0.890625 c -0.140625,0 -0.328125,0 -0.328125,0.1875 0,0.203125 0.1875,0.203125 0.328125,0.203125 z m 0,0"
             id="id-1c5f7451-829e-4d74-b12d-75ec0f2d03a0" />
        </g>
      </g>
      <g
         fill="#000000"
         fill-opacity="1"
         id="id-0af3925c-cc2c-4335-a6c7-0891cf91f8a6"
         transform="translate(-149.118,-127.915)">
        <g
           transform="translate(168.409,134.765)"
           id="g14223">
          <path
             d="m 2.9375,-1.640625 v 0.859375 c 0,0.359375 -0.03125,0.46875 -0.765625,0.46875 H 1.96875 V 0 C 2.375,-0.03125 2.890625,-0.03125 3.3125,-0.03125 c 0.421875,0 0.9375,0 1.359375,0.03125 v -0.3125 h -0.21875 c -0.734375,0 -0.75,-0.109375 -0.75,-0.46875 V -1.640625 H 4.6875 v -0.3125 H 3.703125 v -4.53125 c 0,-0.203125 0,-0.265625 -0.171875,-0.265625 -0.078125,0 -0.109375,0 -0.1875,0.125 l -3.0625,4.671875 v 0.3125 z m 0.046875,-0.3125 H 0.5625 l 2.421875,-3.71875 z m 0,0"
             id="id-2dc128e4-5f1d-4022-878a-4e5d0e832d12" />
        </g>
        <g
           transform="translate(173.39,134.765)"
           id="g14226">
          <path
             d="m 4.46875,-2 c 0,-1.1875 -0.8125,-2.1875 -1.890625,-2.1875 -0.46875,0 -0.90625,0.15625 -1.265625,0.515625 V -5.625 c 0.203125,0.0625 0.53125,0.125 0.84375,0.125 1.234375,0 1.9375,-0.90625 1.9375,-1.03125 0,-0.0625 -0.03125,-0.109375 -0.109375,-0.109375 0,0 -0.03125,0 -0.078125,0.03125 C 3.703125,-6.515625 3.21875,-6.3125 2.546875,-6.3125 2.15625,-6.3125 1.6875,-6.390625 1.21875,-6.59375 1.140625,-6.625 1.125,-6.625 1.109375,-6.625 1,-6.625 1,-6.546875 1,-6.390625 V -3.4375 c 0,0.171875 0,0.25 0.140625,0.25 0.078125,0 0.09375,-0.015625 0.140625,-0.078125 C 1.390625,-3.421875 1.75,-3.96875 2.5625,-3.96875 c 0.515625,0 0.765625,0.453125 0.84375,0.640625 0.15625,0.375 0.1875,0.75 0.1875,1.25 0,0.359375 0,0.953125 -0.25,1.375 C 3.109375,-0.3125 2.734375,-0.0625 2.28125,-0.0625 c -0.71875,0 -1.296875,-0.53125 -1.46875,-1.109375 0.03125,0 0.0625,0.015625 0.171875,0.015625 0.328125,0 0.5,-0.25 0.5,-0.484375 0,-0.25 -0.171875,-0.5 -0.5,-0.5 C 0.84375,-2.140625 0.5,-2.0625 0.5,-1.609375 0.5,-0.75 1.1875,0.21875 2.296875,0.21875 3.453125,0.21875 4.46875,-0.734375 4.46875,-2 Z m 0,0"
             id="id-5347ca8d-d0e4-4694-80ac-c2c7889523d7" />
        </g>
      </g>
      <g
         fill="#000000"
         fill-opacity="1"
         id="id-1d095b7e-7982-4c42-88cc-72bb55e4fad3"
         transform="translate(-149.118,-127.915)">
        <g
           transform="translate(178.368,131.149)"
           id="g14230">
          <path
             d="m 3.53125,-1.734375 c 0,-0.84375 -0.671875,-1.5 -1.5,-1.5 -0.828125,0 -1.5,0.671875 -1.5,1.484375 0,0.84375 0.6875,1.5 1.5,1.5 0.84375,0 1.5,-0.671875 1.5,-1.484375 z m -1.5,1.140625 C 1.375,-0.59375 0.875,-1.125 0.875,-1.734375 c 0,-0.65625 0.515625,-1.171875 1.15625,-1.171875 0.65625,0 1.15625,0.53125 1.15625,1.15625 0,0.65625 -0.515625,1.15625 -1.15625,1.15625 z m 0,0"
             id="id-07412a89-9306-44d5-96ba-8c1654cff1d3" />
        </g>
      </g>
    </g>
    <g
       transform="matrix(0.705556,0,0,0.705556,75.261053,175.20437)"
       ns1:version="1.8.2"
       ns1:texconverter="pdflatex"
       ns1:pdfconverter="inkscape"
       ns1:text="$\\gamma$\n$\\beta$"
       ns1:preamble="/Users/jvkersch/Library/Application Support/org.inkscape.Inkscape/config/inkscape/extensions/textext/default_packages.tex"
       ns1:scale="2.0"
       ns1:alignment="middle center"
       ns1:stroke-to-path="0"
       ns1:jacobian_sqrt="0.705556"
       id="g14422">
      <defs
         id="id-83d45e63-b098-4dae-bceb-56632fb5c0ff">
        <g
           id="id-949b6813-9961-414e-be03-12e98bc1e301">
          <g
             id="id-40caadb9-1af4-4f89-91d3-d00b40b6d3e2" />
          <g
             id="id-fc0415b9-1587-4d56-8bd3-e0a3540cf7eb">
            <path
               d="M 0.40625,-2.53125 C 0.796875,-3.671875 1.890625,-3.6875 2,-3.6875 c 1.5,0 1.609375,1.75 1.609375,2.53125 0,0.609375 -0.046875,0.78125 -0.125,0.984375 -0.21875,0.71875 -0.515625,1.875 -0.515625,2.140625 0,0.109375 0.046875,0.171875 0.125,0.171875 0.140625,0 0.21875,-0.21875 0.328125,-0.59375 C 3.65625,0.703125 3.75,0.140625 3.78125,-0.171875 c 0.03125,-0.125 0.046875,-0.25 0.09375,-0.390625 0.3125,-0.984375 0.953125,-2.46875 1.34375,-3.25 0.078125,-0.125 0.1875,-0.34375 0.1875,-0.390625 0,-0.09375 -0.09375,-0.09375 -0.109375,-0.09375 -0.03125,0 -0.09375,0 -0.125,0.0625 C 4.65625,-3.28125 4.25,-2.28125 3.859375,-1.28125 3.84375,-1.578125 3.84375,-2.34375 3.453125,-3.3125 3.203125,-3.921875 2.8125,-4.40625 2.125,-4.40625 c -1.25,0 -1.953125,1.515625 -1.953125,1.828125 0,0.09375 0.09375,0.09375 0.203125,0.09375 z m 0,0"
               id="id-f42d98ed-8a0c-4c40-b1c6-e0f3ca89bade" />
          </g>
          <g
             id="id-6ce5d6b3-1ed5-4c95-8955-0e3251860c9d">
            <path
               d="m 5.734375,-5.671875 c 0,-0.75 -0.546875,-1.359375 -1.359375,-1.359375 -0.578125,0 -0.859375,0.15625 -1.203125,0.40625 C 2.625,-6.21875 2.078125,-5.25 1.890625,-4.5 L 0.296875,1.828125 C 0.296875,1.875 0.34375,1.9375 0.421875,1.9375 0.5,1.9375 0.53125,1.90625 0.53125,1.890625 L 1.234375,-0.875 c 0.1875,0.609375 0.625,0.96875 1.359375,0.96875 C 3.3125,0.09375 4.0625,-0.25 4.515625,-0.6875 5,-1.140625 5.3125,-1.78125 5.3125,-2.515625 c 0,-0.71875 -0.375,-1.25 -0.734375,-1.484375 0.578125,-0.34375 1.15625,-0.953125 1.15625,-1.671875 z M 3.9375,-4.015625 c -0.125,0.046875 -0.234375,0.0625 -0.484375,0.0625 -0.140625,0 -0.328125,0.015625 -0.4375,-0.03125 0.03125,-0.109375 0.390625,-0.078125 0.5,-0.078125 0.203125,0 0.296875,0 0.421875,0.046875 z M 5.171875,-5.90625 c 0,0.703125 -0.375,1.421875 -0.890625,1.734375 C 4,-4.28125 3.8125,-4.296875 3.515625,-4.296875 c -0.21875,0 -0.78125,-0.015625 -0.78125,0.3125 0,0.28125 0.515625,0.25 0.6875,0.25 0.375,0 0.53125,0 0.828125,-0.125 0.375,0.359375 0.421875,0.671875 0.4375,1.125 0.015625,0.578125 -0.21875,1.328125 -0.5,1.71875 C 3.796875,-0.484375 3.125,-0.125 2.5625,-0.125 c -0.765625,0 -1.140625,-0.578125 -1.140625,-1.28125 0,-0.09375 0,-0.25 0.046875,-0.4375 L 2.109375,-4.359375 C 2.328125,-5.21875 3.046875,-6.8125 4.25,-6.8125 c 0.578125,0 0.921875,0.3125 0.921875,0.90625 z m 0,0"
               id="id-06ffed23-1927-43a4-8ed0-12100aa6754a" />
          </g>
        </g>
      </defs>
      <g
         fill="#000000"
         fill-opacity="1"
         id="id-fe505326-6c76-4334-9ae3-d56a3ab8ee69"
         transform="translate(-144.5738,-171.34312)">
        <g
           transform="translate(148.712,134.765)"
           id="g14415">
          <path
             d="M 0.40625,-2.53125 C 0.796875,-3.671875 1.890625,-3.6875 2,-3.6875 c 1.5,0 1.609375,1.75 1.609375,2.53125 0,0.609375 -0.046875,0.78125 -0.125,0.984375 -0.21875,0.71875 -0.515625,1.875 -0.515625,2.140625 0,0.109375 0.046875,0.171875 0.125,0.171875 0.140625,0 0.21875,-0.21875 0.328125,-0.59375 C 3.65625,0.703125 3.75,0.140625 3.78125,-0.171875 c 0.03125,-0.125 0.046875,-0.25 0.09375,-0.390625 0.3125,-0.984375 0.953125,-2.46875 1.34375,-3.25 0.078125,-0.125 0.1875,-0.34375 0.1875,-0.390625 0,-0.09375 -0.09375,-0.09375 -0.109375,-0.09375 -0.03125,0 -0.09375,0 -0.125,0.0625 C 4.65625,-3.28125 4.25,-2.28125 3.859375,-1.28125 3.84375,-1.578125 3.84375,-2.34375 3.453125,-3.3125 3.203125,-3.921875 2.8125,-4.40625 2.125,-4.40625 c -1.25,0 -1.953125,1.515625 -1.953125,1.828125 0,0.09375 0.09375,0.09375 0.203125,0.09375 z m 0,0"
             id="id-28c17023-22a7-44db-83bd-c87ad9035cb4" />
        </g>
      </g>
      <g
         fill="#000000"
         fill-opacity="1"
         id="id-0b0b51aa-c915-427e-a3d1-92f9e70b1f14"
         transform="translate(-192.49312,-192.6406)">
        <g
           transform="translate(157.745,134.765)"
           id="g14419">
          <path
             d="m 5.734375,-5.671875 c 0,-0.75 -0.546875,-1.359375 -1.359375,-1.359375 -0.578125,0 -0.859375,0.15625 -1.203125,0.40625 C 2.625,-6.21875 2.078125,-5.25 1.890625,-4.5 L 0.296875,1.828125 C 0.296875,1.875 0.34375,1.9375 0.421875,1.9375 0.5,1.9375 0.53125,1.90625 0.53125,1.890625 L 1.234375,-0.875 c 0.1875,0.609375 0.625,0.96875 1.359375,0.96875 C 3.3125,0.09375 4.0625,-0.25 4.515625,-0.6875 5,-1.140625 5.3125,-1.78125 5.3125,-2.515625 c 0,-0.71875 -0.375,-1.25 -0.734375,-1.484375 0.578125,-0.34375 1.15625,-0.953125 1.15625,-1.671875 z M 3.9375,-4.015625 c -0.125,0.046875 -0.234375,0.0625 -0.484375,0.0625 -0.140625,0 -0.328125,0.015625 -0.4375,-0.03125 0.03125,-0.109375 0.390625,-0.078125 0.5,-0.078125 0.203125,0 0.296875,0 0.421875,0.046875 z M 5.171875,-5.90625 c 0,0.703125 -0.375,1.421875 -0.890625,1.734375 C 4,-4.28125 3.8125,-4.296875 3.515625,-4.296875 c -0.21875,0 -0.78125,-0.015625 -0.78125,0.3125 0,0.28125 0.515625,0.25 0.6875,0.25 0.375,0 0.53125,0 0.828125,-0.125 0.375,0.359375 0.421875,0.671875 0.4375,1.125 0.015625,0.578125 -0.21875,1.328125 -0.5,1.71875 C 3.796875,-0.484375 3.125,-0.125 2.5625,-0.125 c -0.765625,0 -1.140625,-0.578125 -1.140625,-1.28125 0,-0.09375 0,-0.25 0.046875,-0.4375 L 2.109375,-4.359375 C 2.328125,-5.21875 3.046875,-6.8125 4.25,-6.8125 c 0.578125,0 0.921875,0.3125 0.921875,0.90625 z m 0,0"
             id="id-502261b9-ed83-4f13-ae81-64704b094bcf" />
        </g>
      </g>
    </g>
  </g>
</svg>
