<?xml version="1.0" encoding="UTF-8" standalone="no"?>
<!-- Created with Inkscape (http://www.inkscape.org/) -->

<svg
   width="147.91267mm"
   height="54.650997mm"
   viewBox="0 0 147.91267 54.650997"
   version="1.1"
   id="svg7480"
   inkscape:version="1.2 (dc2aeda, 2022-05-15)"
   sodipodi:docname="inverse-sine-limited.svg"
   inkscape:export-filename="inverse-sine-limited.png"
   inkscape:export-xdpi="96"
   inkscape:export-ydpi="96"
   xmlns:inkscape="http://www.inkscape.org/namespaces/inkscape"
   xmlns:sodipodi="http://sodipodi.sourceforge.net/DTD/sodipodi-0.dtd"
   xmlns="http://www.w3.org/2000/svg"
   xmlns:svg="http://www.w3.org/2000/svg"
   xmlns:ns2="http://www.iki.fi/pav/software/textext/">
  <sodipodi:namedview
     id="namedview7482"
     pagecolor="#ffffff"
     bordercolor="#000000"
     borderopacity="0.25"
     inkscape:showpageshadow="2"
     inkscape:pageopacity="0.0"
     inkscape:pagecheckerboard="0"
     inkscape:deskcolor="#d1d1d1"
     inkscape:document-units="mm"
     showgrid="false"
     inkscape:zoom="1.7041198"
     inkscape:cx="313.35825"
     inkscape:cy="170.46924"
     inkscape:window-width="1390"
     inkscape:window-height="1205"
     inkscape:window-x="220"
     inkscape:window-y="25"
     inkscape:window-maximized="0"
     inkscape:current-layer="layer1" />
  <defs
     id="defs7477">
    <marker
       style="overflow:visible"
       id="TriangleStart-6-1"
       refX="0"
       refY="0"
       orient="auto-start-reverse"
       inkscape:stockid="TriangleStart"
       markerWidth="5.3244081"
       markerHeight="6.155385"
       viewBox="0 0 5.3244081 6.1553851"
       inkscape:isstock="true"
       inkscape:collect="always"
       preserveAspectRatio="xMidYMid">
      <path
         transform="scale(0.5)"
         style="fill:context-stroke;fill-rule:evenodd;stroke:context-stroke;stroke-width:1pt"
         d="M 5.77,0 -2.88,5 V -5 Z"
         id="path135-8-3" />
    </marker>
    <g
       id="g6027">
      <g
         id="g6015" />
      <g
         id="g6019">
        <path
           d="M 2.171875,-2.53125 H 3 c -0.109375,0.421875 -0.265625,1.046875 -0.265625,1.609375 0,0.28125 0.046875,0.46875 0.078125,0.609375 0.109375,0.359375 0.203125,0.375 0.3125,0.375 0.171875,0 0.328125,-0.140625 0.328125,-0.3125 0,-0.046875 -0.015625,-0.078125 -0.046875,-0.140625 C 3.265625,-0.65625 3.140625,-1.046875 3.140625,-1.625 c 0,-0.125 0,-0.40625 0.09375,-0.90625 h 0.875 c 0.125,0 0.1875,0 0.265625,-0.046875 0.09375,-0.078125 0.109375,-0.1875 0.109375,-0.21875 C 4.484375,-3 4.3125,-3 4.1875,-3 h -2.625 c -0.28125,0 -0.484375,0.0625 -0.796875,0.359375 -0.1875,0.15625 -0.453125,0.53125 -0.453125,0.59375 0,0.078125 0.09375,0.078125 0.125,0.078125 0.078125,0 0.078125,-0.015625 0.125,-0.078125 C 0.90625,-2.53125 1.34375,-2.53125 1.5,-2.53125 h 0.421875 c -0.21875,0.765625 -0.59375,1.59375 -0.796875,2.015625 -0.046875,0.078125 -0.109375,0.234375 -0.140625,0.25 0,0.03125 -0.015625,0.0625 -0.015625,0.109375 0,0.109375 0.078125,0.21875 0.25,0.21875 0.265625,0 0.34375,-0.3125 0.515625,-0.9375 z m 0,0"
           id="path6017" />
      </g>
      <g
         id="g6021" />
      <g
         id="g6025">
        <path
           d="m 1.046875,-2.28125 c 0,-0.5625 0.046875,-1.078125 0.3125,-1.515625 0.234375,-0.375 0.609375,-0.625 1.0625,-0.625 0.203125,0 0.484375,0.046875 0.625,0.234375 C 2.875,-4.171875 2.71875,-4.046875 2.71875,-3.84375 c 0,0.171875 0.125,0.328125 0.328125,0.328125 0.21875,0 0.34375,-0.140625 0.34375,-0.34375 0,-0.40625 -0.296875,-0.765625 -0.984375,-0.765625 -1,0 -2.03125,0.921875 -2.03125,2.421875 0,1.796875 0.84375,2.34375 1.625,2.34375 0.84375,0 1.578125,-0.65625 1.578125,-1.5625 0,-0.890625 -0.703125,-1.546875 -1.515625,-1.546875 -0.5625,0 -0.859375,0.375 -1.015625,0.6875 z M 2,-0.078125 c -0.359375,0 -0.625,-0.203125 -0.78125,-0.515625 C 1.125,-0.796875 1.0625,-1.15625 1.0625,-1.5625 c 0,-0.6875 0.40625,-1.203125 0.96875,-1.203125 0.3125,0 0.53125,0.125 0.703125,0.375 0.171875,0.265625 0.171875,0.5625 0.171875,0.96875 0,0.390625 0,0.6875 -0.1875,0.96875 -0.15625,0.234375 -0.390625,0.375 -0.71875,0.375 z m 0,0"
           id="path6023" />
      </g>
    </g>
    <g
       id="g4738">
      <g
         id="g4728" />
      <g
         id="g4732">
        <path
           d="m 2.328125,-4.4375 c 0,-0.1875 0,-0.1875 -0.203125,-0.1875 -0.453125,0.4375 -1.078125,0.4375 -1.359375,0.4375 v 0.25 c 0.15625,0 0.625,0 1,-0.1875 v 3.546875 c 0,0.234375 0,0.328125 -0.6875,0.328125 H 0.8125 V 0 c 0.125,0 0.984375,-0.03125 1.234375,-0.03125 0.21875,0 1.09375,0.03125 1.25,0.03125 V -0.25 H 3.03125 c -0.703125,0 -0.703125,-0.09375 -0.703125,-0.328125 z m 0,0"
           id="path4730" />
      </g>
      <g
         id="g4736">
        <path
           d="M 3.515625,-1.265625 H 3.28125 c -0.015625,0.15625 -0.09375,0.5625 -0.1875,0.625 C 3.046875,-0.59375 2.515625,-0.59375 2.40625,-0.59375 H 1.125 c 0.734375,-0.640625 0.984375,-0.84375 1.390625,-1.171875 0.515625,-0.40625 1,-0.84375 1,-1.5 0,-0.84375 -0.734375,-1.359375 -1.625,-1.359375 -0.859375,0 -1.453125,0.609375 -1.453125,1.25 0,0.34375 0.296875,0.390625 0.375,0.390625 0.15625,0 0.359375,-0.125 0.359375,-0.375 0,-0.125 -0.046875,-0.375 -0.40625,-0.375 C 0.984375,-4.21875 1.453125,-4.375 1.78125,-4.375 c 0.703125,0 1.0625,0.546875 1.0625,1.109375 0,0.609375 -0.4375,1.078125 -0.65625,1.328125 L 0.515625,-0.265625 C 0.4375,-0.203125 0.4375,-0.1875 0.4375,0 h 2.875 z m 0,0"
           id="path4734" />
      </g>
    </g>
    <g
       id="id-fa5aca6c-21ba-4d2b-b456-5270889a5a3b">
      <g
         id="id-99b6c843-eea0-43ac-be9e-e911d8bab909" />
      <g
         id="id-8fb65ab5-3df0-4595-988b-72d09b6f06d0">
        <path
           d="m 6.5625,-2.296875 c 0.171875,0 0.359375,0 0.359375,-0.203125 0,-0.1875 -0.1875,-0.1875 -0.359375,-0.1875 H 1.171875 c -0.171875,0 -0.34375,0 -0.34375,0.1875 0,0.203125 0.171875,0.203125 0.34375,0.203125 z m 0,0"
           id="id-fb1e19f1-86e5-4e04-92e3-b44a4145eb8a" />
      </g>
      <g
         id="id-283df0f6-6cb4-49ae-a439-14c60f9c8d87" />
      <g
         id="id-de56c09c-b4a3-4327-a5fb-8096d680353d">
        <path
           d="m 2.640625,-3.71875 h 1.125 C 3.4375,-2.25 3.34375,-1.8125 3.34375,-1.140625 c 0,0.140625 0,0.40625 0.078125,0.75 0.109375,0.4375 0.21875,0.5 0.359375,0.5 0.203125,0 0.421875,-0.171875 0.421875,-0.375 0,-0.0625 0,-0.078125 -0.0625,-0.21875 -0.296875,-0.71875 -0.296875,-1.375 -0.296875,-1.65625 0,-0.515625 0.078125,-1.0625 0.1875,-1.578125 h 1.125 c 0.140625,0 0.5,0 0.5,-0.34375 0,-0.234375 -0.21875,-0.234375 -0.40625,-0.234375 H 1.90625 c -0.21875,0 -0.59375,0 -1.03125,0.46875 -0.34375,0.390625 -0.609375,0.84375 -0.609375,0.890625 0,0.015625 0,0.109375 0.125,0.109375 0.078125,0 0.09375,-0.046875 0.15625,-0.125 C 1.03125,-3.71875 1.609375,-3.71875 1.8125,-3.71875 H 2.375 C 2.0625,-2.515625 1.53125,-1.3125 1.109375,-0.40625 1.03125,-0.25 1.03125,-0.234375 1.03125,-0.15625 c 0,0.1875 0.15625,0.265625 0.28125,0.265625 0.296875,0 0.375,-0.28125 0.5,-0.640625 C 1.953125,-1 1.953125,-1.015625 2.078125,-1.515625 Z m 0,0"
           id="id-3d5f6b29-d85e-494e-98da-cc070e320c40" />
      </g>
    </g>
    <g
       id="id-62b7b76b-1fbf-4007-a1e6-2f1878087c09">
      <g
         id="id-2ebfe605-8820-4dae-8c1c-dbc5f1fc8a1d" />
      <g
         id="id-1377fc18-80a5-4d82-b714-28a683a11ef4">
        <path
           d="m 2.640625,-3.71875 h 1.125 C 3.4375,-2.25 3.34375,-1.8125 3.34375,-1.140625 c 0,0.140625 0,0.40625 0.078125,0.75 0.109375,0.4375 0.21875,0.5 0.359375,0.5 0.203125,0 0.421875,-0.171875 0.421875,-0.375 0,-0.0625 0,-0.078125 -0.0625,-0.21875 -0.296875,-0.71875 -0.296875,-1.375 -0.296875,-1.65625 0,-0.515625 0.078125,-1.0625 0.1875,-1.578125 h 1.125 c 0.140625,0 0.5,0 0.5,-0.34375 0,-0.234375 -0.21875,-0.234375 -0.40625,-0.234375 H 1.90625 c -0.21875,0 -0.59375,0 -1.03125,0.46875 -0.34375,0.390625 -0.609375,0.84375 -0.609375,0.890625 0,0.015625 0,0.109375 0.125,0.109375 0.078125,0 0.09375,-0.046875 0.15625,-0.125 C 1.03125,-3.71875 1.609375,-3.71875 1.8125,-3.71875 H 2.375 C 2.0625,-2.515625 1.53125,-1.3125 1.109375,-0.40625 1.03125,-0.25 1.03125,-0.234375 1.03125,-0.15625 c 0,0.1875 0.15625,0.265625 0.28125,0.265625 0.296875,0 0.375,-0.28125 0.5,-0.640625 C 1.953125,-1 1.953125,-1.015625 2.078125,-1.515625 Z m 0,0"
           id="id-f8df614b-6c85-4ef8-8c5c-7fd97511c233" />
      </g>
    </g>
    <g
       id="id-557a5d49-fb34-463e-b0f9-1ac72dedb5e4">
      <g
         id="id-3b71a1b4-cbbb-4f53-8504-bb6faad49d91" />
      <g
         id="id-b8ef7651-52ed-4dcf-8010-1eb44f1001f2">
        <path
           d="m 6.5625,-2.296875 c 0.171875,0 0.359375,0 0.359375,-0.203125 0,-0.1875 -0.1875,-0.1875 -0.359375,-0.1875 H 1.171875 c -0.171875,0 -0.34375,0 -0.34375,0.1875 0,0.203125 0.171875,0.203125 0.34375,0.203125 z m 0,0"
           id="id-15af41db-9557-4e49-978a-95ff00d31835" />
      </g>
      <g
         id="id-77cb1d98-dcfc-4467-825c-9fe4b95377a7" />
      <g
         id="id-b1425e90-fa87-4a1b-a6b0-6c929216807e">
        <path
           d="m 2.9375,-6.375 c 0,-0.25 0,-0.265625 -0.234375,-0.265625 C 2.078125,-6 1.203125,-6 0.890625,-6 v 0.3125 c 0.203125,0 0.78125,0 1.296875,-0.265625 v 5.171875 c 0,0.359375 -0.03125,0.46875 -0.921875,0.46875 h -0.3125 V 0 c 0.34375,-0.03125 1.203125,-0.03125 1.609375,-0.03125 0.390625,0 1.265625,0 1.609375,0.03125 v -0.3125 h -0.3125 c -0.90625,0 -0.921875,-0.109375 -0.921875,-0.46875 z m 0,0"
           id="id-ab813469-620b-43d3-94ef-0b6017755c49" />
      </g>
    </g>
    <g
       id="id-4ba0344a-4d05-43bf-9192-b2bdc89f9bfd">
      <g
         id="id-a74524e1-9410-4e1e-b0bf-28edd949bf97" />
      <g
         id="id-a13f9f93-78a4-49c7-9049-c72e0717067d">
        <path
           d="m 2.9375,-6.375 c 0,-0.25 0,-0.265625 -0.234375,-0.265625 C 2.078125,-6 1.203125,-6 0.890625,-6 v 0.3125 c 0.203125,0 0.78125,0 1.296875,-0.265625 v 5.171875 c 0,0.359375 -0.03125,0.46875 -0.921875,0.46875 h -0.3125 V 0 c 0.34375,-0.03125 1.203125,-0.03125 1.609375,-0.03125 0.390625,0 1.265625,0 1.609375,0.03125 v -0.3125 h -0.3125 c -0.90625,0 -0.921875,-0.109375 -0.921875,-0.46875 z m 0,0"
           id="id-fdd2a022-2259-40ad-9599-b4b107b57812" />
      </g>
    </g>
  </defs>
  <g
     inkscape:label="Layer 1"
     inkscape:groupmode="layer"
     id="layer1"
     transform="translate(-30.794703,-70.235903)">
    <path
       style="font-variation-settings:normal;vector-effect:none;fill:none;fill-opacity:0.78012;stroke:#4d4d4d;stroke-width:0.320948;stroke-linecap:round;stroke-linejoin:round;stroke-miterlimit:1.7;stroke-dasharray:1.28379, 1.28379;stroke-dashoffset:0;stroke-opacity:1;-inkscape-stroke:none;stop-color:#000000"
       d="M 74.188971,122.12213 V 100.15939"
       id="path4777" />
    <path
       style="font-variation-settings:normal;vector-effect:none;fill:none;fill-opacity:0.78012;stroke:#4d4d4d;stroke-width:0.320292;stroke-linecap:round;stroke-linejoin:round;stroke-miterlimit:1.7;stroke-dasharray:1.28117, 1.28117;stroke-dashoffset:0;stroke-opacity:1;-inkscape-stroke:none;stop-color:#000000"
       d="M 131.89707,99.622527 V 77.749587"
       id="path4777-6" />
    <path
       style="font-variation-settings:normal;fill:none;fill-opacity:0.78012;stroke:#000000;stroke-width:0.325509;stroke-linecap:round;stroke-linejoin:round;stroke-miterlimit:1.7;stroke-dasharray:0.325509, 1.30203;stroke-dashoffset:0;stroke-opacity:1;stop-color:#000000"
       d="M 113.86137,89.328067 V 100.71483"
       id="path3731-9" />
    <path
       style="fill:none;fill-opacity:0.78012;stroke:#666666;stroke-width:0.404276;stroke-linecap:round;stroke-linejoin:round;stroke-miterlimit:1.7;stroke-dasharray:none;marker-end:url(#TriangleStart-6-1)"
       d="M 30.996841,99.967957 H 177.27176"
       id="path1079-5-4" />
    <path
       style="fill:none;fill-opacity:0.78012;stroke:#b3b3b3;stroke-width:0.5;stroke-linecap:round;stroke-linejoin:round;stroke-miterlimit:1.7;stroke-dasharray:1, 1;stroke-dashoffset:0"
       d="m 131.806,77.924747 c 0.71913,0.001 1.43826,0.0535 2.15739,0.15678 1.58718,0.22795 3.17398,0.70575 4.76077,1.41593 1.58681,0.71028 3.1736,1.65424 4.7604,2.79901 1.5868,1.14486 3.1736,2.49155 4.7604,3.99392 1.5868,1.50237 3.17359,3.16123 4.7604,4.92029 1.58718,1.75906 3.17397,3.61863 4.76077,5.51599 1.5868,1.89746 3.1736,3.832713 4.7604,5.740933 1.5868,1.90831 3.1736,3.78909 4.7604,5.58002 1.58679,1.79082 3.17359,3.49078 4.76039,5.04391"
       id="path4335" />
    <path
       style="fill:none;fill-opacity:0.78012;stroke:#b3b3b3;stroke-width:0.5;stroke-linecap:round;stroke-linejoin:round;stroke-miterlimit:1.7;stroke-dasharray:1, 1;stroke-dashoffset:0"
       d="m 33.993171,87.054307 c 1.58698,1.55313 3.17382,3.25329 4.76066,5.04392 1.5868,1.79072 3.17363,3.6718 4.76047,5.58001 1.58684,1.90821 3.17367,3.843473 4.76047,5.740933 1.58684,1.89746 3.17368,3.75672 4.76051,5.51599 1.58684,1.75927 3.17364,3.41762 4.76048,4.92029 1.58683,1.50297 3.17367,2.84876 4.76051,3.99353 1.5868,1.14577 3.17363,2.08852 4.76047,2.7991 1.58683,0.71058 3.17366,1.18798 4.76049,1.41613 0.65873,0.0947 1.31745,0.14647 1.97618,0.15534"
       id="path3540-6" />
    <path
       style="fill:none;fill-opacity:0.78012;stroke:#000000;stroke-width:1;stroke-linecap:round;stroke-linejoin:round;stroke-miterlimit:1.7;stroke-dasharray:none;stroke-dashoffset:0"
       d="m 74.053411,122.21955 c 0.9281,0.0125 1.85621,-0.0601 2.78431,-0.21764 1.58684,-0.26935 3.17368,-0.78696 4.76047,-1.53574 1.58684,-0.74877 3.17368,-1.72971 4.76051,-2.90765 1.58684,-1.17793 3.17364,-2.55387 4.76048,-4.08186 1.58683,-1.528 3.17367,-3.20807 4.76051,-4.98331 1.5868,-1.77525 3.17363,-3.64608 4.760469,-5.54927 1.58684,-1.90329 3.17367,-3.838943 4.76048,-5.742333 1.58683,-1.90329 3.17367,-3.77381 4.7605,-5.54926 1.58669,-1.77545 3.17349,-3.45501 4.76066,-4.98331 1.58681,-1.5282 3.17361,-2.90403 4.7604,-4.08227 1.58681,-1.17833 3.1736,-2.15787 4.7604,-2.90704 1.5868,-0.74908 3.17359,-1.26648 4.7604,-1.53614 0.86766,-0.14745 1.73533,-0.2204 2.603,-0.21898"
       id="path4333" />
    <path
       style="font-variation-settings:normal;vector-effect:none;fill:none;fill-opacity:0.78012;stroke:#000000;stroke-width:0.325509;stroke-linecap:round;stroke-linejoin:round;stroke-miterlimit:1.7;stroke-dasharray:0.325509, 1.30203;stroke-dashoffset:0;stroke-opacity:1;-inkscape-stroke:none;stop-color:#000000"
       d="m 113.31388,88.686067 h -9.74707"
       id="path4640" />
    <g
       transform="matrix(0.705556,0,0,0.705556,98.447468,86.982756)"
       ns2:version="1.8.2"
       ns2:texconverter="pdflatex"
       ns2:pdfconverter="inkscape"
       ns2:text="$y$"
       ns2:preamble="/Users/jvkersch/Library/Application Support/org.inkscape.Inkscape/config/inkscape/extensions/textext/default_packages.tex"
       ns2:scale="2.0"
       ns2:alignment="middle center"
       ns2:stroke-to-path="0"
       ns2:inkscapeversion="1.2"
       ns2:jacobian_sqrt="0.705556"
       id="g11653">
      <defs
         id="id-ecaeb632-1422-42a1-809a-b18f4c2a1ea0">
        <g
           id="id-92700eca-1bc0-4edc-bfdc-ffaecbdb0c0a">
          <g
             id="id-ab4c5979-c29c-4266-9244-cb27d9a0090d" />
          <g
             id="id-0b3d0370-9435-4d2b-adae-f87a434944b4">
            <path
               d="m 4.84375,-3.796875 c 0.046875,-0.140625 0.046875,-0.15625 0.046875,-0.234375 0,-0.171875 -0.140625,-0.265625 -0.296875,-0.265625 -0.09375,0 -0.25,0.0625 -0.34375,0.203125 -0.015625,0.0625 -0.109375,0.359375 -0.140625,0.546875 -0.078125,0.25 -0.140625,0.53125 -0.203125,0.796875 l -0.453125,1.796875 c -0.03125,0.140625 -0.46875,0.84375 -1.125,0.84375 -0.5,0 -0.609375,-0.4375 -0.609375,-0.8125 C 1.71875,-1.375 1.890625,-2 2.21875,-2.875 2.375,-3.28125 2.421875,-3.390625 2.421875,-3.59375 c 0,-0.4375 -0.3125,-0.8125 -0.8125,-0.8125 -0.953125,0 -1.3125,1.453125 -1.3125,1.53125 0,0.109375 0.09375,0.109375 0.109375,0.109375 0.109375,0 0.109375,-0.03125 0.15625,-0.1875 0.28125,-0.9375 0.671875,-1.234375 1.015625,-1.234375 0.078125,0 0.25,0 0.25,0.3125 0,0.25 -0.109375,0.515625 -0.171875,0.703125 -0.40625,1.0625 -0.578125,1.625 -0.578125,2.09375 0,0.890625 0.625,1.1875 1.21875,1.1875 0.390625,0 0.71875,-0.171875 1,-0.453125 -0.125,0.515625 -0.25,1.015625 -0.640625,1.546875 -0.265625,0.328125 -0.640625,0.625 -1.09375,0.625 -0.140625,0 -0.59375,-0.03125 -0.765625,-0.421875 0.15625,0 0.296875,0 0.421875,-0.125 C 1.328125,1.203125 1.421875,1.0625 1.421875,0.875 1.421875,0.5625 1.15625,0.53125 1.0625,0.53125 0.828125,0.53125 0.5,0.6875 0.5,1.171875 c 0,0.5 0.4375,0.875 1.0625,0.875 1.015625,0 2.046875,-0.90625 2.328125,-2.03125 z m 0,0"
               id="id-f983e91c-6cb5-42c3-a53f-77a4de8aa255" />
          </g>
        </g>
      </defs>
      <g
         fill="#000000"
         fill-opacity="1"
         id="id-c476a5ad-3911-41fc-aa80-fbec117b434c"
         transform="translate(-149.009,-130.359)">
        <g
           transform="translate(148.712,134.765)"
           id="g11650">
          <path
             d="m 4.84375,-3.796875 c 0.046875,-0.140625 0.046875,-0.15625 0.046875,-0.234375 0,-0.171875 -0.140625,-0.265625 -0.296875,-0.265625 -0.09375,0 -0.25,0.0625 -0.34375,0.203125 -0.015625,0.0625 -0.109375,0.359375 -0.140625,0.546875 -0.078125,0.25 -0.140625,0.53125 -0.203125,0.796875 l -0.453125,1.796875 c -0.03125,0.140625 -0.46875,0.84375 -1.125,0.84375 -0.5,0 -0.609375,-0.4375 -0.609375,-0.8125 C 1.71875,-1.375 1.890625,-2 2.21875,-2.875 2.375,-3.28125 2.421875,-3.390625 2.421875,-3.59375 c 0,-0.4375 -0.3125,-0.8125 -0.8125,-0.8125 -0.953125,0 -1.3125,1.453125 -1.3125,1.53125 0,0.109375 0.09375,0.109375 0.109375,0.109375 0.109375,0 0.109375,-0.03125 0.15625,-0.1875 0.28125,-0.9375 0.671875,-1.234375 1.015625,-1.234375 0.078125,0 0.25,0 0.25,0.3125 0,0.25 -0.109375,0.515625 -0.171875,0.703125 -0.40625,1.0625 -0.578125,1.625 -0.578125,2.09375 0,0.890625 0.625,1.1875 1.21875,1.1875 0.390625,0 0.71875,-0.171875 1,-0.453125 -0.125,0.515625 -0.25,1.015625 -0.640625,1.546875 -0.265625,0.328125 -0.640625,0.625 -1.09375,0.625 -0.140625,0 -0.59375,-0.03125 -0.765625,-0.421875 0.15625,0 0.296875,0 0.421875,-0.125 C 1.328125,1.203125 1.421875,1.0625 1.421875,0.875 1.421875,0.5625 1.15625,0.53125 1.0625,0.53125 0.828125,0.53125 0.5,0.6875 0.5,1.171875 c 0,0.5 0.4375,0.875 1.0625,0.875 1.015625,0 2.046875,-0.90625 2.328125,-2.03125 z m 0,0"
             id="id-e20d682e-3190-4280-846d-a311beffe18a" />
        </g>
      </g>
    </g>
    <g
       transform="matrix(0.705556,0,0,0.705556,112.22113,100.84733)"
       ns2:version="1.8.2"
       ns2:texconverter="pdflatex"
       ns2:pdfconverter="inkscape"
       ns2:text="$\\theta$"
       ns2:preamble="/Users/jvkersch/Library/Application Support/org.inkscape.Inkscape/config/inkscape/extensions/textext/default_packages.tex"
       ns2:scale="2.0"
       ns2:alignment="middle center"
       ns2:stroke-to-path="0"
       ns2:inkscapeversion="1.2"
       ns2:jacobian_sqrt="0.705556"
       id="g11873">
      <defs
         id="id-b2fcf0a7-7823-48d1-99ac-1447aca7a1e4">
        <g
           id="id-27550da2-4347-49b1-a89c-7236d4c0c88e">
          <g
             id="id-822c8412-04c4-4e46-88e0-e0b409882bff" />
          <g
             id="id-19565044-65c4-43e9-afbc-8929931d968a">
            <path
               d="m 4.53125,-4.984375 c 0,-0.65625 -0.171875,-2.046875 -1.1875,-2.046875 -1.390625,0 -2.921875,2.8125 -2.921875,5.09375 0,0.9375 0.28125,2.046875 1.1875,2.046875 1.40625,0 2.921875,-2.859375 2.921875,-5.09375 z M 1.46875,-3.625 C 1.640625,-4.25 1.84375,-5.046875 2.25,-5.765625 2.515625,-6.25 2.875,-6.8125 3.328125,-6.8125 c 0.484375,0 0.546875,0.640625 0.546875,1.203125 0,0.5 -0.078125,1 -0.3125,1.984375 z m 2,0.328125 C 3.359375,-2.84375 3.15625,-2 2.765625,-1.28125 c -0.34375,0.6875 -0.71875,1.171875 -1.15625,1.171875 -0.328125,0 -0.53125,-0.296875 -0.53125,-1.21875 0,-0.421875 0.0625,-1 0.3125,-1.96875 z m 0,0"
               id="id-1d63bb85-6329-4345-834b-b05330449540" />
          </g>
        </g>
      </defs>
      <g
         fill="#000000"
         fill-opacity="1"
         id="id-e6d05968-f463-4823-9df7-e62e79b7ac14"
         transform="translate(-149.134,-127.734)">
        <g
           transform="translate(148.712,134.765)"
           id="g11870">
          <path
             d="m 4.53125,-4.984375 c 0,-0.65625 -0.171875,-2.046875 -1.1875,-2.046875 -1.390625,0 -2.921875,2.8125 -2.921875,5.09375 0,0.9375 0.28125,2.046875 1.1875,2.046875 1.40625,0 2.921875,-2.859375 2.921875,-5.09375 z M 1.46875,-3.625 C 1.640625,-4.25 1.84375,-5.046875 2.25,-5.765625 2.515625,-6.25 2.875,-6.8125 3.328125,-6.8125 c 0.484375,0 0.546875,0.640625 0.546875,1.203125 0,0.5 -0.078125,1 -0.3125,1.984375 z m 2,0.328125 C 3.359375,-2.84375 3.15625,-2 2.765625,-1.28125 c -0.34375,0.6875 -0.71875,1.171875 -1.15625,1.171875 -0.328125,0 -0.53125,-0.296875 -0.53125,-1.21875 0,-0.421875 0.0625,-1 0.3125,-1.96875 z m 0,0"
             id="id-ce186218-fd08-459c-852f-289a4703b96b" />
        </g>
      </g>
    </g>
    <path
       style="font-variation-settings:normal;opacity:1;vector-effect:none;fill:none;fill-opacity:0.78012;stroke:#666666;stroke-width:0.404276;stroke-linecap:round;stroke-linejoin:round;stroke-miterlimit:1.7;stroke-dasharray:none;stroke-dashoffset:0;stroke-opacity:1;-inkscape-stroke:none;marker-end:url(#TriangleStart-6-1);stop-color:#000000;stop-opacity:1"
       d="M 102.83696,124.68476 V 71.671517"
       id="path1081-3" />
    <path
       style="font-variation-settings:normal;fill:none;fill-opacity:0.78012;stroke:#000000;stroke-width:0.325509;stroke-linecap:round;stroke-linejoin:round;stroke-miterlimit:1.7;stroke-dasharray:none;stroke-dashoffset:0;stroke-opacity:1;stop-color:#000000"
       d="m 100.95063,78.103274 h 3.63685"
       id="path10624" />
    <path
       style="font-variation-settings:normal;vector-effect:none;fill:none;fill-opacity:0.78012;stroke:#000000;stroke-width:0.325509;stroke-linecap:round;stroke-linejoin:round;stroke-miterlimit:1.7;stroke-dasharray:none;stroke-dashoffset:0;stroke-opacity:1;-inkscape-stroke:none;stop-color:#000000"
       d="m 101.05031,122.54455 h 3.63685"
       id="path10624-2" />
    <g
       transform="matrix(0.705556,0,0,0.705556,92.044377,119.58315)"
       ns2:version="1.8.2"
       ns2:texconverter="pdflatex"
       ns2:pdfconverter="inkscape"
       ns2:text="$-1$"
       ns2:preamble="/Users/jvkersch/Library/Application Support/org.inkscape.Inkscape/config/inkscape/extensions/textext/default_packages.tex"
       ns2:scale="2.0"
       ns2:alignment="middle center"
       ns2:stroke-to-path="0"
       ns2:jacobian_sqrt="0.705556"
       id="g10820">
      <defs
         id="id-45d29427-b7cf-4ff1-8d3e-c9553f150bce">
        <g
           id="g12611">
          <g
             id="g12599" />
          <g
             id="g12603">
            <path
               d="m 6.5625,-2.296875 c 0.171875,0 0.359375,0 0.359375,-0.203125 0,-0.1875 -0.1875,-0.1875 -0.359375,-0.1875 H 1.171875 c -0.171875,0 -0.34375,0 -0.34375,0.1875 0,0.203125 0.171875,0.203125 0.34375,0.203125 z m 0,0"
               id="path12601" />
          </g>
          <g
             id="g12605" />
          <g
             id="g12609">
            <path
               d="m 2.9375,-6.375 c 0,-0.25 0,-0.265625 -0.234375,-0.265625 C 2.078125,-6 1.203125,-6 0.890625,-6 v 0.3125 c 0.203125,0 0.78125,0 1.296875,-0.265625 v 5.171875 c 0,0.359375 -0.03125,0.46875 -0.921875,0.46875 h -0.3125 V 0 c 0.34375,-0.03125 1.203125,-0.03125 1.609375,-0.03125 0.390625,0 1.265625,0 1.609375,0.03125 v -0.3125 h -0.3125 c -0.90625,0 -0.921875,-0.109375 -0.921875,-0.46875 z m 0,0"
               id="path12607" />
          </g>
        </g>
      </defs>
      <g
         fill="#000000"
         fill-opacity="1"
         id="id-e41407b4-3429-41b9-928d-ae39305fea02"
         transform="translate(-149.54,-128.124)">
        <g
           transform="translate(148.712,134.765)"
           id="g10813">
          <path
             d="m 6.5625,-2.296875 c 0.171875,0 0.359375,0 0.359375,-0.203125 0,-0.1875 -0.1875,-0.1875 -0.359375,-0.1875 H 1.171875 c -0.171875,0 -0.34375,0 -0.34375,0.1875 0,0.203125 0.171875,0.203125 0.34375,0.203125 z m 0,0"
             id="id-34f94724-ff3e-4981-a53e-b102359c6649" />
        </g>
      </g>
      <g
         fill="#000000"
         fill-opacity="1"
         id="id-93c00db6-8893-47cf-9222-b45bd91f8722"
         transform="translate(-149.54,-128.124)">
        <g
           transform="translate(156.461,134.765)"
           id="g10817">
          <path
             d="m 2.9375,-6.375 c 0,-0.25 0,-0.265625 -0.234375,-0.265625 C 2.078125,-6 1.203125,-6 0.890625,-6 v 0.3125 c 0.203125,0 0.78125,0 1.296875,-0.265625 v 5.171875 c 0,0.359375 -0.03125,0.46875 -0.921875,0.46875 h -0.3125 V 0 c 0.34375,-0.03125 1.203125,-0.03125 1.609375,-0.03125 0.390625,0 1.265625,0 1.609375,0.03125 v -0.3125 h -0.3125 c -0.90625,0 -0.921875,-0.109375 -0.921875,-0.46875 z m 0,0"
             id="id-bbec9c09-dcea-4b8d-8fb2-98b8f41844c6" />
        </g>
      </g>
    </g>
    <g
       transform="matrix(0.705556,0,0,0.705556,97.556165,74.860783)"
       ns2:version="1.8.2"
       ns2:texconverter="pdflatex"
       ns2:pdfconverter="inkscape"
       ns2:text="$1$"
       ns2:preamble="/Users/jvkersch/Library/Application Support/org.inkscape.Inkscape/config/inkscape/extensions/textext/default_packages.tex"
       ns2:scale="2.0"
       ns2:alignment="middle center"
       ns2:stroke-to-path="0"
       ns2:jacobian_sqrt="0.705556"
       id="g11032">
      <defs
         id="id-a7418cc3-f1ad-4c71-b9a7-d46282832c20">
        <g
           id="g12627">
          <g
             id="g12621" />
          <g
             id="g12625">
            <path
               d="m 2.9375,-6.375 c 0,-0.25 0,-0.265625 -0.234375,-0.265625 C 2.078125,-6 1.203125,-6 0.890625,-6 v 0.3125 c 0.203125,0 0.78125,0 1.296875,-0.265625 v 5.171875 c 0,0.359375 -0.03125,0.46875 -0.921875,0.46875 h -0.3125 V 0 c 0.34375,-0.03125 1.203125,-0.03125 1.609375,-0.03125 0.390625,0 1.265625,0 1.609375,0.03125 v -0.3125 h -0.3125 c -0.90625,0 -0.921875,-0.109375 -0.921875,-0.46875 z m 0,0"
               id="path12623" />
          </g>
        </g>
      </defs>
      <g
         fill="#000000"
         fill-opacity="1"
         id="id-a672dc35-bede-47d2-a05e-3b6799f3a6d8"
         transform="translate(-149.603,-128.124)">
        <g
           transform="translate(148.712,134.765)"
           id="g11029">
          <path
             d="m 2.9375,-6.375 c 0,-0.25 0,-0.265625 -0.234375,-0.265625 C 2.078125,-6 1.203125,-6 0.890625,-6 v 0.3125 c 0.203125,0 0.78125,0 1.296875,-0.265625 v 5.171875 c 0,0.359375 -0.03125,0.46875 -0.921875,0.46875 h -0.3125 V 0 c 0.34375,-0.03125 1.203125,-0.03125 1.609375,-0.03125 0.390625,0 1.265625,0 1.609375,0.03125 v -0.3125 h -0.3125 c -0.90625,0 -0.921875,-0.109375 -0.921875,-0.46875 z m 0,0"
             id="id-db17ae33-b69a-49f7-951f-c06928470a4c" />
        </g>
      </g>
    </g>
    <g
       transform="matrix(0.705556,0,0,0.705556,63.596051,100.82575)"
       ns2:version="1.8.2"
       ns2:texconverter="pdflatex"
       ns2:pdfconverter="inkscape"
       ns2:text="$-\\frac{\\pi}{2}$"
       ns2:preamble="/Users/jvkersch/Library/Application Support/org.inkscape.Inkscape/config/inkscape/extensions/textext/default_packages.tex"
       ns2:scale="2.0"
       ns2:alignment="middle center"
       ns2:stroke-to-path="0"
       ns2:inkscapeversion="1.2"
       ns2:jacobian_sqrt="0.705556"
       id="g5167">
      <defs
         id="id-727985b9-19f5-46e9-a600-7b8b38bb984b">
        <g
           id="id-6c56e639-e939-4626-b37d-d4dc1d94c551">
          <g
             id="id-5c739b31-6f56-4a12-aed2-13a168466b55" />
          <g
             id="id-dfe34034-18a9-4c9b-9386-aceb05a6b0de">
            <path
               d="m 6.5625,-2.296875 c 0.171875,0 0.359375,0 0.359375,-0.203125 0,-0.1875 -0.1875,-0.1875 -0.359375,-0.1875 H 1.171875 c -0.171875,0 -0.34375,0 -0.34375,0.1875 0,0.203125 0.171875,0.203125 0.34375,0.203125 z m 0,0"
               id="id-5e7ff12d-2e05-44d5-9b5a-edc8d650ceed" />
          </g>
          <g
             id="id-2fccc73f-c082-4f29-9b88-1b10e4cd6ae7" />
          <g
             id="id-2d80d152-239d-42ae-a5ac-afd707e1e3b9">
            <path
               d="M 2.171875,-2.53125 H 3 c -0.109375,0.421875 -0.265625,1.046875 -0.265625,1.609375 0,0.28125 0.046875,0.46875 0.078125,0.609375 0.109375,0.359375 0.203125,0.375 0.3125,0.375 0.171875,0 0.328125,-0.140625 0.328125,-0.3125 0,-0.046875 -0.015625,-0.078125 -0.046875,-0.140625 C 3.265625,-0.65625 3.140625,-1.046875 3.140625,-1.625 c 0,-0.125 0,-0.40625 0.09375,-0.90625 h 0.875 c 0.125,0 0.1875,0 0.265625,-0.046875 0.09375,-0.078125 0.109375,-0.1875 0.109375,-0.21875 C 4.484375,-3 4.3125,-3 4.1875,-3 h -2.625 c -0.28125,0 -0.484375,0.0625 -0.796875,0.359375 -0.1875,0.15625 -0.453125,0.53125 -0.453125,0.59375 0,0.078125 0.09375,0.078125 0.125,0.078125 0.078125,0 0.078125,-0.015625 0.125,-0.078125 C 0.90625,-2.53125 1.34375,-2.53125 1.5,-2.53125 h 0.421875 c -0.21875,0.765625 -0.59375,1.59375 -0.796875,2.015625 -0.046875,0.078125 -0.109375,0.234375 -0.140625,0.25 0,0.03125 -0.015625,0.0625 -0.015625,0.109375 0,0.109375 0.078125,0.21875 0.25,0.21875 0.265625,0 0.34375,-0.3125 0.515625,-0.9375 z m 0,0"
               id="id-9d5d0b93-f521-4791-b193-37a580f89777" />
          </g>
          <g
             id="id-75e726da-706d-4683-81b4-05815bc39e42" />
          <g
             id="id-4aaa691f-9728-4fa4-a9d2-71cfef3cfdcb">
            <path
               d="M 3.515625,-1.265625 H 3.28125 c -0.015625,0.15625 -0.09375,0.5625 -0.1875,0.625 C 3.046875,-0.59375 2.515625,-0.59375 2.40625,-0.59375 H 1.125 c 0.734375,-0.640625 0.984375,-0.84375 1.390625,-1.171875 0.515625,-0.40625 1,-0.84375 1,-1.5 0,-0.84375 -0.734375,-1.359375 -1.625,-1.359375 -0.859375,0 -1.453125,0.609375 -1.453125,1.25 0,0.34375 0.296875,0.390625 0.375,0.390625 0.15625,0 0.359375,-0.125 0.359375,-0.375 0,-0.125 -0.046875,-0.375 -0.40625,-0.375 C 0.984375,-4.21875 1.453125,-4.375 1.78125,-4.375 c 0.703125,0 1.0625,0.546875 1.0625,1.109375 0,0.609375 -0.4375,1.078125 -0.65625,1.328125 L 0.515625,-0.265625 C 0.4375,-0.203125 0.4375,-0.1875 0.4375,0 h 2.875 z m 0,0"
               id="id-4ee5ce3c-ee93-49b6-8ddf-f3e067f7f64a" />
          </g>
        </g>
      </defs>
      <g
         fill="#000000"
         fill-opacity="1"
         id="id-b87a7a62-e223-4c2d-93b1-362fc1c8d83f"
         transform="translate(-149.54,-127.842)">
        <g
           transform="translate(148.712,134.765)"
           id="g13092">
          <path
             d="m 6.5625,-2.296875 c 0.171875,0 0.359375,0 0.359375,-0.203125 0,-0.1875 -0.1875,-0.1875 -0.359375,-0.1875 H 1.171875 c -0.171875,0 -0.34375,0 -0.34375,0.1875 0,0.203125 0.171875,0.203125 0.34375,0.203125 z m 0,0"
             id="id-658cc743-49fd-4811-9cc2-5c6112d906c3" />
        </g>
      </g>
      <g
         fill="#000000"
         fill-opacity="1"
         id="id-66b0a169-4b4d-435e-ab46-2ef5e20b420b"
         transform="translate(-149.54,-127.842)">
        <g
           transform="translate(157.657,130.842)"
           id="g13096">
          <path
             d="M 2.171875,-2.53125 H 3 c -0.109375,0.421875 -0.265625,1.046875 -0.265625,1.609375 0,0.28125 0.046875,0.46875 0.078125,0.609375 0.109375,0.359375 0.203125,0.375 0.3125,0.375 0.171875,0 0.328125,-0.140625 0.328125,-0.3125 0,-0.046875 -0.015625,-0.078125 -0.046875,-0.140625 C 3.265625,-0.65625 3.140625,-1.046875 3.140625,-1.625 c 0,-0.125 0,-0.40625 0.09375,-0.90625 h 0.875 c 0.125,0 0.1875,0 0.265625,-0.046875 0.09375,-0.078125 0.109375,-0.1875 0.109375,-0.21875 C 4.484375,-3 4.3125,-3 4.1875,-3 h -2.625 c -0.28125,0 -0.484375,0.0625 -0.796875,0.359375 -0.1875,0.15625 -0.453125,0.53125 -0.453125,0.59375 0,0.078125 0.09375,0.078125 0.125,0.078125 0.078125,0 0.078125,-0.015625 0.125,-0.078125 C 0.90625,-2.53125 1.34375,-2.53125 1.5,-2.53125 h 0.421875 c -0.21875,0.765625 -0.59375,1.59375 -0.796875,2.015625 -0.046875,0.078125 -0.109375,0.234375 -0.140625,0.25 0,0.03125 -0.015625,0.0625 -0.015625,0.109375 0,0.109375 0.078125,0.21875 0.25,0.21875 0.265625,0 0.34375,-0.3125 0.515625,-0.9375 z m 0,0"
             id="id-25a36af2-3654-46c3-a6f6-7e835e329c80" />
        </g>
      </g>
      <path
         fill="none"
         stroke-width="0.398"
         stroke-linecap="butt"
         stroke-linejoin="miter"
         stroke="#000000"
         stroke-opacity="1"
         stroke-miterlimit="10"
         d="M 8.1161194,4.4314423 H 13.026275"
         id="id-1ac874b6-586c-41bf-9cae-483653bba63f" />
      <g
         fill="#000000"
         fill-opacity="1"
         id="id-e56a9506-f73c-4ea6-a7c6-5b8911bf50a4"
         transform="translate(-149.54,-127.842)">
        <g
           transform="translate(158.125,138.2)"
           id="g13101">
          <path
             d="M 3.515625,-1.265625 H 3.28125 c -0.015625,0.15625 -0.09375,0.5625 -0.1875,0.625 C 3.046875,-0.59375 2.515625,-0.59375 2.40625,-0.59375 H 1.125 c 0.734375,-0.640625 0.984375,-0.84375 1.390625,-1.171875 0.515625,-0.40625 1,-0.84375 1,-1.5 0,-0.84375 -0.734375,-1.359375 -1.625,-1.359375 -0.859375,0 -1.453125,0.609375 -1.453125,1.25 0,0.34375 0.296875,0.390625 0.375,0.390625 0.15625,0 0.359375,-0.125 0.359375,-0.375 0,-0.125 -0.046875,-0.375 -0.40625,-0.375 C 0.984375,-4.21875 1.453125,-4.375 1.78125,-4.375 c 0.703125,0 1.0625,0.546875 1.0625,1.109375 0,0.609375 -0.4375,1.078125 -0.65625,1.328125 L 0.515625,-0.265625 C 0.4375,-0.203125 0.4375,-0.1875 0.4375,0 h 2.875 z m 0,0"
             id="id-587d7e4e-7aac-4a1f-bef4-f179ab3c9658" />
        </g>
      </g>
    </g>
    <g
       transform="matrix(0.705556,0,0,0.705556,129.94548,100.82575)"
       ns2:version="1.8.2"
       ns2:texconverter="pdflatex"
       ns2:pdfconverter="inkscape"
       ns2:text="$\\frac{\\pi}{2}$"
       ns2:preamble="/Users/jvkersch/Library/Application Support/org.inkscape.Inkscape/config/inkscape/extensions/textext/default_packages.tex"
       ns2:scale="2.0"
       ns2:alignment="middle center"
       ns2:stroke-to-path="0"
       ns2:inkscapeversion="1.2"
       ns2:jacobian_sqrt="0.705556"
       id="g5531">
      <defs
         id="id-0003c725-f629-4459-944b-dc5a38e200df">
        <g
           id="id-ca950889-67c1-4130-867c-3a50198653f2">
          <g
             id="id-97a2609c-d8e2-4433-b65a-f699cdbe334c" />
          <g
             id="id-43a19fb5-b54c-4f07-81eb-3acfb12d5f01">
            <path
               d="M 2.171875,-2.53125 H 3 c -0.109375,0.421875 -0.265625,1.046875 -0.265625,1.609375 0,0.28125 0.046875,0.46875 0.078125,0.609375 0.109375,0.359375 0.203125,0.375 0.3125,0.375 0.171875,0 0.328125,-0.140625 0.328125,-0.3125 0,-0.046875 -0.015625,-0.078125 -0.046875,-0.140625 C 3.265625,-0.65625 3.140625,-1.046875 3.140625,-1.625 c 0,-0.125 0,-0.40625 0.09375,-0.90625 h 0.875 c 0.125,0 0.1875,0 0.265625,-0.046875 0.09375,-0.078125 0.109375,-0.1875 0.109375,-0.21875 C 4.484375,-3 4.3125,-3 4.1875,-3 h -2.625 c -0.28125,0 -0.484375,0.0625 -0.796875,0.359375 -0.1875,0.15625 -0.453125,0.53125 -0.453125,0.59375 0,0.078125 0.09375,0.078125 0.125,0.078125 0.078125,0 0.078125,-0.015625 0.125,-0.078125 C 0.90625,-2.53125 1.34375,-2.53125 1.5,-2.53125 h 0.421875 c -0.21875,0.765625 -0.59375,1.59375 -0.796875,2.015625 -0.046875,0.078125 -0.109375,0.234375 -0.140625,0.25 0,0.03125 -0.015625,0.0625 -0.015625,0.109375 0,0.109375 0.078125,0.21875 0.25,0.21875 0.265625,0 0.34375,-0.3125 0.515625,-0.9375 z m 0,0"
               id="id-bdb8bedc-8ef8-4cc3-9b48-55530d735dff" />
          </g>
          <g
             id="id-25435545-9d43-48ba-92e2-5128a0802a0c" />
          <g
             id="id-a6e20bf4-7f63-4203-8b46-c29ac72d06cf">
            <path
               d="M 3.515625,-1.265625 H 3.28125 c -0.015625,0.15625 -0.09375,0.5625 -0.1875,0.625 C 3.046875,-0.59375 2.515625,-0.59375 2.40625,-0.59375 H 1.125 c 0.734375,-0.640625 0.984375,-0.84375 1.390625,-1.171875 0.515625,-0.40625 1,-0.84375 1,-1.5 0,-0.84375 -0.734375,-1.359375 -1.625,-1.359375 -0.859375,0 -1.453125,0.609375 -1.453125,1.25 0,0.34375 0.296875,0.390625 0.375,0.390625 0.15625,0 0.359375,-0.125 0.359375,-0.375 0,-0.125 -0.046875,-0.375 -0.40625,-0.375 C 0.984375,-4.21875 1.453125,-4.375 1.78125,-4.375 c 0.703125,0 1.0625,0.546875 1.0625,1.109375 0,0.609375 -0.4375,1.078125 -0.65625,1.328125 L 0.515625,-0.265625 C 0.4375,-0.203125 0.4375,-0.1875 0.4375,0 h 2.875 z m 0,0"
               id="id-3563afe7-9963-43ac-8da2-e45dd6533154" />
          </g>
        </g>
      </defs>
      <g
         fill="#000000"
         fill-opacity="1"
         id="id-c068ae1f-7206-4afc-82cb-c14d6d4fc82f"
         transform="translate(-149.906,-127.842)">
        <g
           transform="translate(149.908,130.842)"
           id="g13383">
          <path
             d="M 2.171875,-2.53125 H 3 c -0.109375,0.421875 -0.265625,1.046875 -0.265625,1.609375 0,0.28125 0.046875,0.46875 0.078125,0.609375 0.109375,0.359375 0.203125,0.375 0.3125,0.375 0.171875,0 0.328125,-0.140625 0.328125,-0.3125 0,-0.046875 -0.015625,-0.078125 -0.046875,-0.140625 C 3.265625,-0.65625 3.140625,-1.046875 3.140625,-1.625 c 0,-0.125 0,-0.40625 0.09375,-0.90625 h 0.875 c 0.125,0 0.1875,0 0.265625,-0.046875 0.09375,-0.078125 0.109375,-0.1875 0.109375,-0.21875 C 4.484375,-3 4.3125,-3 4.1875,-3 h -2.625 c -0.28125,0 -0.484375,0.0625 -0.796875,0.359375 -0.1875,0.15625 -0.453125,0.53125 -0.453125,0.59375 0,0.078125 0.09375,0.078125 0.125,0.078125 0.078125,0 0.078125,-0.015625 0.125,-0.078125 C 0.90625,-2.53125 1.34375,-2.53125 1.5,-2.53125 h 0.421875 c -0.21875,0.765625 -0.59375,1.59375 -0.796875,2.015625 -0.046875,0.078125 -0.109375,0.234375 -0.140625,0.25 0,0.03125 -0.015625,0.0625 -0.015625,0.109375 0,0.109375 0.078125,0.21875 0.25,0.21875 0.265625,0 0.34375,-0.3125 0.515625,-0.9375 z m 0,0"
             id="id-431d1894-ec31-40bd-9499-66cfa9106a06" />
        </g>
      </g>
      <path
         fill="none"
         stroke-width="0.398"
         stroke-linecap="butt"
         stroke-linejoin="miter"
         stroke="#000000"
         stroke-opacity="1"
         stroke-miterlimit="10"
         d="M 0,4.4314423 H 4.910156"
         id="id-085a0892-7500-4cef-9a73-d57ed5c93aa1" />
      <g
         fill="#000000"
         fill-opacity="1"
         id="id-4564a3ae-b801-4e46-8a71-a7525041f57b"
         transform="translate(-149.906,-127.842)">
        <g
           transform="translate(150.377,138.2)"
           id="g13388">
          <path
             d="M 3.515625,-1.265625 H 3.28125 c -0.015625,0.15625 -0.09375,0.5625 -0.1875,0.625 C 3.046875,-0.59375 2.515625,-0.59375 2.40625,-0.59375 H 1.125 c 0.734375,-0.640625 0.984375,-0.84375 1.390625,-1.171875 0.515625,-0.40625 1,-0.84375 1,-1.5 0,-0.84375 -0.734375,-1.359375 -1.625,-1.359375 -0.859375,0 -1.453125,0.609375 -1.453125,1.25 0,0.34375 0.296875,0.390625 0.375,0.390625 0.15625,0 0.359375,-0.125 0.359375,-0.375 0,-0.125 -0.046875,-0.375 -0.40625,-0.375 C 0.984375,-4.21875 1.453125,-4.375 1.78125,-4.375 c 0.703125,0 1.0625,0.546875 1.0625,1.109375 0,0.609375 -0.4375,1.078125 -0.65625,1.328125 L 0.515625,-0.265625 C 0.4375,-0.203125 0.4375,-0.1875 0.4375,0 h 2.875 z m 0,0"
             id="id-a77c3265-1e6c-4002-9d74-e79d5b64b023" />
        </g>
      </g>
    </g>
  </g>
</svg>
