<?xml version="1.0" encoding="UTF-8" standalone="no"?>
<!-- Created with Inkscape (http://www.inkscape.org/) -->

<svg
   width="107.54256mm"
   height="71.497719mm"
   viewBox="0 0 107.54256 71.497719"
   version="1.1"
   id="svg14422"
   sodipodi:docname="inverse-tangent.svg"
   inkscape:version="1.2 (dc2aeda, 2022-05-15)"
   inkscape:export-filename="inverse-tangent.png"
   inkscape:export-xdpi="96"
   inkscape:export-ydpi="96"
   xmlns:inkscape="http://www.inkscape.org/namespaces/inkscape"
   xmlns:sodipodi="http://sodipodi.sourceforge.net/DTD/sodipodi-0.dtd"
   xmlns="http://www.w3.org/2000/svg"
   xmlns:svg="http://www.w3.org/2000/svg"
   xmlns:ns2="http://www.iki.fi/pav/software/textext/">
  <sodipodi:namedview
     id="namedview14424"
     pagecolor="#ffffff"
     bordercolor="#000000"
     borderopacity="0.25"
     inkscape:showpageshadow="2"
     inkscape:pageopacity="0.0"
     inkscape:pagecheckerboard="0"
     inkscape:deskcolor="#d1d1d1"
     inkscape:document-units="mm"
     showgrid="false"
     inkscape:zoom="1.69812"
     inkscape:cx="186.08814"
     inkscape:cy="172.83819"
     inkscape:window-width="2560"
     inkscape:window-height="1387"
     inkscape:window-x="20"
     inkscape:window-y="74"
     inkscape:window-maximized="0"
     inkscape:current-layer="layer1" />
  <defs
     id="defs14419">
    <marker
       style="overflow:visible"
       id="TriangleStart-6-1"
       refX="0"
       refY="0"
       orient="auto-start-reverse"
       inkscape:stockid="TriangleStart"
       markerWidth="5.3244081"
       markerHeight="6.155385"
       viewBox="0 0 5.3244081 6.1553851"
       inkscape:isstock="true"
       inkscape:collect="always"
       preserveAspectRatio="xMidYMid">
      <path
         transform="scale(0.5)"
         style="fill:context-stroke;fill-rule:evenodd;stroke:context-stroke;stroke-width:1pt"
         d="M 5.77,0 -2.88,5 V -5 Z"
         id="path135-8-3" />
    </marker>
  </defs>
  <g
     inkscape:label="Layer 1"
     inkscape:groupmode="layer"
     id="layer1"
     transform="translate(-49.3111, -205.438)">
    <path
       style="font-variation-settings:normal;opacity:1;vector-effect:none;fill:none;fill-opacity:0.78012;stroke:#000000;stroke-width:0.325509;stroke-linecap:round;stroke-linejoin:round;stroke-miterlimit:1.7;stroke-dasharray:0.325509, 1.30203;stroke-dashoffset:0;stroke-opacity:1;-inkscape-stroke:none;stop-color:#000000;stop-opacity:1"
       d="M 102.90963,253.11578 H 89.354198 v -12.77639"
       id="path16993" />
    <path
       style="font-variation-settings:normal;opacity:1;vector-effect:none;fill:none;fill-opacity:0.78012;stroke:#666666;stroke-width:0.404276;stroke-linecap:round;stroke-linejoin:round;stroke-miterlimit:1.7;stroke-dasharray:none;stroke-dashoffset:0;stroke-opacity:1;-inkscape-stroke:none;marker-end:url(#TriangleStart-6-1);stop-color:#000000;stop-opacity:1"
       d="M 102.91221,276.73363 V 206.87366"
       id="path1081-3" />
    <path
       style="font-variation-settings:normal;opacity:1;vector-effect:none;fill:none;fill-opacity:0.78012;stroke:#666666;stroke-width:0.404276;stroke-linecap:round;stroke-linejoin:round;stroke-miterlimit:1.7;stroke-dasharray:none;stroke-dashoffset:0;stroke-opacity:1;-inkscape-stroke:none;marker-end:url(#TriangleStart-6-1);stop-color:#000000;stop-opacity:1"
       d="M 49.513279,240.37085 H 155.41809"
       id="path1079-5-4" />
    <path
       style="fill:none;fill-opacity:0.78012;stroke:#000000;stroke-width:0.75082;stroke-linecap:round;stroke-linejoin:round;stroke-miterlimit:1.7;stroke-dasharray:none;stroke-dashoffset:0;stop-color:#000000"
       d="m 88.990277,272.136 c 0.320064,-17.54279 0.640127,-17.38323 0.960194,-19.89722 0.320053,-2.51395 0.640122,-3.70165 0.96019,-4.66999 0.320053,-0.96834 0.640121,-1.60119 0.96019,-2.11818 0.320052,-0.517 0.640121,-0.90351 0.960189,-1.22994 0.320053,-0.32643 0.640122,-0.58938 0.96019,-0.81816 0.320068,-0.22873 0.640121,-0.42211 0.96019,-0.59448 0.320068,-0.17233 0.640121,-0.3231 0.960189,-0.4602 0.320068,-0.13709 0.640122,-0.26026 0.96019,-0.37409 0.320068,-0.11387 0.640121,-0.21829 0.96019,-0.31631 0.320068,-0.098 0.640121,-0.18945 0.96019,-0.27647 0.320068,-0.087 0.640121,-0.16941 0.960189,-0.24875 0.320068,-0.0793 0.640122,-0.15552 0.960192,-0.22972 0.32007,-0.0742 0.64012,-0.14631 0.96019,-0.2173 0.32006,-0.071 0.64012,-0.14085 0.96019,-0.21031 0.32006,-0.0695 0.64012,-0.13856 0.96018,-0.20805 0.32014,-0.0695 0.6402,-0.13931 0.96027,-0.21027 0.31991,-0.071 0.63998,-0.14315 0.96005,-0.21733 0.32007,-0.0742 0.64014,-0.1504 0.96021,-0.22973 0.32007,-0.0793 0.64013,-0.16178 0.9602,-0.24875 0.32007,-0.087 0.64014,-0.17848 0.96021,-0.27647 0.32007,-0.098 0.64013,-0.20246 0.9602,-0.3163 0.32007,-0.11383 0.64014,-0.23702 0.96021,-0.37408 0.32007,-0.13706 0.64013,-0.28794 0.9602,-0.46023 0.32007,-0.17229 0.64014,-0.36581 0.9602,-0.59448 0.32008,-0.22867 0.64015,-0.49185 0.96022,-0.81815 0.32006,-0.32629 0.64013,-0.7132 0.9602,-1.22993 0.32007,-0.51674 0.63998,-1.15056 0.96005,-2.11818 0.32007,-0.96761 0.64013,-2.15914 0.96021,-4.67 0.32006,-2.51087 0.64013,-2.3544 0.9602,-19.89723"
       title="t tan(t)"
       id="path14552" />
    <path
       style="font-variation-settings:normal;vector-effect:none;fill:none;fill-opacity:0.78012;stroke:#b3b3b3;stroke-width:0.5;stroke-linecap:round;stroke-linejoin:round;stroke-miterlimit:1.7;stroke-dasharray:1, 1;stroke-dashoffset:0;stroke-opacity:1;-inkscape-stroke:none;stop-color:#000000"
       d="m 54.166844,272.136 c 0.32006,-17.54279 0.64012,-17.38323 0.96019,-19.89722 0.32005,-2.51395 0.64012,-3.70165 0.96019,-4.66999 0.32005,-0.96834 0.64012,-1.60119 0.96019,-2.11818 0.32005,-0.517 0.64012,-0.90351 0.96019,-1.22994 0.32005,-0.32643 0.64012,-0.58938 0.96019,-0.81816 0.32007,-0.22873 0.64012,-0.42211 0.96019,-0.59448 0.32007,-0.17233 0.64012,-0.3231 0.96019,-0.4602 0.32007,-0.13709 0.64012,-0.26026 0.96019,-0.37409 0.32007,-0.11387 0.64012,-0.21829 0.96019,-0.31631 0.32007,-0.098 0.64012,-0.18945 0.96019,-0.27647 0.32007,-0.087 0.64012,-0.16941 0.96019,-0.24875 0.32007,-0.0793 0.64012,-0.15552 0.96019,-0.22972 0.32007,-0.0742 0.64012,-0.14631 0.96019,-0.2173 0.32006,-0.071 0.64012,-0.14085 0.96019,-0.21031 0.32006,-0.0695 0.64012,-0.13856 0.96018,-0.20805 0.32014,-0.0695 0.6402,-0.13931 0.96027,-0.21027 0.31991,-0.071 0.63998,-0.14315 0.96005,-0.21733 0.32007,-0.0742 0.64014,-0.1504 0.96021,-0.22973 0.32007,-0.0793 0.64013,-0.16178 0.9602,-0.24875 0.32007,-0.087 0.64014,-0.17848 0.96021,-0.27647 0.32007,-0.098 0.64013,-0.20246 0.9602,-0.3163 0.32007,-0.11383 0.64014,-0.23702 0.96021,-0.37408 0.32007,-0.13706 0.64013,-0.28794 0.9602,-0.46023 0.32007,-0.17229 0.64014,-0.36581 0.9602,-0.59448 0.32008,-0.22867 0.64015,-0.49185 0.96022,-0.81815 0.32006,-0.32629 0.64013,-0.7132 0.9602,-1.22993 0.32007,-0.51674 0.63998,-1.15056 0.96005,-2.11818 0.32007,-0.96761 0.64013,-2.15914 0.96021,-4.67 0.32006,-2.51087 0.64013,-2.3544 0.9602,-19.89723"
       title="t tan(t)"
       id="path14552-5" />
    <path
       style="font-variation-settings:normal;vector-effect:none;fill:none;fill-opacity:0.78012;stroke:#b3b3b3;stroke-width:0.5;stroke-linecap:round;stroke-linejoin:round;stroke-miterlimit:1.7;stroke-dasharray:1, 1;stroke-dashoffset:0;stroke-opacity:1;-inkscape-stroke:none;stop-color:#000000"
       d="m 123.81371,272.136 c 0.32006,-17.54279 0.64012,-17.38323 0.96019,-19.89722 0.32005,-2.51395 0.64012,-3.70165 0.96019,-4.66999 0.32005,-0.96834 0.64012,-1.60119 0.96019,-2.11818 0.32005,-0.517 0.64012,-0.90351 0.96019,-1.22994 0.32005,-0.32643 0.64012,-0.58938 0.96019,-0.81816 0.32007,-0.22873 0.64012,-0.42211 0.96019,-0.59448 0.32007,-0.17233 0.64012,-0.3231 0.96019,-0.4602 0.32007,-0.13709 0.64012,-0.26026 0.96019,-0.37409 0.32007,-0.11387 0.64012,-0.21829 0.96019,-0.31631 0.32007,-0.098 0.64012,-0.18945 0.96019,-0.27647 0.32007,-0.087 0.64012,-0.16941 0.96019,-0.24875 0.32007,-0.0793 0.64012,-0.15552 0.96019,-0.22972 0.32007,-0.0742 0.64012,-0.14631 0.96019,-0.2173 0.32006,-0.071 0.64012,-0.14085 0.96019,-0.21031 0.32006,-0.0695 0.64012,-0.13856 0.96018,-0.20805 0.32014,-0.0695 0.6402,-0.13931 0.96027,-0.21027 0.31991,-0.071 0.63998,-0.14315 0.96005,-0.21733 0.32007,-0.0742 0.64014,-0.1504 0.96021,-0.22973 0.32007,-0.0793 0.64013,-0.16178 0.9602,-0.24875 0.32007,-0.087 0.64014,-0.17848 0.96021,-0.27647 0.32007,-0.098 0.64013,-0.20246 0.9602,-0.3163 0.32007,-0.11383 0.64014,-0.23702 0.96021,-0.37408 0.32007,-0.13706 0.64013,-0.28794 0.9602,-0.46023 0.32007,-0.17229 0.64014,-0.36581 0.9602,-0.59448 0.32008,-0.22867 0.64015,-0.49185 0.96022,-0.81815 0.32006,-0.32629 0.64013,-0.7132 0.9602,-1.22993 0.32007,-0.51674 0.63998,-1.15056 0.96005,-2.11818 0.32007,-0.96761 0.64013,-2.15914 0.96021,-4.67 0.32006,-2.51087 0.64013,-2.3544 0.9602,-19.89723"
       title="t tan(t)"
       id="path14552-5-9" />
    <g
       transform="matrix(0.705556,0,0,0.705556,119.079,245.43417)"
       ns2:version="1.8.2"
       ns2:texconverter="pdflatex"
       ns2:pdfconverter="inkscape"
       ns2:text="$\\frac{\\pi}{2}$"
       ns2:preamble="/Users/jvkersch/Library/Application Support/org.inkscape.Inkscape/config/inkscape/extensions/textext/default_packages.tex"
       ns2:scale="2.0"
       ns2:alignment="middle center"
       ns2:stroke-to-path="0"
       ns2:jacobian_sqrt="0.705556"
       id="g16777">
      <defs
         id="id-e48f7690-b9ea-4fa3-93b5-4fb36dc47599">
        <g
           id="id-9056d9e7-3341-4a11-ab23-bcdbc83b45c6">
          <g
             id="id-517af47f-0e46-4e00-a535-6211949730eb" />
          <g
             id="id-6fd1be08-271c-4fd1-9cbb-4de296ab9623">
            <path
               d="M 2.171875,-2.53125 H 3 c -0.109375,0.421875 -0.265625,1.046875 -0.265625,1.609375 0,0.28125 0.046875,0.46875 0.078125,0.609375 0.109375,0.359375 0.203125,0.375 0.3125,0.375 0.171875,0 0.328125,-0.140625 0.328125,-0.3125 0,-0.046875 -0.015625,-0.078125 -0.046875,-0.140625 C 3.265625,-0.65625 3.140625,-1.046875 3.140625,-1.625 c 0,-0.125 0,-0.40625 0.09375,-0.90625 h 0.875 c 0.125,0 0.1875,0 0.265625,-0.046875 0.09375,-0.078125 0.109375,-0.1875 0.109375,-0.21875 C 4.484375,-3 4.3125,-3 4.1875,-3 h -2.625 c -0.28125,0 -0.484375,0.0625 -0.796875,0.359375 -0.1875,0.15625 -0.453125,0.53125 -0.453125,0.59375 0,0.078125 0.09375,0.078125 0.125,0.078125 0.078125,0 0.078125,-0.015625 0.125,-0.078125 C 0.90625,-2.53125 1.34375,-2.53125 1.5,-2.53125 h 0.421875 c -0.21875,0.765625 -0.59375,1.59375 -0.796875,2.015625 -0.046875,0.078125 -0.109375,0.234375 -0.140625,0.25 0,0.03125 -0.015625,0.0625 -0.015625,0.109375 0,0.109375 0.078125,0.21875 0.25,0.21875 0.265625,0 0.34375,-0.3125 0.515625,-0.9375 z m 0,0"
               id="id-ec466abe-f556-4fdd-a510-aafce23a8e99" />
          </g>
          <g
             id="id-f9a23a4c-73c0-48da-a78c-b7295c4c0a93" />
          <g
             id="id-e4504a2c-4f17-42c6-a6df-5e2a07354cf7">
            <path
               d="M 3.515625,-1.265625 H 3.28125 c -0.015625,0.15625 -0.09375,0.5625 -0.1875,0.625 C 3.046875,-0.59375 2.515625,-0.59375 2.40625,-0.59375 H 1.125 c 0.734375,-0.640625 0.984375,-0.84375 1.390625,-1.171875 0.515625,-0.40625 1,-0.84375 1,-1.5 0,-0.84375 -0.734375,-1.359375 -1.625,-1.359375 -0.859375,0 -1.453125,0.609375 -1.453125,1.25 0,0.34375 0.296875,0.390625 0.375,0.390625 0.15625,0 0.359375,-0.125 0.359375,-0.375 0,-0.125 -0.046875,-0.375 -0.40625,-0.375 C 0.984375,-4.21875 1.453125,-4.375 1.78125,-4.375 c 0.703125,0 1.0625,0.546875 1.0625,1.109375 0,0.609375 -0.4375,1.078125 -0.65625,1.328125 L 0.515625,-0.265625 C 0.4375,-0.203125 0.4375,-0.1875 0.4375,0 h 2.875 z m 0,0"
               id="id-6d6eae0e-563f-40c7-b595-0b24e6a354be" />
          </g>
        </g>
      </defs>
      <g
         fill="#000000"
         fill-opacity="1"
         id="id-1679d852-20ac-4db4-bf22-495b895da73b"
         transform="translate(-149.906,-127.842)">
        <g
           transform="translate(149.908,130.842)"
           id="g16769">
          <path
             d="M 2.171875,-2.53125 H 3 c -0.109375,0.421875 -0.265625,1.046875 -0.265625,1.609375 0,0.28125 0.046875,0.46875 0.078125,0.609375 0.109375,0.359375 0.203125,0.375 0.3125,0.375 0.171875,0 0.328125,-0.140625 0.328125,-0.3125 0,-0.046875 -0.015625,-0.078125 -0.046875,-0.140625 C 3.265625,-0.65625 3.140625,-1.046875 3.140625,-1.625 c 0,-0.125 0,-0.40625 0.09375,-0.90625 h 0.875 c 0.125,0 0.1875,0 0.265625,-0.046875 0.09375,-0.078125 0.109375,-0.1875 0.109375,-0.21875 C 4.484375,-3 4.3125,-3 4.1875,-3 h -2.625 c -0.28125,0 -0.484375,0.0625 -0.796875,0.359375 -0.1875,0.15625 -0.453125,0.53125 -0.453125,0.59375 0,0.078125 0.09375,0.078125 0.125,0.078125 0.078125,0 0.078125,-0.015625 0.125,-0.078125 C 0.90625,-2.53125 1.34375,-2.53125 1.5,-2.53125 h 0.421875 c -0.21875,0.765625 -0.59375,1.59375 -0.796875,2.015625 -0.046875,0.078125 -0.109375,0.234375 -0.140625,0.25 0,0.03125 -0.015625,0.0625 -0.015625,0.109375 0,0.109375 0.078125,0.21875 0.25,0.21875 0.265625,0 0.34375,-0.3125 0.515625,-0.9375 z m 0,0"
             id="id-1583c806-960d-4d77-aee5-c8498b043848" />
        </g>
      </g>
      <path
         fill="none"
         stroke-width="0.398"
         stroke-linecap="butt"
         stroke-linejoin="miter"
         stroke="#000000"
         stroke-opacity="1"
         stroke-miterlimit="10"
         d="M 0,4.4314423 H 4.910156"
         id="id-85641740-2265-4d13-86c5-b2ed875c796a" />
      <g
         fill="#000000"
         fill-opacity="1"
         id="id-d94fb225-bcfe-4e47-abff-79075def0b2a"
         transform="translate(-149.906,-127.842)">
        <g
           transform="translate(150.377,138.2)"
           id="g16774">
          <path
             d="M 3.515625,-1.265625 H 3.28125 c -0.015625,0.15625 -0.09375,0.5625 -0.1875,0.625 C 3.046875,-0.59375 2.515625,-0.59375 2.40625,-0.59375 H 1.125 c 0.734375,-0.640625 0.984375,-0.84375 1.390625,-1.171875 0.515625,-0.40625 1,-0.84375 1,-1.5 0,-0.84375 -0.734375,-1.359375 -1.625,-1.359375 -0.859375,0 -1.453125,0.609375 -1.453125,1.25 0,0.34375 0.296875,0.390625 0.375,0.390625 0.15625,0 0.359375,-0.125 0.359375,-0.375 0,-0.125 -0.046875,-0.375 -0.40625,-0.375 C 0.984375,-4.21875 1.453125,-4.375 1.78125,-4.375 c 0.703125,0 1.0625,0.546875 1.0625,1.109375 0,0.609375 -0.4375,1.078125 -0.65625,1.328125 L 0.515625,-0.265625 C 0.4375,-0.203125 0.4375,-0.1875 0.4375,0 h 2.875 z m 0,0"
             id="id-90baf8b8-3b50-475f-a790-2a7ac5c26b93" />
        </g>
      </g>
    </g>
    <path
       style="font-variation-settings:normal;fill:none;fill-opacity:0.78012;stroke:#000000;stroke-width:0.325509;stroke-linecap:round;stroke-linejoin:round;stroke-miterlimit:1.7;stroke-dasharray:none;stroke-dashoffset:0;stroke-opacity:1;stop-color:#000000"
       d="m 120.90993,238.48578 v 3.63686"
       id="path10624-2" />
    <path
       style="font-variation-settings:normal;fill:none;fill-opacity:0.78012;stroke:#000000;stroke-width:0.325509;stroke-linecap:round;stroke-linejoin:round;stroke-miterlimit:1.7;stroke-dasharray:none;stroke-dashoffset:0;stroke-opacity:1;stop-color:#000000"
       d="m 84.72685,238.61055 v 3.63686"
       id="path10624-2-6" />
    <g
       transform="matrix(0.705556,0,0,0.705556,77.234083,244.905)"
       ns2:version="1.8.2"
       ns2:texconverter="pdflatex"
       ns2:pdfconverter="inkscape"
       ns2:text="$-\\frac{\\pi}{2}$"
       ns2:preamble="/Users/jvkersch/Library/Application Support/org.inkscape.Inkscape/config/inkscape/extensions/textext/default_packages.tex"
       ns2:scale="2.0"
       ns2:alignment="middle center"
       ns2:stroke-to-path="0"
       ns2:jacobian_sqrt="0.705556"
       id="g16885">
      <defs
         id="id-6bea3bcc-6226-4daa-9664-cdf0f6e0f738">
        <g
           id="id-ea6361dd-ff18-496c-8da8-f5b9b9b0692c">
          <g
             id="id-faf47fe4-9659-4a11-8469-5f36a27bdebf" />
          <g
             id="id-ed091567-d6b0-4587-909b-522152d56128">
            <path
               d="m 6.5625,-2.296875 c 0.171875,0 0.359375,0 0.359375,-0.203125 0,-0.1875 -0.1875,-0.1875 -0.359375,-0.1875 H 1.171875 c -0.171875,0 -0.34375,0 -0.34375,0.1875 0,0.203125 0.171875,0.203125 0.34375,0.203125 z m 0,0"
               id="id-2cf7aa19-385f-4333-8b31-5e5757c43e39" />
          </g>
          <g
             id="id-7f2ddbe7-a611-4ca0-bbc2-629c10d18479" />
          <g
             id="id-14a828a5-d431-41c1-a37c-00a778c8304b">
            <path
               d="M 2.171875,-2.53125 H 3 c -0.109375,0.421875 -0.265625,1.046875 -0.265625,1.609375 0,0.28125 0.046875,0.46875 0.078125,0.609375 0.109375,0.359375 0.203125,0.375 0.3125,0.375 0.171875,0 0.328125,-0.140625 0.328125,-0.3125 0,-0.046875 -0.015625,-0.078125 -0.046875,-0.140625 C 3.265625,-0.65625 3.140625,-1.046875 3.140625,-1.625 c 0,-0.125 0,-0.40625 0.09375,-0.90625 h 0.875 c 0.125,0 0.1875,0 0.265625,-0.046875 0.09375,-0.078125 0.109375,-0.1875 0.109375,-0.21875 C 4.484375,-3 4.3125,-3 4.1875,-3 h -2.625 c -0.28125,0 -0.484375,0.0625 -0.796875,0.359375 -0.1875,0.15625 -0.453125,0.53125 -0.453125,0.59375 0,0.078125 0.09375,0.078125 0.125,0.078125 0.078125,0 0.078125,-0.015625 0.125,-0.078125 C 0.90625,-2.53125 1.34375,-2.53125 1.5,-2.53125 h 0.421875 c -0.21875,0.765625 -0.59375,1.59375 -0.796875,2.015625 -0.046875,0.078125 -0.109375,0.234375 -0.140625,0.25 0,0.03125 -0.015625,0.0625 -0.015625,0.109375 0,0.109375 0.078125,0.21875 0.25,0.21875 0.265625,0 0.34375,-0.3125 0.515625,-0.9375 z m 0,0"
               id="id-9c696815-31a8-4b39-b163-219bd03e08e4" />
          </g>
          <g
             id="id-f234faab-8fe2-4d42-856c-b78f4c16ed71" />
          <g
             id="id-7164d606-bfe5-4675-a101-29f33c31029f">
            <path
               d="M 3.515625,-1.265625 H 3.28125 c -0.015625,0.15625 -0.09375,0.5625 -0.1875,0.625 C 3.046875,-0.59375 2.515625,-0.59375 2.40625,-0.59375 H 1.125 c 0.734375,-0.640625 0.984375,-0.84375 1.390625,-1.171875 0.515625,-0.40625 1,-0.84375 1,-1.5 0,-0.84375 -0.734375,-1.359375 -1.625,-1.359375 -0.859375,0 -1.453125,0.609375 -1.453125,1.25 0,0.34375 0.296875,0.390625 0.375,0.390625 0.15625,0 0.359375,-0.125 0.359375,-0.375 0,-0.125 -0.046875,-0.375 -0.40625,-0.375 C 0.984375,-4.21875 1.453125,-4.375 1.78125,-4.375 c 0.703125,0 1.0625,0.546875 1.0625,1.109375 0,0.609375 -0.4375,1.078125 -0.65625,1.328125 L 0.515625,-0.265625 C 0.4375,-0.203125 0.4375,-0.1875 0.4375,0 h 2.875 z m 0,0"
               id="id-5273a6fd-8b2d-4d87-aa3e-dd4f272421d4" />
          </g>
        </g>
      </defs>
      <g
         fill="#000000"
         fill-opacity="1"
         id="id-4419d348-da7c-4d5f-876c-dce4f5e40963"
         transform="translate(-149.54,-127.842)">
        <g
           transform="translate(148.712,134.765)"
           id="g16873">
          <path
             d="m 6.5625,-2.296875 c 0.171875,0 0.359375,0 0.359375,-0.203125 0,-0.1875 -0.1875,-0.1875 -0.359375,-0.1875 H 1.171875 c -0.171875,0 -0.34375,0 -0.34375,0.1875 0,0.203125 0.171875,0.203125 0.34375,0.203125 z m 0,0"
             id="id-a6bd4469-30c8-4f00-86f7-ac851ddd7301" />
        </g>
      </g>
      <g
         fill="#000000"
         fill-opacity="1"
         id="id-484e28eb-baad-4d5c-872e-859614c5e26e"
         transform="translate(-149.54,-127.842)">
        <g
           transform="translate(157.657,130.842)"
           id="g16877">
          <path
             d="M 2.171875,-2.53125 H 3 c -0.109375,0.421875 -0.265625,1.046875 -0.265625,1.609375 0,0.28125 0.046875,0.46875 0.078125,0.609375 0.109375,0.359375 0.203125,0.375 0.3125,0.375 0.171875,0 0.328125,-0.140625 0.328125,-0.3125 0,-0.046875 -0.015625,-0.078125 -0.046875,-0.140625 C 3.265625,-0.65625 3.140625,-1.046875 3.140625,-1.625 c 0,-0.125 0,-0.40625 0.09375,-0.90625 h 0.875 c 0.125,0 0.1875,0 0.265625,-0.046875 0.09375,-0.078125 0.109375,-0.1875 0.109375,-0.21875 C 4.484375,-3 4.3125,-3 4.1875,-3 h -2.625 c -0.28125,0 -0.484375,0.0625 -0.796875,0.359375 -0.1875,0.15625 -0.453125,0.53125 -0.453125,0.59375 0,0.078125 0.09375,0.078125 0.125,0.078125 0.078125,0 0.078125,-0.015625 0.125,-0.078125 C 0.90625,-2.53125 1.34375,-2.53125 1.5,-2.53125 h 0.421875 c -0.21875,0.765625 -0.59375,1.59375 -0.796875,2.015625 -0.046875,0.078125 -0.109375,0.234375 -0.140625,0.25 0,0.03125 -0.015625,0.0625 -0.015625,0.109375 0,0.109375 0.078125,0.21875 0.25,0.21875 0.265625,0 0.34375,-0.3125 0.515625,-0.9375 z m 0,0"
             id="id-4cc08f61-1d12-42d7-ab92-059fee56dbb2" />
        </g>
      </g>
      <path
         fill="none"
         stroke-width="0.398"
         stroke-linecap="butt"
         stroke-linejoin="miter"
         stroke="#000000"
         stroke-opacity="1"
         stroke-miterlimit="10"
         d="M 8.1161194,4.4314423 H 13.026275"
         id="id-06af582a-3d8d-4f53-a820-5f899466ddf0" />
      <g
         fill="#000000"
         fill-opacity="1"
         id="id-62024215-3c74-4cc6-96fb-37a7c395210f"
         transform="translate(-149.54,-127.842)">
        <g
           transform="translate(158.125,138.2)"
           id="g16882">
          <path
             d="M 3.515625,-1.265625 H 3.28125 c -0.015625,0.15625 -0.09375,0.5625 -0.1875,0.625 C 3.046875,-0.59375 2.515625,-0.59375 2.40625,-0.59375 H 1.125 c 0.734375,-0.640625 0.984375,-0.84375 1.390625,-1.171875 0.515625,-0.40625 1,-0.84375 1,-1.5 0,-0.84375 -0.734375,-1.359375 -1.625,-1.359375 -0.859375,0 -1.453125,0.609375 -1.453125,1.25 0,0.34375 0.296875,0.390625 0.375,0.390625 0.15625,0 0.359375,-0.125 0.359375,-0.375 0,-0.125 -0.046875,-0.375 -0.40625,-0.375 C 0.984375,-4.21875 1.453125,-4.375 1.78125,-4.375 c 0.703125,0 1.0625,0.546875 1.0625,1.109375 0,0.609375 -0.4375,1.078125 -0.65625,1.328125 L 0.515625,-0.265625 C 0.4375,-0.203125 0.4375,-0.1875 0.4375,0 h 2.875 z m 0,0"
             id="id-6ec175c3-7f5d-48ef-82aa-29a10a59800f" />
        </g>
      </g>
    </g>
    <g
       transform="matrix(0.705556,0,0,0.705556,104.24945,250.91752)"
       ns2:version="1.8.2"
       ns2:texconverter="pdflatex"
       ns2:pdfconverter="inkscape"
       ns2:text="$y$"
       ns2:preamble="/Users/jvkersch/Library/Application Support/org.inkscape.Inkscape/config/inkscape/extensions/textext/default_packages.tex"
       ns2:scale="2.0"
       ns2:alignment="middle center"
       ns2:stroke-to-path="0"
       ns2:inkscapeversion="1.2"
       ns2:jacobian_sqrt="0.705556"
       id="g17865">
      <defs
         id="id-fe0206e4-df4f-46b2-b1a4-f79e9f06bdbc">
        <g
           id="id-d5901eb9-e8ca-4fae-af8c-b9856d8cae7c">
          <g
             id="id-f6ade827-c05f-4e7a-bd93-f3f07a1dfcda" />
          <g
             id="id-8be4a7cf-6a1f-4e4f-8d16-5bedcfb4e12d">
            <path
               d="m 4.84375,-3.796875 c 0.046875,-0.140625 0.046875,-0.15625 0.046875,-0.234375 0,-0.171875 -0.140625,-0.265625 -0.296875,-0.265625 -0.09375,0 -0.25,0.0625 -0.34375,0.203125 -0.015625,0.0625 -0.109375,0.359375 -0.140625,0.546875 -0.078125,0.25 -0.140625,0.53125 -0.203125,0.796875 l -0.453125,1.796875 c -0.03125,0.140625 -0.46875,0.84375 -1.125,0.84375 -0.5,0 -0.609375,-0.4375 -0.609375,-0.8125 C 1.71875,-1.375 1.890625,-2 2.21875,-2.875 2.375,-3.28125 2.421875,-3.390625 2.421875,-3.59375 c 0,-0.4375 -0.3125,-0.8125 -0.8125,-0.8125 -0.953125,0 -1.3125,1.453125 -1.3125,1.53125 0,0.109375 0.09375,0.109375 0.109375,0.109375 0.109375,0 0.109375,-0.03125 0.15625,-0.1875 0.28125,-0.9375 0.671875,-1.234375 1.015625,-1.234375 0.078125,0 0.25,0 0.25,0.3125 0,0.25 -0.109375,0.515625 -0.171875,0.703125 -0.40625,1.0625 -0.578125,1.625 -0.578125,2.09375 0,0.890625 0.625,1.1875 1.21875,1.1875 0.390625,0 0.71875,-0.171875 1,-0.453125 -0.125,0.515625 -0.25,1.015625 -0.640625,1.546875 -0.265625,0.328125 -0.640625,0.625 -1.09375,0.625 -0.140625,0 -0.59375,-0.03125 -0.765625,-0.421875 0.15625,0 0.296875,0 0.421875,-0.125 C 1.328125,1.203125 1.421875,1.0625 1.421875,0.875 1.421875,0.5625 1.15625,0.53125 1.0625,0.53125 0.828125,0.53125 0.5,0.6875 0.5,1.171875 c 0,0.5 0.4375,0.875 1.0625,0.875 1.015625,0 2.046875,-0.90625 2.328125,-2.03125 z m 0,0"
               id="id-6070c467-6fd2-4907-a2e9-7390c516403e" />
          </g>
        </g>
      </defs>
      <g
         fill="#000000"
         fill-opacity="1"
         id="id-a5ceee96-0cb6-4143-b469-f336321a1f6a"
         transform="translate(-149.009,-130.359)">
        <g
           transform="translate(148.712,134.765)"
           id="g17862">
          <path
             d="m 4.84375,-3.796875 c 0.046875,-0.140625 0.046875,-0.15625 0.046875,-0.234375 0,-0.171875 -0.140625,-0.265625 -0.296875,-0.265625 -0.09375,0 -0.25,0.0625 -0.34375,0.203125 -0.015625,0.0625 -0.109375,0.359375 -0.140625,0.546875 -0.078125,0.25 -0.140625,0.53125 -0.203125,0.796875 l -0.453125,1.796875 c -0.03125,0.140625 -0.46875,0.84375 -1.125,0.84375 -0.5,0 -0.609375,-0.4375 -0.609375,-0.8125 C 1.71875,-1.375 1.890625,-2 2.21875,-2.875 2.375,-3.28125 2.421875,-3.390625 2.421875,-3.59375 c 0,-0.4375 -0.3125,-0.8125 -0.8125,-0.8125 -0.953125,0 -1.3125,1.453125 -1.3125,1.53125 0,0.109375 0.09375,0.109375 0.109375,0.109375 0.109375,0 0.109375,-0.03125 0.15625,-0.1875 0.28125,-0.9375 0.671875,-1.234375 1.015625,-1.234375 0.078125,0 0.25,0 0.25,0.3125 0,0.25 -0.109375,0.515625 -0.171875,0.703125 -0.40625,1.0625 -0.578125,1.625 -0.578125,2.09375 0,0.890625 0.625,1.1875 1.21875,1.1875 0.390625,0 0.71875,-0.171875 1,-0.453125 -0.125,0.515625 -0.25,1.015625 -0.640625,1.546875 -0.265625,0.328125 -0.640625,0.625 -1.09375,0.625 -0.140625,0 -0.59375,-0.03125 -0.765625,-0.421875 0.15625,0 0.296875,0 0.421875,-0.125 C 1.328125,1.203125 1.421875,1.0625 1.421875,0.875 1.421875,0.5625 1.15625,0.53125 1.0625,0.53125 0.828125,0.53125 0.5,0.6875 0.5,1.171875 c 0,0.5 0.4375,0.875 1.0625,0.875 1.015625,0 2.046875,-0.90625 2.328125,-2.03125 z m 0,0"
             id="id-365a350e-8675-43e5-abe6-2920ab721a07" />
        </g>
      </g>
    </g>
    <g
       transform="matrix(0.705556,0,0,0.705556,87.748627,234.31452)"
       ns2:version="1.8.2"
       ns2:texconverter="pdflatex"
       ns2:pdfconverter="inkscape"
       ns2:text="$\\theta$"
       ns2:preamble="/Users/jvkersch/Library/Application Support/org.inkscape.Inkscape/config/inkscape/extensions/textext/default_packages.tex"
       ns2:scale="2.0"
       ns2:alignment="middle center"
       ns2:stroke-to-path="0"
       ns2:inkscapeversion="1.2"
       ns2:jacobian_sqrt="0.705556"
       id="g18054">
      <defs
         id="id-6b8d4bbf-5f90-4252-8a6a-0cd42cd0d011">
        <g
           id="id-dc6571d6-5364-4f45-943f-f1e21f3f214d">
          <g
             id="id-b4089cdd-d77f-4a41-b30a-c70032dbd260" />
          <g
             id="id-ad97a32e-e305-421e-8a05-fb905d1f8fe2">
            <path
               d="m 4.53125,-4.984375 c 0,-0.65625 -0.171875,-2.046875 -1.1875,-2.046875 -1.390625,0 -2.921875,2.8125 -2.921875,5.09375 0,0.9375 0.28125,2.046875 1.1875,2.046875 1.40625,0 2.921875,-2.859375 2.921875,-5.09375 z M 1.46875,-3.625 C 1.640625,-4.25 1.84375,-5.046875 2.25,-5.765625 2.515625,-6.25 2.875,-6.8125 3.328125,-6.8125 c 0.484375,0 0.546875,0.640625 0.546875,1.203125 0,0.5 -0.078125,1 -0.3125,1.984375 z m 2,0.328125 C 3.359375,-2.84375 3.15625,-2 2.765625,-1.28125 c -0.34375,0.6875 -0.71875,1.171875 -1.15625,1.171875 -0.328125,0 -0.53125,-0.296875 -0.53125,-1.21875 0,-0.421875 0.0625,-1 0.3125,-1.96875 z m 0,0"
               id="id-24fdfc14-76d6-469b-92c8-b8a60ddac873" />
          </g>
        </g>
      </defs>
      <g
         fill="#000000"
         fill-opacity="1"
         id="id-0045d2ef-f693-4d83-bbae-c500b36ce987"
         transform="translate(-149.134,-127.734)">
        <g
           transform="translate(148.712,134.765)"
           id="g18051">
          <path
             d="m 4.53125,-4.984375 c 0,-0.65625 -0.171875,-2.046875 -1.1875,-2.046875 -1.390625,0 -2.921875,2.8125 -2.921875,5.09375 0,0.9375 0.28125,2.046875 1.1875,2.046875 1.40625,0 2.921875,-2.859375 2.921875,-5.09375 z M 1.46875,-3.625 C 1.640625,-4.25 1.84375,-5.046875 2.25,-5.765625 2.515625,-6.25 2.875,-6.8125 3.328125,-6.8125 c 0.484375,0 0.546875,0.640625 0.546875,1.203125 0,0.5 -0.078125,1 -0.3125,1.984375 z m 2,0.328125 C 3.359375,-2.84375 3.15625,-2 2.765625,-1.28125 c -0.34375,0.6875 -0.71875,1.171875 -1.15625,1.171875 -0.328125,0 -0.53125,-0.296875 -0.53125,-1.21875 0,-0.421875 0.0625,-1 0.3125,-1.96875 z m 0,0"
             id="id-7e769ebd-a09a-42fc-a279-51f2c90aa4bb" />
        </g>
      </g>
    </g>
  </g>
</svg>
